<svg width="137" height="47" viewBox="0 0 137 47" fill="none" xmlns="http://www.w3.org/2000/svg">
<g clip-path="url(#clip0_1577_1820)">
<path d="M3.64673 31.6399V29.2129H16.7135V33.6917H5.67093C4.5525 33.6917 3.64673 32.7736 3.64673 31.6399Z" fill="#7767A0"/>
<path d="M40.925 15.9668H44.5166C44.9735 15.9668 45.3436 16.342 45.3436 16.8051V27.3835C45.3436 28.7168 44.2803 29.7946 42.965 29.7946H40.925V15.9668Z" fill="#7767A0"/>
<path d="M36.8295 23.1767C36.8295 24.7015 36.5696 26.0987 36.0497 27.3841C35.5299 28.6615 34.8053 29.7632 33.8916 30.6893C32.9701 31.6154 31.8832 32.334 30.623 32.8609C29.3628 33.3878 27.9923 33.6433 26.5116 33.6433H14.4293C14.1064 33.6433 13.8071 33.5874 13.5314 33.4676C13.2558 33.3479 13.0195 33.1882 12.8147 32.9886C12.6099 32.789 12.4524 32.5415 12.3421 32.2621C12.224 31.9827 12.1689 31.6793 12.1689 31.352V10.9137C12.1689 10.6023 12.224 10.3069 12.3421 10.0275C12.4603 9.74809 12.6178 9.5006 12.8147 9.29302C13.0116 9.08544 13.2558 8.91778 13.5314 8.80601C13.8071 8.68626 14.1064 8.63037 14.4293 8.63037H26.5116C27.9923 8.63037 29.3628 8.89383 30.623 9.41277C31.8832 9.9397 32.978 10.6582 33.8916 11.5843C34.8053 12.5104 35.5299 13.6122 36.0497 14.8976C36.5696 16.1829 36.8295 17.5801 36.8295 19.089V23.1767ZM32.3558 19.097C32.3558 18.2108 32.214 17.4044 31.9304 16.67C31.6469 15.9355 31.2531 15.3127 30.7332 14.7938C30.2134 14.2748 29.5991 13.8757 28.8823 13.5882C28.1656 13.3008 27.3701 13.1571 26.4958 13.1571H16.6347V29.1006H26.4958C27.3701 29.1006 28.1656 28.9569 28.8823 28.6694C29.5991 28.382 30.2134 27.9828 30.7332 27.4639C31.2531 26.945 31.6469 26.3222 31.9304 25.5957C32.214 24.8692 32.3558 24.0549 32.3558 23.1607V19.081V19.097Z" fill="#7767A0"/>
<path d="M12.2004 29.0207H16.6189V42.2657H14.3348C13.1534 42.2657 12.2004 41.2996 12.2004 40.1021V29.0207Z" fill="#7767A0"/>
<path d="M6.06474 0H8.06531V33.6912H5.74968C4.584 33.6912 3.63884 32.7331 3.63884 31.5516V2.45099C3.64672 1.09377 4.73364 0 6.06474 0Z" fill="#7767A0"/>
<path d="M12.2949 40.2059V37.7788H25.3616V42.2577H14.3191C13.2006 42.2577 12.2949 41.3396 12.2949 40.2059Z" fill="#7767A0"/>
<path d="M12.2949 2.42704V0H28.4334V4.47885H14.3191C13.2006 4.47885 12.2949 3.56073 12.2949 2.42704Z" fill="#7767A0"/>
<path d="M40.9409 17.0851C40.1375 9.53253 36.0497 6.83404 34.3327 6.0197C31.0877 4.48684 27.441 4.47885 27.3937 4.47885L27.3701 0C27.5591 0 32.0171 0 36.1915 1.96399C38.5938 3.09767 44.2883 6.78614 45.3359 16.6061L40.9409 17.0851Z" fill="#7767A0"/>
<path d="M26.3304 42.3056C25.4483 42.3056 24.8969 42.2497 24.8182 42.2417L25.2592 37.7868C25.3065 37.7868 30.4418 38.2579 34.7344 35.751C38.0661 33.803 40.6337 31.9507 40.933 27.416L45.3437 27.7114C44.8633 35.0005 39.9091 37.8986 36.9398 39.6311C32.9544 41.9623 28.5751 42.3056 26.3304 42.3056Z" fill="#7767A0"/>
<path d="M2.21323 42.0741C3.43557 42.0741 4.42647 41.0696 4.42647 39.8306C4.42647 38.5916 3.43557 37.5872 2.21323 37.5872C0.990899 37.5872 0 38.5916 0 39.8306C0 41.0696 0.990899 42.0741 2.21323 42.0741Z" fill="#7767A0"/>
<path d="M7.59273 39.5352C8.60192 39.5352 9.42003 38.706 9.42003 37.683C9.42003 36.6601 8.60192 35.8308 7.59273 35.8308C6.58355 35.8308 5.76544 36.6601 5.76544 37.683C5.76544 38.706 6.58355 39.5352 7.59273 39.5352Z" fill="#7767A0"/>
<path d="M7.61636 47C9.24759 47 10.57 45.6596 10.57 44.0061C10.57 42.3526 9.24759 41.0122 7.61636 41.0122C5.98513 41.0122 4.66276 42.3526 4.66276 44.0061C4.66276 45.6596 5.98513 47 7.61636 47Z" fill="#7767A0"/>
<path d="M60.1354 31.4646C60.6473 31.4646 61.1751 31.5684 61.6083 31.768C62.0493 31.9676 62.4274 32.247 62.7424 32.6063C63.0575 32.9656 63.3095 33.3887 63.4907 33.8837C63.6718 34.3787 63.7585 34.9136 63.7585 35.4964V37.0692C63.7585 37.652 63.7742 38.2747 63.7742 38.7617C63.7742 39.9753 63.664 40.1908 63.341 40.5501C63.026 40.9093 62.4825 41.1169 61.876 41.1169C61.2696 41.1169 60.671 41.1169 60.1748 41.101H55.9846C55.8743 41.101 55.7719 41.077 55.6774 41.0371C55.5829 40.9892 55.4963 40.9333 55.4332 40.8535C55.3624 40.7736 55.3072 40.6858 55.2678 40.574C55.2285 40.4702 55.2048 40.3505 55.2048 40.2227V32.3588C55.2048 32.239 55.2127 32.1273 55.2127 31.9676C55.2127 31.8558 55.2285 31.7201 55.2994 31.6403C55.3702 31.5604 55.5356 31.4806 55.6459 31.4806H56.6935M62.199 35.5044C62.199 35.1611 62.1517 34.8577 62.0493 34.5703C61.9548 34.2909 61.813 34.0514 61.6319 33.8518C61.4507 33.6522 61.2381 33.5005 60.9939 33.3887C60.7419 33.2769 60.4662 33.221 60.1669 33.221H56.7486V39.3525H60.1669C60.4662 39.3525 60.8127 39.3286 61.0884 39.3286C61.435 39.3286 61.8603 39.3286 62.0336 39.2487C62.2541 39.1449 62.2069 38.6819 62.2069 38.2747C62.2069 37.9793 62.1911 37.4125 62.1911 37.0692V35.4964L62.199 35.5044Z" fill="white"/>
<path d="M73.6196 38.8895C73.6196 39.113 73.6038 39.5441 73.6038 39.8076C73.6038 40.0711 73.6432 40.4862 73.4699 40.7098C73.2966 40.9333 73.2415 40.9652 72.9343 41.069C72.6665 41.1568 71.8159 41.1169 71.4142 41.1169H68.5315C68.311 41.1169 67.7754 41.1489 67.5155 41.069C67.3343 41.0051 67.161 40.9173 66.9799 40.7976C66.7593 40.6459 66.6254 40.3505 66.6254 39.8954V38.0911C66.6254 37.8197 66.6254 37.6839 66.8066 37.4604C66.9799 37.2368 67.2398 37.1011 67.5155 37.1011C67.7911 37.1011 68.1298 37.1011 68.5315 37.1011H70.6266V38.4583H68.5315C68.311 38.4583 67.9644 38.4583 67.9644 38.4583V39.1689C67.9644 39.3845 67.9644 39.5282 68.0589 39.6559C68.1613 39.8076 68.3582 39.8315 68.5472 39.8315H71.4221C71.6426 39.8315 71.9341 39.8395 72.0522 39.7038C72.1703 39.5681 72.1388 39.0571 72.1388 38.8575V37.3566C72.1388 37.0852 72.2255 36.4544 71.9577 36.183C71.6899 35.9116 71.3355 35.8237 71.0677 35.8237L68.9332 35.8078L67.2477 35.8237V34.3388L68.8781 34.3547H71.4142C71.6348 34.3547 71.871 34.3946 72.131 34.4745C72.3909 34.5543 72.6272 34.6821 72.8477 34.8577C73.0682 35.0333 73.2494 35.2649 73.399 35.5523C73.5487 35.8397 73.6196 36.183 73.6196 36.5902V38.8895Z" fill="white"/>
<path d="M90.6166 36.654V37.5562C90.6166 37.8276 90.6245 38.1869 90.5378 38.3705C90.4118 38.618 90.1834 38.6819 89.9156 38.6819C89.5218 38.6819 89.0886 38.6659 88.7105 38.6659H86.5445V37.3965H88.7105C88.9153 37.3965 89.1516 37.4285 89.2855 37.2927C89.3721 37.2049 89.3721 37.2209 89.3721 37.1091V35.8397C89.2855 35.8397 88.8917 35.8397 88.7184 35.8397L86.3004 35.8557C85.8042 35.8557 85.6624 36.175 85.5521 36.3028C85.4419 36.4385 85.3867 36.7339 85.3867 36.9335V38.8975C85.3867 39.113 85.3474 39.5202 85.4734 39.6399C85.5994 39.7597 85.8514 39.7677 86.0405 39.7677H90.3567V41.1329H86.0326C85.8278 41.1329 85.4813 41.1329 85.2292 41.1329C84.9772 41.1329 84.5991 41.085 84.3943 40.9093C84.1895 40.7337 84.1974 40.7417 84.0635 40.4623C83.9218 40.1748 83.969 39.3206 83.969 38.9134V36.6381C83.969 36.4145 84.0084 36.175 84.0793 35.9116C84.1502 35.6481 84.2683 35.4086 84.4337 35.185C84.5991 34.9615 84.8118 34.7779 85.0717 34.6262C85.3316 34.4745 85.6545 34.4026 86.0326 34.4026H88.7342C88.9389 34.4026 89.317 34.3467 89.5533 34.4266C89.7896 34.5064 89.9314 34.5224 90.1361 34.698C90.3409 34.8737 90.4118 34.9535 90.5536 35.2409C90.6954 35.5283 90.6402 36.2708 90.6402 36.686L90.6166 36.654Z" fill="white"/>
<path d="M99.2411 41.1249V37.3805C99.2411 37.165 99.2017 36.9814 99.1308 36.8137C99.06 36.6461 98.9654 36.5023 98.8394 36.3826C98.7134 36.2628 98.5716 36.167 98.4062 36.1032C98.2408 36.0393 98.0597 36.0074 97.8706 36.0074H95.0746V41.1249H93.4757V35.185C93.4757 35.0733 93.4993 34.9695 93.5387 34.8737C93.5781 34.7779 93.6411 34.69 93.712 34.6182C93.7829 34.5463 93.8695 34.4905 93.9719 34.4505C94.0743 34.4106 94.1767 34.3867 94.2869 34.3867H97.8943C98.0991 34.3867 98.3038 34.4106 98.5322 34.4585C98.7528 34.5064 98.9812 34.5783 99.1939 34.6821C99.4144 34.7858 99.6192 34.9136 99.824 35.0653C100.021 35.225 100.202 35.4086 100.352 35.6321C100.509 35.8557 100.627 36.1111 100.714 36.3986C100.801 36.686 100.848 37.0213 100.848 37.3805V41.1249H99.2411Z" fill="white"/>
<path d="M110.945 40.3505C110.945 40.7257 110.646 41.0291 110.276 41.0291H104.361C104.243 41.0291 104.14 41.0051 104.038 40.9652C103.935 40.9253 103.857 40.8694 103.786 40.7976C103.715 40.7257 103.66 40.6379 103.62 40.5421C103.581 40.4463 103.557 40.3345 103.557 40.2148V31.3688H104.219C104.739 31.3688 105.156 31.792 105.156 32.3189V39.4084H110.945V40.3505Z" fill="white"/>
<path d="M137 38.8575C137 39.137 136.968 39.3845 136.898 39.608C136.827 39.8315 136.732 40.0232 136.622 40.1908C136.504 40.3585 136.37 40.5022 136.22 40.6219C136.071 40.7417 135.913 40.8375 135.74 40.9093C135.574 40.9812 135.409 41.0371 135.236 41.077C135.062 41.1089 134.905 41.1329 134.755 41.1329H131.873C131.597 41.1329 131.353 41.101 131.132 41.0291C130.912 40.9572 130.723 40.8614 130.557 40.7417C130.392 40.6219 130.25 40.4862 130.132 40.3345C130.014 40.1828 129.919 40.0232 129.848 39.8475C129.777 39.6799 129.722 39.5122 129.683 39.3366C129.651 39.1609 129.628 39.0012 129.628 38.8496V36.654C129.628 36.2389 129.699 35.8876 129.856 35.6002C130.006 35.3128 130.195 35.0733 130.415 34.8976C130.636 34.714 130.88 34.5863 131.148 34.5064C131.408 34.4266 131.652 34.3867 131.873 34.3867H134.755V36.0074L132.55 36.0313C131.928 36.0313 131.684 36.2788 131.573 36.3906C131.463 36.5023 131.219 36.8377 131.219 37.3806V38.8336C131.227 39.0571 131.282 39.2168 131.392 39.3286C131.502 39.4403 131.66 39.4962 131.873 39.4962H134.755C134.976 39.4962 135.133 39.4403 135.244 39.3286C135.354 39.2168 135.401 39.0571 135.401 38.8416V31.4327H136.992V38.8416L137 38.8575Z" fill="white"/>
<path d="M81.4486 35.9834L79.4401 35.9994V41.1169H77.8255V35.9994H75.7462V34.3787H77.8255V32.1752H78.7707C79.1409 32.1752 79.4401 32.4786 79.4401 32.8538V34.3707L81.4486 34.3547V35.9834Z" fill="white"/>
<path d="M122.169 41.1728H123.768L123.854 38.0113C123.854 37.5243 123.933 36.9654 124.264 36.6141C124.555 36.3028 125.012 36.0393 125.721 36.0393H128.029V34.4186H124.878C124.366 34.4186 123.854 34.5543 123.421 34.8338C122.783 35.2409 122.114 36.0553 122.161 37.668V41.1808L122.169 41.1728Z" fill="white"/>
<path d="M117.522 41.1728H116.608C114.828 41.1728 113.395 39.7118 113.395 37.9155V37.6759C113.395 35.8716 114.836 34.4186 116.608 34.4186H117.522C119.302 34.4186 120.735 35.8796 120.735 37.6759V37.9155C120.735 39.7198 119.294 41.1728 117.522 41.1728ZM118.759 38.4424V37.8995C118.759 36.9494 118.002 36.183 117.065 36.183H116.506C115.923 36.183 115.458 36.662 115.458 37.2448V37.7079C115.458 38.6979 116.254 39.5042 117.231 39.5042H117.711C118.294 39.5042 118.759 39.0252 118.759 38.4424Z" fill="white"/>
<path d="M55.3781 8.99852C55.3387 8.87078 55.4411 8.73506 55.575 8.73506H57.0873C57.3078 8.71909 57.3787 8.97457 57.4496 9.28593C57.4653 9.32585 57.615 9.98052 58.0009 11.3218C58.0403 11.4495 57.9458 11.5852 57.804 11.5852H56.2603C56.0791 11.5852 56.0712 11.4495 56.0003 11.1861L55.3702 8.99852H55.3781ZM55.4726 12.2399C56.528 12.2399 57.2842 12.4076 57.6307 12.6551C58.1821 12.9664 58.4105 13.9564 58.4105 14.627V23.5767C58.4105 24.0478 58.3869 24.3911 58.5208 24.4869C58.6389 24.5747 58.9461 24.5587 59.2454 24.5587H73.021C73.1312 24.5587 73.2258 24.6466 73.2258 24.7663V26.1794C73.2258 26.2912 73.1391 26.387 73.021 26.387H59.3163C58.1506 26.387 57.6465 26.0437 57.2369 25.6445C56.9061 25.3252 56.5989 24.7743 56.5989 23.92V14.7867C56.6147 14.3236 56.5517 14.2917 56.4729 14.2598C56.3705 14.2199 55.8979 14.1959 55.4726 14.1959L55.4254 14.1799C55.3387 14.156 55.2836 14.0762 55.2836 13.9803V12.4395C55.2836 12.3437 55.3545 12.2559 55.4411 12.2399H55.4726ZM65.5306 8.73506H66.7672C66.8775 8.73506 66.972 8.82288 66.972 8.94264V12.6151H72.4303C72.5405 12.6151 72.635 12.703 72.635 12.8227V14.0762C72.635 14.1879 72.5484 14.2837 72.4303 14.2837H67.8384C69.8862 19.2815 71.4536 21.1178 72.0522 22.1716C72.0522 22.1716 72.0758 22.2036 72.0995 22.2355C72.1625 22.3233 72.2412 22.4431 72.1231 22.5469L71.1149 23.449C71.0204 23.5209 70.8944 23.5049 70.8235 23.4091C70.5321 22.9939 69.6736 21.8523 68.0668 19.1618C67.4524 17.9163 66.3183 15.633 66.1607 15.2977C66.1607 15.2977 64.9163 17.9642 64.2468 19.2177C63.7112 20.2076 62.0887 22.6586 61.624 23.3931C61.561 23.4969 61.4192 23.5209 61.3247 23.441L60.2141 22.5548L60.1826 22.5229C60.1196 22.451 60.1118 22.3473 60.1669 22.2754C61.4271 20.3274 62.0729 19.4093 62.6715 18.2436C62.7739 18.044 62.8842 17.8365 62.9945 17.6369C63.7033 16.3196 64.4358 14.3875 64.4831 14.2837H59.8912C59.781 14.2837 59.6864 14.1959 59.6864 14.0762V12.8227C59.6864 12.7109 59.7731 12.6151 59.8912 12.6151H65.3416V8.94264C65.3416 8.83086 65.4282 8.73506 65.5464 8.73506H65.5306Z" fill="white"/>
<path d="M99.4301 8.72708H105.715C105.826 8.72708 105.92 8.8149 105.92 8.93465V10.1881C105.92 10.2999 105.834 10.3957 105.715 10.3957H103.4V12.8866H106.015C106.125 12.8866 106.22 12.9744 106.22 13.0942V14.4833C106.22 14.5951 106.133 14.6909 106.015 14.6909H103.4V26.1794C103.4 26.2912 103.313 26.387 103.195 26.387H101.958C101.848 26.387 101.754 26.2992 101.754 26.1794V14.6909H99.1387C99.0285 14.6909 98.9339 14.6031 98.9339 14.4833V13.0942C98.9339 12.9824 99.0206 12.8866 99.1387 12.8866H101.754V10.3957H99.3986C99.312 10.3957 99.2254 10.3238 99.2254 10.236V8.93465C99.2254 8.82288 99.312 8.72708 99.4301 8.72708ZM99.5168 15.7208H100.714C100.824 15.7208 100.919 15.8166 100.919 15.9284L100.698 26.0357C100.698 26.0836 100.698 26.1315 100.698 26.1794C100.698 26.2912 100.604 26.379 100.493 26.379H99.2805C99.1702 26.379 99.0757 26.2832 99.0757 26.1714C99.0993 25.2773 99.1781 21.8603 99.312 15.9284C99.312 15.8166 99.4065 15.7288 99.5168 15.7288V15.7208ZM104.432 15.7208H105.637C105.747 15.7208 105.834 15.8086 105.841 15.9204C105.865 16.8545 105.944 20.2635 106.078 26.1635C106.078 26.2752 105.991 26.379 105.873 26.379H104.652C104.534 26.379 104.447 26.3231 104.439 26.1794L104.235 16.2397C104.235 16.1918 104.227 16.088 104.227 15.9364C104.227 15.8246 104.313 15.7288 104.432 15.7288V15.7208ZM112.851 8.72708H114.096C114.206 8.72708 114.301 8.8149 114.301 8.93465V19.6488H116.396C116.506 19.6488 116.6 19.7366 116.6 19.8563V21.1178C116.6 21.2295 116.514 21.3253 116.396 21.3253H114.301V26.1714C114.301 26.2832 114.214 26.379 114.096 26.379H112.851C112.741 26.379 112.647 26.2912 112.647 26.1714V21.3253H106.826C106.716 21.3253 106.621 21.2375 106.621 21.1178V19.8563C106.621 19.7446 106.708 19.6488 106.826 19.6488H112.647V8.93465C112.647 8.82288 112.733 8.72708 112.851 8.72708ZM108.173 9.05441H109.646C109.724 9.05441 109.795 9.10231 109.835 9.17416L111.473 13.0063C111.528 13.1421 111.434 13.2937 111.284 13.2937H109.811C109.732 13.2937 109.661 13.2458 109.622 13.174L107.984 9.34182C107.929 9.2061 108.023 9.05441 108.173 9.05441ZM108.047 14.4274H109.512C109.591 14.4274 109.661 14.4753 109.693 14.5472C109.772 14.7148 109.929 15.0661 110.158 15.609C110.221 15.7288 110.607 16.599 111.323 18.2117C111.386 18.3474 111.284 18.4991 111.142 18.4991H109.677C109.598 18.4991 109.528 18.4512 109.496 18.3794L107.866 14.7228C107.803 14.5871 107.905 14.4354 108.047 14.4354V14.4274Z" fill="white"/>
<path d="M123.035 8.72708H124.311C124.422 8.72708 124.516 8.8149 124.516 8.93465V11.3058H126.233C126.343 11.3058 126.438 11.3936 126.438 11.5134V12.7668C126.438 12.8786 126.351 12.9744 126.233 12.9744H124.516V16.5671L126.186 15.9603C126.186 15.9603 126.446 15.8805 126.438 16.1918V17.597C126.438 17.6768 126.383 17.7407 126.312 17.7886C126.139 17.8924 125.509 18.1558 125.509 18.1558C125.509 18.1558 124.642 18.4752 124.508 18.5151V23.2334C124.508 23.936 124.422 24.6545 124.288 24.942C124.067 25.5168 123.847 25.8361 123.303 26.1235C122.831 26.371 122.437 26.387 121.862 26.387H120.972C120.861 26.387 120.767 26.2992 120.767 26.1794V24.6306C120.767 24.5188 120.854 24.423 120.972 24.423H121.625C122.13 24.423 122.626 24.4629 122.744 24.3112C122.854 24.2314 122.831 23.433 122.831 23.2574V19.3294H122.689L120.342 20.1438C120.208 20.1996 120.058 20.1038 120.058 19.9521V18.4512C120.058 18.3714 120.105 18.2995 120.176 18.2596C120.342 18.1878 121.216 17.8684 121.216 17.8684C121.216 17.8684 122.137 17.565 122.823 17.2856V12.9584H120.255C120.145 12.9584 120.05 12.8706 120.05 12.7509V11.4974C120.05 11.3856 120.137 11.2898 120.255 11.2898H122.823V8.91869C122.823 8.80691 122.909 8.71111 123.027 8.71111L123.035 8.72708ZM131.416 8.72708H132.778C132.889 8.72708 132.983 8.8149 132.983 8.93465V10.4915H136.59C136.701 10.4915 136.795 10.5793 136.795 10.699V11.9525C136.795 12.0643 136.709 12.1601 136.59 12.1601H132.983V14.3875H135.299C136.244 14.3875 136.598 14.651 136.866 15.1779C136.961 15.3615 137.008 15.5691 137.008 15.8006C137.008 16.3994 136.716 17.0541 136.252 17.9083C136.252 17.9243 135.614 19.0979 133.92 20.998L133.298 21.7245C133.416 21.8603 134.7 23.3851 136.63 24.7983C136.724 24.8701 136.74 25.0138 136.661 25.1016L135.669 26.2034C135.598 26.2752 135.488 26.2912 135.409 26.2353C135.165 26.0677 134.59 25.6525 133.645 24.7743C132.975 24.0957 132.046 23.2015 132.022 23.1696C131.416 23.6566 129.801 25.0857 128.037 26.1555C127.95 26.2034 127.84 26.1874 127.777 26.1076L126.714 24.8302C126.627 24.7264 126.658 24.5747 126.777 24.5188C127.218 24.2793 128.226 23.7284 128.864 23.2255C129.722 22.5468 130.738 21.5888 130.738 21.5888L127.556 17.5012C127.454 17.3654 127.548 17.1658 127.714 17.1658H129.478C129.541 17.1658 129.604 17.1978 129.644 17.2537C129.785 17.4612 130.148 17.9961 130.77 18.7785C130.904 18.9382 131.321 19.6088 132.014 20.2875H132.022C131.904 20.4551 132.755 19.6568 133.692 18.3554C134.125 17.8285 134.952 16.6469 134.968 16.2317C134.968 16.0801 134.661 16.088 134.314 16.088H127.399C127.289 16.088 127.194 16.0002 127.194 15.8805V14.5711C127.194 14.4594 127.281 14.3636 127.399 14.3636H131.227V12.1361H127.619C127.509 12.1361 127.415 12.0483 127.415 11.9285V10.6751C127.415 10.5633 127.501 10.4675 127.619 10.4675H131.227V8.9107C131.227 8.79893 131.313 8.70312 131.431 8.70312L131.416 8.72708Z" fill="white"/>
<path d="M79.4795 8.72708H80.8421C80.9524 8.72708 81.0469 8.8149 81.0469 8.93465V13.1181H82.6379C82.7482 13.1181 82.8427 13.2059 82.8427 13.3257V14.7228C82.8427 14.8346 82.7561 14.9304 82.6379 14.9304H81.0469V24.7104H82.8506C82.9608 24.7104 83.0554 24.7983 83.0554 24.918V26.1794C83.0554 26.2912 82.9687 26.387 82.8506 26.387H77.3372C77.2269 26.387 77.1324 26.2992 77.1324 26.1794V24.918C77.1324 24.8062 77.219 24.7104 77.3372 24.7104H79.2747V14.9304H77.5498C77.4396 14.9304 77.3451 14.8426 77.3451 14.7228V13.3257C77.3451 13.2139 77.4317 13.1181 77.5498 13.1181H79.2747V8.93465C79.2747 8.82288 79.3614 8.72708 79.4795 8.72708ZM83.8115 24.431H95.3975C95.5078 24.431 95.6023 24.5188 95.6023 24.6386V26.1794C95.6023 26.2912 95.5156 26.387 95.3975 26.387H83.8115C83.7012 26.387 83.6067 26.2992 83.6067 26.1794V24.6386C83.6067 24.5268 83.6933 24.431 83.8115 24.431Z" fill="white"/>
<path d="M91.4121 22.3872H87.2613C85.4497 22.3872 83.9611 20.8783 83.9611 19.042V12.3597C83.9611 10.5234 85.4497 9.01449 87.2613 9.01449H91.4121C93.2236 9.01449 94.7122 10.5234 94.7122 12.3597V19.05C94.7122 20.8862 93.2236 22.3952 91.4121 22.3952V22.3872ZM92.9086 19.9042V11.6491C92.9086 11.226 92.5699 10.8827 92.1525 10.8827H86.6154C86.198 10.8827 85.8593 11.226 85.8593 11.6491V19.9042C85.8593 20.3274 86.198 20.6707 86.6154 20.6707H92.1525C92.5699 20.6707 92.9086 20.3274 92.9086 19.9042ZM91.6641 16.128V15.1539C91.6641 14.9623 91.5145 14.8107 91.3254 14.8107H85.8593V16.4713H91.3254C91.5145 16.4713 91.6641 16.3196 91.6641 16.128Z" fill="white"/>
</g>
<defs>
<clipPath id="clip0_1577_1820">
<rect width="137" height="47" fill="white"/>
</clipPath>
</defs>
</svg>
