<svg width="32" height="32" viewBox="0 0 32 32" fill="none" xmlns="http://www.w3.org/2000/svg">
<path d="M28.0494 8.73875C27.4513 8.59344 26.8534 8.91219 26.6206 9.46031C24.3787 5.72156 20.3169 3.32031 15.7513 3.32031C8.75469 3.32031 3.0625 9.01219 3.0625 16.0087C3.0625 23.0053 8.75469 28.6975 15.7509 28.6975C21.3806 28.6975 26.3966 24.9219 27.9484 19.5159C28.1375 18.8572 27.7569 18.17 27.0981 17.9809C26.4403 17.7916 25.7522 18.1725 25.5631 18.8312C24.3147 23.1794 20.28 26.2162 15.7509 26.2162C10.1228 26.2162 5.54406 21.6375 5.54406 16.0091C5.54406 10.3809 10.1228 5.80219 15.7509 5.80219C20.5012 5.80219 24.5853 9.025 25.6819 13.6397C25.84 14.3062 26.5088 14.7184 27.1759 14.56C27.6503 14.4472 27.9909 14.0747 28.0938 13.63C28.1409 13.5406 28.19 13.4519 28.2147 13.3491L28.9647 10.2359C29.1256 9.56937 28.7156 8.89937 28.0494 8.73875Z" fill="#7680DD"/>
<path d="M15.8036 21.9662C13.1946 21.9662 10.9521 20.1966 10.3499 17.6625C10.1917 16.9959 9.52331 16.5841 8.85581 16.7422C8.18893 16.9006 7.77706 17.5694 7.9355 18.2362C8.80456 21.8938 12.0399 24.4481 15.8036 24.4481C20.263 24.4481 23.8908 20.82 23.8908 16.3609C23.8908 11.9019 20.2627 8.27344 15.8036 8.27344C13.5517 8.27344 11.4542 9.22219 9.95956 10.7803C9.71737 10.4437 9.3155 10.2331 8.87737 10.2612C8.19331 10.3037 7.67331 10.8928 7.71581 11.5769L7.88581 14.3094C7.89737 14.4941 7.95206 14.6644 8.03425 14.8172C8.15018 15.2106 8.45612 15.5394 8.87987 15.6609C9.53768 15.85 10.2258 15.4691 10.4149 14.8106C11.1005 12.4228 13.3164 10.7553 15.8036 10.7553C18.8946 10.7553 21.4092 13.27 21.4092 16.3609C21.4089 19.4516 18.8942 21.9662 15.8036 21.9662Z" fill="#7680DD"/>
</svg>
