<svg width="23" height="22" viewBox="0 0 23 22" fill="none" xmlns="http://www.w3.org/2000/svg">
<path fill-rule="evenodd" clip-rule="evenodd" d="M3.56348 4.41604C3.56348 3.67996 4.16019 3.08325 4.89626 3.08325H18.2241C18.9602 3.08325 19.5569 3.67996 19.5569 4.41604V17.7439C19.5569 18.48 18.9602 19.0767 18.2241 19.0767H4.89626C4.16019 19.0767 3.56348 18.48 3.56348 17.7439V4.41604ZM18.2241 4.41604H4.89626V17.7439H18.2241V4.41604Z" fill="#141414" fill-opacity="0.7"/>
<path fill-rule="evenodd" clip-rule="evenodd" d="M15.559 1.75049C15.927 1.75049 16.2254 2.04884 16.2254 2.41688V5.08245C16.2254 5.45049 15.927 5.74885 15.559 5.74885C15.1909 5.74885 14.8926 5.45049 14.8926 5.08245V2.41688C14.8926 2.04884 15.1909 1.75049 15.559 1.75049Z" fill="#141414" fill-opacity="0.7"/>
<path fill-rule="evenodd" clip-rule="evenodd" d="M7.5619 1.75049C7.92994 1.75049 8.22829 2.04884 8.22829 2.41688V5.08245C8.22829 5.45049 7.92994 5.74885 7.5619 5.74885C7.19386 5.74885 6.89551 5.45049 6.89551 5.08245V2.41688C6.89551 2.04884 7.19386 1.75049 7.5619 1.75049Z" fill="#141414" fill-opacity="0.7"/>
<path fill-rule="evenodd" clip-rule="evenodd" d="M3.56348 7.74794C3.56348 7.3799 3.86183 7.08154 4.22987 7.08154H18.8905C19.2586 7.08154 19.5569 7.3799 19.5569 7.74794C19.5569 8.11597 19.2586 8.41433 18.8905 8.41433H4.22987C3.86183 8.41433 3.56348 8.11597 3.56348 7.74794Z" fill="#141414" fill-opacity="0.7"/>
</svg>
