<svg width="22" height="22" viewBox="0 0 22 22" fill="none" xmlns="http://www.w3.org/2000/svg">
<path fill-rule="evenodd" clip-rule="evenodd" d="M4.32227 19.7432C4.32227 19.3751 4.62062 19.0768 4.98866 19.0768H16.9837C17.3518 19.0768 17.6501 19.3751 17.6501 19.7432C17.6501 20.1112 17.3518 20.4096 16.9837 20.4096H4.98866C4.62062 20.4096 4.32227 20.1112 4.32227 19.7432Z" fill="#141414" fill-opacity="0.7"/>
<path fill-rule="evenodd" clip-rule="evenodd" d="M10.9853 7.08144C9.88117 7.08144 8.98611 7.97651 8.98611 9.08062C8.98611 10.1847 9.88117 11.0798 10.9853 11.0798C12.0894 11.0798 12.9845 10.1847 12.9845 9.08062C12.9845 7.97651 12.0894 7.08144 10.9853 7.08144ZM7.65332 9.08062C7.65332 7.24043 9.14509 5.74866 10.9853 5.74866C12.8255 5.74866 14.3173 7.24043 14.3173 9.08062C14.3173 10.9208 12.8255 12.4126 10.9853 12.4126C9.14509 12.4126 7.65332 10.9208 7.65332 9.08062Z" fill="#141414" fill-opacity="0.7"/>
<path fill-rule="evenodd" clip-rule="evenodd" d="M10.9856 3.08327C9.39495 3.08327 7.86945 3.71516 6.7447 4.83991C5.61994 5.96467 4.98806 7.49017 4.98806 9.08081C4.98806 11.8396 6.52866 14.3517 8.1565 16.2238C8.96227 17.1504 9.76976 17.8975 10.3759 18.4128C10.6157 18.6165 10.8232 18.7834 10.9856 18.9101C11.148 18.7834 11.3555 18.6165 11.5952 18.4128C12.2014 17.8975 13.0089 17.1504 13.8147 16.2238C15.4425 14.3517 16.9831 11.8396 16.9831 9.08081C16.9831 7.49017 16.3513 5.96467 15.2265 4.83991C14.1017 3.71516 12.5762 3.08327 10.9856 3.08327ZM10.9856 19.7431C10.6034 20.289 10.6033 20.2889 10.603 20.2888L10.6025 20.2884L10.6009 20.2873L10.596 20.2838L10.5791 20.2717C10.5647 20.2615 10.5441 20.2467 10.5178 20.2275C10.4653 20.1891 10.3898 20.1332 10.2946 20.0604C10.1043 19.9149 9.83489 19.7021 9.51277 19.4283C8.86947 18.8815 8.01097 18.0875 7.15077 17.0983C5.44664 15.1386 3.65527 12.3195 3.65527 9.08081C3.65527 7.13669 4.42757 5.27219 5.80228 3.89749C7.17698 2.52279 9.04147 1.75049 10.9856 1.75049C12.9297 1.75049 14.7942 2.52279 16.1689 3.89749C17.5436 5.27219 18.3159 7.13669 18.3159 9.08081C18.3159 12.3195 16.5246 15.1386 14.8204 17.0983C13.9602 18.0875 13.1017 18.8815 12.4584 19.4283C12.1363 19.7021 11.8669 19.9149 11.6766 20.0604C11.5814 20.1332 11.5059 20.1891 11.4533 20.2275C11.4271 20.2467 11.4065 20.2615 11.3921 20.2717L11.3752 20.2838L11.3703 20.2873L11.3687 20.2884L11.3681 20.2888C11.3679 20.2889 11.3677 20.289 10.9856 19.7431ZM10.9856 19.7431L11.3677 20.289C11.1383 20.4496 10.8329 20.4496 10.6034 20.289L10.9856 19.7431Z" fill="#141414" fill-opacity="0.7"/>
</svg>
