<svg width="257" height="256" viewBox="0 0 257 256" fill="none" xmlns="http://www.w3.org/2000/svg">
<path d="M124.124 96.001V36.001C124.124 34.9401 124.545 33.9227 125.296 33.1726C126.046 32.4224 127.063 32.001 128.124 32.001C129.185 32.001 130.202 32.4224 130.952 33.1726C131.703 33.9227 132.124 34.9401 132.124 36.001V96.001C132.124 97.0618 131.703 98.0793 130.952 98.8294C130.202 99.5796 129.185 100.001 128.124 100.001C127.063 100.001 126.046 99.5796 125.296 98.8294C124.545 98.0793 124.124 97.0618 124.124 96.001Z" fill="#7680DD"/>
<path d="M128.924 64.0011C128.336 64.1212 127.729 64.1076 127.147 63.9611C126.565 63.8146 126.023 63.5391 125.562 63.155C125.101 62.7708 124.733 62.2879 124.484 61.742C124.235 61.196 124.112 60.601 124.124 60.0011V36.0011C124.105 35.0653 124.415 34.1526 125 33.4217C125.584 32.6908 126.407 32.1881 127.324 32.0011C150.804 27.3211 145.604 40.6411 139.844 39.4811C137.287 39.0728 134.681 39.0728 132.124 39.4811V55.4811C147.204 54.0011 150.604 61.9611 160.124 60.8011V44.8011C142.764 46.3211 147.164 34.0011 153.124 36.0411C156.387 37.0988 159.901 37.0988 163.164 36.0411C163.76 35.8937 164.381 35.8854 164.98 36.0166C165.58 36.1479 166.141 36.4153 166.62 36.7981C167.1 37.1809 167.485 37.6689 167.746 38.2243C168.006 38.7797 168.136 39.3877 168.124 40.0011V64.0011C168.151 64.9149 167.863 65.8101 167.31 66.5379C166.757 67.2657 165.971 67.7821 165.084 68.0011C147.644 72.2411 147.124 60.2811 128.924 64.0011ZM184.124 156.001C183.063 156.001 182.046 155.58 181.296 154.83C180.545 154.079 180.124 153.062 180.124 152.001C180.124 149.879 179.281 147.845 177.781 146.344C176.281 144.844 174.246 144.001 172.124 144.001C170.002 144.001 167.967 144.844 166.467 146.344C164.967 147.845 164.124 149.879 164.124 152.001C164.124 153.062 163.703 154.079 162.952 154.83C162.202 155.58 161.185 156.001 160.124 156.001C151.724 156.001 156.884 136.001 172.124 136.001C187.364 136.001 192.524 156.001 184.124 156.001ZM195.204 129.881C189.564 129.881 191.924 120.281 177.404 105.161C176.978 104.718 176.66 104.183 176.474 103.598C176.289 103.012 176.24 102.391 176.333 101.784C176.426 101.177 176.657 100.599 177.01 100.095C177.362 99.592 177.825 99.1765 178.364 98.8811C188.804 93.2011 204.324 109.801 202.364 122.001C202.215 123.923 201.431 125.741 200.134 127.168C198.838 128.595 197.103 129.549 195.204 129.881ZM150.124 210.001C140.124 210.001 136.844 196.001 144.124 196.001C145.185 196.001 146.202 196.423 146.952 197.173C147.703 197.923 148.124 198.94 148.124 200.001C148.124 200.532 148.335 201.04 148.71 201.415C149.085 201.79 149.594 202.001 150.124 202.001C150.654 202.001 151.163 201.79 151.538 201.415C151.913 201.04 152.124 200.532 152.124 200.001C152.124 198.94 152.545 197.923 153.296 197.173C154.046 196.423 155.063 196.001 156.124 196.001C163.324 196.001 160.364 210.001 150.124 210.001Z" fill="#7680DD"/>
<path d="M220.124 140.001C220.124 138.94 219.703 137.923 218.952 137.173C218.202 136.422 217.185 136.001 216.124 136.001C215.063 136.001 214.046 135.58 213.296 134.829C212.545 134.079 212.124 133.062 212.124 132.001C212.124 130.94 212.545 129.923 213.296 129.173C214.046 128.422 215.063 128.001 216.124 128.001C217.185 128.001 218.202 127.58 218.952 126.829C219.703 126.079 220.124 125.062 220.124 124.001C220.124 122.94 220.545 121.923 221.296 121.173C222.046 120.422 223.063 120.001 224.124 120.001C225.185 120.001 226.202 120.422 226.952 121.173C227.703 121.923 228.124 122.94 228.124 124.001C228.124 125.062 228.545 126.079 229.296 126.829C230.046 127.58 231.063 128.001 232.124 128.001C233.185 128.001 234.202 128.422 234.952 129.173C235.703 129.923 236.124 130.94 236.124 132.001C236.124 133.062 235.703 134.079 234.952 134.829C234.202 135.58 233.185 136.001 232.124 136.001C231.063 136.001 230.046 136.422 229.296 137.173C228.545 137.923 228.124 138.94 228.124 140.001C228.124 141.062 227.703 142.079 226.952 142.829C226.202 143.58 225.185 144.001 224.124 144.001C223.063 144.001 222.046 143.58 221.296 142.829C220.545 142.079 220.124 141.062 220.124 140.001Z" fill="#7680DD"/>
<path d="M36.124 104.001C36.124 105.062 35.7026 106.079 34.9524 106.829C34.2023 107.58 33.1849 108.001 32.124 108.001C31.0632 108.001 30.0457 107.58 29.2956 106.829C28.5455 106.079 28.124 105.062 28.124 104.001C28.124 102.94 28.5455 101.923 29.2956 101.173C30.0457 100.422 31.0632 100.001 32.124 100.001C33.1849 100.001 34.2023 100.422 34.9524 101.173C35.7026 101.923 36.124 102.94 36.124 104.001Z" fill="#7680DD"/>
<path d="M32.124 156.001C32.124 157.062 31.7026 158.079 30.9524 158.829C30.2023 159.58 29.1849 160.001 28.124 160.001C27.0632 160.001 26.0457 159.58 25.2956 158.829C24.5455 158.079 24.124 157.062 24.124 156.001C24.124 154.94 24.5455 153.923 25.2956 153.173C26.0457 152.422 27.0632 152.001 28.124 152.001C29.1849 152.001 30.2023 152.422 30.9524 153.173C31.7026 153.923 32.124 154.94 32.124 156.001ZM168.124 228.001C168.124 229.062 167.703 230.079 166.952 230.829C166.202 231.58 165.185 232.001 164.124 232.001C163.063 232.001 162.046 231.58 161.296 230.829C160.545 230.079 160.124 229.062 160.124 228.001C160.124 226.94 160.545 225.923 161.296 225.173C162.046 224.422 163.063 224.001 164.124 224.001C165.185 224.001 166.202 224.422 166.952 225.173C167.703 225.923 168.124 226.94 168.124 228.001Z" fill="#7680DD"/>
<path d="M184.124 40.001C184.124 41.0618 183.703 42.0793 182.952 42.8294C182.202 43.5795 181.185 44.001 180.124 44.001C179.063 44.001 178.046 43.5795 177.296 42.8294C176.545 42.0793 176.124 41.0618 176.124 40.001C176.124 38.9401 176.545 37.9227 177.296 37.1726C178.046 36.4224 179.063 36.001 180.124 36.001C181.185 36.001 182.202 36.4224 182.952 37.1726C183.703 37.9227 184.124 38.9401 184.124 40.001Z" fill="#7680DD"/>
<path d="M228.124 92.001C228.124 93.0618 227.703 94.0793 226.952 94.8294C226.202 95.5796 225.185 96.001 224.124 96.001C223.063 96.001 222.046 95.5796 221.296 94.8294C220.545 94.0793 220.124 93.0618 220.124 92.001C220.124 90.9401 220.545 89.9227 221.296 89.1725C222.046 88.4224 223.063 88.001 224.124 88.001C225.185 88.001 226.202 88.4224 226.952 89.1725C227.703 89.9227 228.124 90.9401 228.124 92.001Z" fill="#7680DD"/>
<path d="M220.124 184.001C220.124 185.062 219.703 186.079 218.952 186.829C218.202 187.58 217.185 188.001 216.124 188.001C215.063 188.001 214.046 187.58 213.296 186.829C212.545 186.079 212.124 185.062 212.124 184.001C212.124 182.94 212.545 181.923 213.296 181.173C214.046 180.422 215.063 180.001 216.124 180.001C217.185 180.001 218.202 180.422 218.952 181.173C219.703 181.923 220.124 182.94 220.124 184.001Z" fill="#7680DD"/>
<path d="M88.124 64.001C88.124 65.0618 87.7026 66.0793 86.9525 66.8294C86.2023 67.5796 85.1849 68.001 84.124 68.001C83.0632 68.001 82.0457 67.5796 81.2956 66.8294C80.5454 66.0793 80.124 65.0618 80.124 64.001C80.124 62.9401 80.5454 61.9227 81.2956 61.1726C82.0457 60.4224 83.0632 60.001 84.124 60.001C85.1849 60.001 86.2023 60.4224 86.9525 61.1726C87.7026 61.9227 88.124 62.9401 88.124 64.001Z" fill="#7680DD"/>
<path d="M64.124 208.001C64.124 209.062 63.7026 210.079 62.9524 210.829C62.2023 211.58 61.1849 212.001 60.124 212.001C59.0632 212.001 58.0457 211.58 57.2956 210.829C56.5455 210.079 56.124 209.062 56.124 208.001C56.124 206.94 56.5455 205.923 57.2956 205.173C58.0457 204.422 59.0632 204.001 60.124 204.001C61.1849 204.001 62.2023 204.422 62.9524 205.173C63.7026 205.923 64.124 206.94 64.124 208.001Z" fill="#7680DD"/>
<path d="M200.124 60.001V56.001C200.124 54.9401 200.545 53.9227 201.296 53.1726C202.046 52.4224 203.063 52.001 204.124 52.001C205.185 52.001 206.202 52.4224 206.952 53.1726C207.703 53.9227 208.124 54.9401 208.124 56.001V60.001C208.124 61.0618 207.703 62.0793 206.952 62.8294C206.202 63.5795 205.185 64.001 204.124 64.001C203.063 64.001 202.046 63.5795 201.296 62.8294C200.545 62.0793 200.124 61.0618 200.124 60.001ZM216.124 72.001H212.124C211.063 72.001 210.046 71.5796 209.296 70.8294C208.545 70.0793 208.124 69.0618 208.124 68.001C208.124 66.9401 208.545 65.9227 209.296 65.1725C210.046 64.4224 211.063 64.001 212.124 64.001H216.124C217.185 64.001 218.202 64.4224 218.952 65.1725C219.703 65.9227 220.124 66.9401 220.124 68.001C220.124 69.0618 219.703 70.0793 218.952 70.8294C218.202 71.5796 217.185 72.001 216.124 72.001ZM196.124 72.001H192.124C191.063 72.001 190.046 71.5796 189.296 70.8294C188.545 70.0793 188.124 69.0618 188.124 68.001C188.124 66.9401 188.545 65.9227 189.296 65.1725C190.046 64.4224 191.063 64.001 192.124 64.001H196.124C197.185 64.001 198.202 64.4224 198.952 65.1725C199.703 65.9227 200.124 66.9401 200.124 68.001C200.124 69.0618 199.703 70.0793 198.952 70.8294C198.202 71.5796 197.185 72.001 196.124 72.001ZM200.124 80.001V76.001C200.124 74.9401 200.545 73.9227 201.296 73.1725C202.046 72.4224 203.063 72.001 204.124 72.001C205.185 72.001 206.202 72.4224 206.952 73.1725C207.703 73.9227 208.124 74.9401 208.124 76.001V80.001C208.124 81.0618 207.703 82.0793 206.952 82.8294C206.202 83.5796 205.185 84.001 204.124 84.001C203.063 84.001 202.046 83.5796 201.296 82.8294C200.545 82.0793 200.124 81.0618 200.124 80.001Z" fill="#7680DD"/>
<path d="M96.124 28.001V24.001C96.124 22.9401 96.5454 21.9227 97.2956 21.1726C98.0457 20.4224 99.0632 20.001 100.124 20.001C101.185 20.001 102.202 20.4224 102.952 21.1726C103.703 21.9227 104.124 22.9401 104.124 24.001V28.001C104.124 29.0618 103.703 30.0793 102.952 30.8294C102.202 31.5795 101.185 32.001 100.124 32.001C99.0632 32.001 98.0457 31.5795 97.2956 30.8294C96.5454 30.0793 96.124 29.0618 96.124 28.001ZM112.124 40.001H108.124C107.063 40.001 106.046 39.5795 105.296 38.8294C104.545 38.0793 104.124 37.0618 104.124 36.001C104.124 34.9401 104.545 33.9227 105.296 33.1726C106.046 32.4224 107.063 32.001 108.124 32.001H112.124C113.185 32.001 114.202 32.4224 114.952 33.1726C115.703 33.9227 116.124 34.9401 116.124 36.001C116.124 37.0618 115.703 38.0793 114.952 38.8294C114.202 39.5795 113.185 40.001 112.124 40.001ZM92.124 40.001H88.124C87.0632 40.001 86.0457 39.5795 85.2956 38.8294C84.5454 38.0793 84.124 37.0618 84.124 36.001C84.124 34.9401 84.5454 33.9227 85.2956 33.1726C86.0457 32.4224 87.0632 32.001 88.124 32.001H92.124C93.1849 32.001 94.2023 32.4224 94.9525 33.1726C95.7026 33.9227 96.124 34.9401 96.124 36.001C96.124 37.0618 95.7026 38.0793 94.9525 38.8294C94.2023 39.5795 93.1849 40.001 92.124 40.001ZM96.124 48.001V44.001C96.124 42.9401 96.5454 41.9227 97.2956 41.1726C98.0457 40.4224 99.0632 40.001 100.124 40.001C101.185 40.001 102.202 40.4224 102.952 41.1726C103.703 41.9227 104.124 42.9401 104.124 44.001V48.001C104.124 49.0618 103.703 50.0793 102.952 50.8294C102.202 51.5795 101.185 52.001 100.124 52.001C99.0632 52.001 98.0457 51.5795 97.2956 50.8294C96.5454 50.0793 96.124 49.0618 96.124 48.001Z" fill="#7680DD"/>
<path d="M184.124 190.441C191.119 180.234 195.196 168.312 195.916 155.959C196.636 143.606 193.972 131.29 188.211 120.339C182.45 109.389 173.809 100.217 163.221 93.8141C152.633 87.4107 140.498 84.0178 128.124 84.001C127.063 84.001 126.046 83.5796 125.296 82.8294C124.545 82.0793 124.124 81.0618 124.124 80.001C124.124 78.9401 124.545 77.9227 125.296 77.1725C126.046 76.4224 127.063 76.001 128.124 76.001C141.961 76.0129 155.532 79.8022 167.373 86.9599C179.215 94.1177 188.878 104.372 195.319 116.618C201.761 128.864 204.738 142.636 203.928 156.449C203.118 170.262 198.553 183.592 190.724 195.001C190.119 195.876 189.192 196.475 188.145 196.667C187.099 196.858 186.019 196.626 185.144 196.021C184.269 195.416 183.67 194.489 183.478 193.442C183.287 192.396 183.519 191.316 184.124 190.441ZM100.844 222.921C91.764 227.361 74.124 216.441 75.364 206.681C66.6483 198.273 60.0681 187.903 56.1717 176.437C52.2753 164.97 51.1755 152.739 52.964 140.761C53.0515 140.21 53.2532 139.683 53.5563 139.215C53.8594 138.746 54.2572 138.347 54.724 138.041C57.0633 136.489 58.7846 134.167 59.5885 131.477C60.3924 128.788 60.2281 125.902 59.124 123.321C58.8922 122.805 58.7724 122.246 58.7724 121.681C58.7724 121.116 58.8922 120.557 59.124 120.041C64.3129 108.838 72.153 99.0679 81.966 91.5757C91.7791 84.0834 103.27 79.0947 115.444 77.041C116.505 76.8606 117.594 77.1091 118.472 77.7317C119.349 78.3543 119.944 79.3001 120.124 80.361C120.304 81.4218 120.056 82.5109 119.433 83.3886C118.811 84.2662 117.865 84.8606 116.804 85.041C106.196 86.8354 96.1651 91.1213 87.5356 97.5464C78.9061 103.972 71.9244 112.353 67.164 122.001C68.3949 125.85 68.4307 129.982 67.2669 133.852C66.103 137.722 63.794 141.149 60.644 143.681C58.6397 159.689 62.4125 175.886 71.284 189.361C80.244 203.041 86.444 202.841 83.284 207.881C84.4318 210.495 86.4942 212.6 89.084 213.801C91.4498 215.518 94.3896 216.249 97.284 215.841C97.8127 215.187 98.5452 214.73 99.3646 214.541C100.184 214.352 101.043 214.444 101.804 214.801C113.927 219.867 127.257 221.312 140.184 218.963C153.11 216.613 165.08 210.569 174.644 201.561C175.428 200.966 176.403 200.681 177.384 200.761C178.364 200.84 179.282 201.278 179.96 201.991C180.638 202.703 181.029 203.641 181.06 204.624C181.09 205.608 180.757 206.568 180.124 207.321C169.713 217.113 156.752 223.77 142.729 226.53C128.706 229.289 114.189 228.038 100.844 222.921Z" fill="#7680DD"/>
<path d="M132.124 100.001H124.124C123.063 100.001 122.046 99.5796 121.296 98.8294C120.545 98.0793 120.124 97.0618 120.124 96.001C120.124 94.9401 120.545 93.9227 121.296 93.1725C122.046 92.4224 123.063 92.001 124.124 92.001H132.124C133.185 92.001 134.202 92.4224 134.952 93.1725C135.703 93.9227 136.124 94.9401 136.124 96.001C136.124 97.0618 135.703 98.0793 134.952 98.8294C134.202 99.5796 133.185 100.001 132.124 100.001Z" fill="#7680DD"/>
<path d="M120.124 148.001C119.063 148.001 118.046 147.58 117.296 146.829C116.545 146.079 116.124 145.062 116.124 144.001C116.124 142.94 116.545 141.923 117.296 141.173C118.046 140.422 119.063 140.001 120.124 140.001C121.706 140.001 123.253 139.532 124.569 138.653C125.884 137.774 126.91 136.524 127.515 135.062C128.121 133.601 128.279 131.992 127.97 130.44C127.662 128.888 126.9 127.463 125.781 126.344C124.662 125.225 123.237 124.463 121.685 124.155C120.133 123.846 118.524 124.004 117.063 124.61C115.601 125.215 114.351 126.241 113.472 127.556C112.593 128.872 112.124 130.419 112.124 132.001C112.124 133.062 111.703 134.079 110.952 134.829C110.202 135.58 109.185 136.001 108.124 136.001C99.724 136.001 104.884 116.001 120.124 116.001C124.367 116.001 128.437 117.687 131.438 120.687C134.438 123.688 136.124 127.758 136.124 132.001C136.124 136.244 134.438 140.314 131.438 143.315C128.437 146.315 124.367 148.001 120.124 148.001ZM80.124 172.001C77.7507 172.001 75.4306 171.297 73.4572 169.979C71.4838 168.66 69.9457 166.786 69.0375 164.593C68.1292 162.4 67.8916 159.988 68.3546 157.66C68.8176 155.332 69.9605 153.194 71.6387 151.516C73.317 149.837 75.4552 148.695 77.7829 148.232C80.1107 147.769 82.5235 148.006 84.7162 148.914C86.9089 149.823 88.7831 151.361 90.1017 153.334C91.4202 155.308 92.124 157.628 92.124 160.001C92.124 163.184 90.8597 166.236 88.6093 168.486C86.3589 170.737 83.3066 172.001 80.124 172.001ZM80.124 156.001C79.0632 156.001 78.0457 156.422 77.2956 157.173C76.5455 157.923 76.124 158.94 76.124 160.001C76.124 161.062 76.5455 162.079 77.2956 162.829C78.0457 163.58 79.0632 164.001 80.124 164.001C81.1849 164.001 82.2023 163.58 82.9525 162.829C83.7026 162.079 84.124 161.062 84.124 160.001C84.124 158.94 83.7026 157.923 82.9525 157.173C82.2023 156.422 81.1849 156.001 80.124 156.001ZM102.604 202.241C99.793 202.226 97.0488 201.382 94.7153 199.815C92.3819 198.247 90.563 196.026 89.4867 193.429C88.4104 190.832 88.1244 187.975 88.6647 185.216C89.205 182.458 90.5476 179.92 92.524 177.921C102.324 168.161 118.404 177.921 112.524 183.601C112.152 183.976 111.71 184.273 111.222 184.477C110.735 184.68 110.212 184.784 109.684 184.784C109.156 184.784 108.633 184.68 108.146 184.477C107.658 184.273 107.216 183.976 106.844 183.601C105.973 182.725 104.861 182.127 103.65 181.883C102.438 181.64 101.182 181.761 100.039 182.233C98.8972 182.704 97.9206 183.504 97.2334 184.531C96.5462 185.558 96.1794 186.765 96.1794 188.001C96.1794 189.237 96.5462 190.444 97.2334 191.471C97.9206 192.498 98.8972 193.298 100.039 193.769C101.182 194.241 102.438 194.362 103.65 194.119C104.861 193.875 105.973 193.277 106.844 192.401C107.597 191.648 108.619 191.225 109.684 191.225C110.749 191.225 111.771 191.648 112.524 192.401C113.277 193.154 113.7 194.176 113.7 195.241C113.7 196.306 113.277 197.328 112.524 198.081C109.884 200.704 106.326 202.196 102.604 202.241Z" fill="#7680DD"/>
</svg>
