<svg width="504" height="297" viewBox="0 0 504 297" fill="none" xmlns="http://www.w3.org/2000/svg">
<path d="M30.8055 238.196C33.9648 238.196 37.1945 238.806 39.8888 240.025C42.5825 241.244 44.909 242.93 46.8685 245.084C48.8276 247.237 50.3642 249.811 51.4789 252.805C52.5928 255.798 53.1503 259.056 53.1503 262.577V272.086C53.1503 275.635 53.2357 279.382 53.2357 282.331C53.2357 289.703 52.5419 290.99 50.5828 293.144C48.6233 295.297 45.2772 296.584 41.5632 296.584C37.8492 296.584 34.1352 296.584 31.1088 296.467H5.32105C4.63511 296.467 3.99853 296.332 3.41076 296.06C2.82299 295.79 2.31446 295.417 1.88615 294.943C1.45741 294.47 1.12054 293.907 0.876094 293.257C0.631084 292.607 0.508789 291.902 0.508789 291.144V243.519C0.508789 242.788 0.580315 242.128 0.580315 241.145C0.580315 240.457 0.682133 239.667 1.11087 239.179C1.53904 238.692 2.57644 238.196 3.23307 238.196H9.6879M43.5991 262.577C43.5991 260.519 43.2989 258.636 42.6992 256.929C42.0986 255.222 41.2482 253.766 40.1461 252.561C39.0441 251.356 37.7272 250.421 36.1969 249.757C34.6662 249.094 32.97 248.761 31.1091 248.761H10.0598V285.901H31.1089C32.9699 285.901 35.0977 285.771 36.7882 285.771C38.9104 285.771 41.5633 285.771 42.6244 285.28C43.9667 284.658 43.6855 281.839 43.6855 279.382C43.6855 277.6 43.599 274.172 43.599 272.085L43.5991 262.577Z" fill="#42424A"/>
<path d="M113.808 283.182C113.808 284.542 113.724 287.127 113.724 288.764C113.724 290.409 113.977 292.874 112.904 294.221C111.83 295.569 111.475 295.787 109.621 296.404C107.98 296.949 102.722 296.708 100.248 296.708H82.4825C81.1191 296.708 77.8137 296.924 76.249 296.404C75.1548 296.04 74.0607 295.494 72.9666 294.767C71.585 293.848 70.7783 292.038 70.7783 289.31V278.396C70.7783 276.759 70.7989 275.924 71.8725 274.576C72.9455 273.229 74.5191 272.394 76.2492 272.394C77.8905 272.394 80.0076 272.347 82.4827 272.347H92.8118L95.3971 272.394V280.579L92.731 280.625H82.4827C81.144 280.625 78.9847 280.633 78.9847 280.633V284.944C78.9847 286.229 78.9847 287.127 79.5472 287.898C80.2006 288.794 81.3968 288.975 82.5585 288.975H100.248C101.586 288.975 103.418 289.025 104.15 288.218C104.883 287.413 104.698 284.316 104.698 283.106V274.03C104.698 272.394 105.245 268.574 103.603 266.937C101.962 265.299 99.7738 264.754 98.1325 264.754L84.9771 264.652L74.608 264.754V255.75L84.654 255.866H100.248C101.612 255.866 103.082 256.106 104.661 256.584C106.239 257.062 107.704 257.837 109.055 258.907C110.405 259.978 111.536 261.376 112.445 263.101C113.354 264.826 113.809 266.923 113.809 269.392L113.808 283.182Z" fill="#42424A"/>
<path d="M218.418 269.665V275.122C218.418 276.768 218.485 278.942 217.938 280.033C217.185 281.536 215.739 281.943 214.108 281.943C211.707 281.943 209.01 281.827 206.693 281.827H193.345V274.132H206.693C207.946 274.132 209.414 274.348 210.224 273.485C210.736 272.939 210.736 273.061 210.736 272.394V264.7C210.223 264.7 207.781 264.652 206.693 264.652L191.786 264.754C188.713 264.754 187.862 266.665 187.177 267.483C186.491 268.302 186.152 270.093 186.152 271.302L186.126 283.182C186.126 284.492 185.896 286.943 186.664 287.673C187.432 288.404 188.999 288.43 190.133 288.43H216.704V296.708H190.063C188.786 296.708 186.672 296.677 185.128 296.677C183.592 296.677 181.271 296.383 180.007 295.312C178.741 294.242 178.809 294.31 177.958 292.584C177.107 290.859 177.368 285.651 177.368 283.182V269.392C177.368 268.031 177.592 266.564 178.042 264.99C178.491 263.417 179.217 261.955 180.223 260.608C181.227 259.261 182.539 258.133 184.159 257.226C185.778 256.319 187.746 255.866 190.063 255.866H206.694C207.97 255.866 210.283 255.545 211.761 256.023C213.238 256.502 214.081 256.59 215.346 257.66C216.61 258.731 217.055 259.209 217.906 260.934C218.757 262.66 218.418 267.196 218.418 269.665Z" fill="#42424A"/>
<path d="M281.389 296.708H271.54V274.039C271.54 272.754 271.319 271.601 270.878 270.582C270.435 269.562 269.836 268.687 269.078 267.956C268.321 267.225 267.431 266.665 266.408 266.275C265.385 265.884 264.28 265.689 263.094 265.689H245.859V296.708H236.01V260.74C236.01 260.06 236.136 259.424 236.389 258.831C236.641 258.24 236.995 257.723 237.45 257.283C237.904 256.842 238.435 256.495 239.041 256.243C239.647 255.992 240.291 255.866 240.973 255.866H263.17C264.407 255.866 265.713 256.004 267.09 256.281C268.466 256.558 269.83 257.005 271.181 257.622C272.532 258.24 273.819 259.02 275.045 259.965C276.269 260.909 277.355 262.056 278.302 263.403C279.249 264.751 280 266.306 280.556 268.069C281.111 269.832 281.389 271.823 281.389 274.039L281.389 296.708Z" fill="#42424A"/>
<path d="M343.599 292.016C343.599 294.285 341.755 296.125 339.48 296.125H303.052C302.344 296.125 301.688 295.999 301.082 295.747C300.476 295.495 299.951 295.149 299.51 294.708C299.068 294.268 298.721 293.744 298.469 293.14C298.216 292.536 298.09 291.881 298.09 291.175V237.58H302.167C305.355 237.58 307.938 240.157 307.938 243.336V286.301H343.599L343.599 292.016Z" fill="#42424A"/>
<path d="M503.992 282.968C503.992 284.656 503.777 286.174 503.348 287.521C502.919 288.868 502.35 290.052 501.644 291.073C500.936 292.093 500.115 292.962 499.181 293.68C498.247 294.397 497.269 294.983 496.246 295.437C495.223 295.889 494.188 296.224 493.14 296.437C492.092 296.651 491.1 296.759 490.166 296.759H472.401C470.709 296.759 469.194 296.545 467.856 296.117C466.517 295.689 465.337 295.115 464.314 294.397C463.291 293.68 462.42 292.855 461.7 291.923C460.981 290.991 460.394 290.014 459.939 288.994C459.485 287.974 459.15 286.942 458.936 285.896C458.72 284.852 458.613 283.875 458.613 282.968V269.669C458.613 267.151 459.074 265.016 459.996 263.265C460.918 261.515 462.066 260.091 463.443 258.996C464.819 257.9 466.315 257.113 467.931 256.634C469.547 256.156 471.038 255.917 472.401 255.917H490.166V265.74L476.607 265.896C472.778 265.896 471.271 267.412 470.589 268.079C469.908 268.746 468.401 270.807 468.401 274.081L468.462 282.893C468.462 284.228 468.796 285.235 469.466 285.915C470.134 286.595 471.113 286.935 472.401 286.935H490.166C491.505 286.935 492.502 286.595 493.159 285.915C493.815 285.235 494.144 284.253 494.144 282.968L494.114 238.066H503.962L503.992 282.968Z" fill="#42424A"/>
<path d="M162.001 265.573L149.623 265.689V296.708H139.661V265.689H126.858V255.866H139.661V242.529H145.487C147.771 242.529 149.623 244.376 149.623 246.654V255.866L162.001 255.75V265.573Z" fill="#42424A"/>
<path d="M412.686 297H422.534L423.081 277.852C423.081 274.919 423.586 271.502 425.621 269.385C427.427 267.506 430.238 265.896 434.57 265.896H448.794V256.073H429.412C426.246 256.073 423.108 256.882 420.431 258.567C416.485 261.05 412.399 265.978 412.686 275.718L412.686 297Z" fill="#42424A"/>
<path d="M384.098 297H378.466C367.531 297 358.667 288.158 358.667 277.251V275.823C358.667 264.916 367.531 256.074 378.466 256.074H384.098C395.033 256.074 403.898 264.916 403.898 275.823V277.251C403.898 288.158 395.033 297 384.098 297ZM391.694 280.474V277.202C391.694 271.448 387.017 266.783 381.248 266.783H377.801C374.228 266.783 371.331 269.672 371.331 273.236V276.039C371.331 282.053 376.219 286.927 382.247 286.927H385.225C388.798 286.927 391.694 284.038 391.694 280.474Z" fill="#42424A"/>
<path d="M164.692 134.289V124.004H220.947V142.982H173.408C168.598 142.982 164.692 139.087 164.692 134.289Z" fill="#7767A0"/>
<path d="M325.182 67.8931H340.635C342.608 67.8931 344.209 69.4902 344.209 71.4576V116.269C344.209 121.904 339.622 126.479 333.973 126.479H325.182V67.8931Z" fill="#7767A0"/>
<path d="M307.549 98.4136C307.549 104.869 306.426 110.805 304.178 116.224C301.93 121.644 298.831 126.311 294.88 130.228C290.927 134.145 286.236 137.212 280.803 139.429C275.368 141.646 269.467 142.754 263.095 142.754H211.084C209.7 142.754 208.416 142.509 207.231 142.016C206.045 141.524 205.02 140.846 204.156 139.983C203.291 139.122 202.612 138.099 202.119 136.916C201.624 135.734 201.378 134.453 201.378 133.073V46.4611C201.378 45.1307 201.624 43.8744 202.119 42.6923C202.612 41.5097 203.291 40.4751 204.156 39.5883C205.02 38.7015 206.045 38.0121 207.231 37.519C208.416 37.027 209.7 36.78 211.084 36.78H263.095C269.467 36.78 275.368 37.8885 280.803 40.1057C286.236 42.3228 290.927 45.3894 294.88 49.3065C298.831 53.2231 301.93 57.9041 304.178 63.3474C306.426 68.7918 307.549 74.7166 307.549 81.1209V98.4137V98.4136ZM288.286 81.1208C288.286 77.3774 287.68 73.9523 286.471 70.8487C285.26 67.7447 283.544 65.0968 281.322 62.9042C279.098 60.7124 276.443 59.0129 273.357 57.805C270.269 56.5983 266.848 55.9943 263.095 55.9943H220.641V123.54H263.095C266.848 123.54 270.269 122.937 273.357 121.73C276.443 120.523 279.098 118.823 281.322 116.63C283.544 114.439 285.26 111.803 286.471 108.723C287.68 105.645 288.286 102.208 288.286 98.4137V81.1209V81.1208Z" fill="#7767A0"/>
<path d="M201.505 123.179H220.532V179.289H210.692C205.621 179.289 201.505 175.183 201.505 170.126V123.179Z" fill="#7767A0"/>
<path d="M175.09 0.230469H183.72V142.982H173.766C168.758 142.982 164.692 138.927 164.692 133.932V10.6016C164.692 4.87766 169.351 0.230469 175.09 0.230469Z" fill="#7767A0"/>
<path d="M201.919 170.596V160.31H258.173V179.289H210.634C205.824 179.289 201.919 175.394 201.919 170.596Z" fill="#7767A0"/>
<path d="M201.919 10.516V0.230659L271.409 0.230659V19.2092L210.634 19.2092C205.824 19.2092 201.919 15.3139 201.919 10.516Z" fill="#7767A0"/>
<path fill-rule="evenodd" clip-rule="evenodd" d="M266.913 19.209C266.915 19.2089 266.917 19.2089 266.861 9.71981C266.806 0.230688 266.808 0.230676 266.81 0.230664L266.826 0.230592L266.851 0.230509L266.923 0.230469C266.979 0.230528 267.052 0.230802 267.142 0.231533C267.321 0.232995 267.566 0.23629 267.873 0.24338C268.486 0.257552 269.346 0.286934 270.415 0.347377C272.549 0.468044 275.537 0.713731 279.068 1.21511C286.061 2.20781 295.53 4.25024 304.788 8.54034C323.052 17.0039 340.515 36.9971 344.156 70.5865L325.239 72.6264C322.261 45.1543 308.547 31.2091 296.771 25.7521C289.782 22.5134 282.292 20.8426 276.387 20.0043C273.47 19.5902 271.025 19.3909 269.338 19.2955C268.496 19.2479 267.849 19.2265 267.432 19.2169C267.224 19.212 267.074 19.2102 266.986 19.2095C266.942 19.2091 266.914 19.209 266.903 19.209C266.897 19.209 266.895 19.209 266.897 19.209L266.904 19.209L266.913 19.209Z" fill="#7767A0"/>
<path fill-rule="evenodd" clip-rule="evenodd" d="M330.859 150.922C323.869 158.796 315.183 163.992 308.013 168.117C295.702 175.202 282.647 177.911 272.934 178.91C268.032 179.414 263.857 179.495 260.874 179.448C259.379 179.424 258.175 179.368 257.317 179.316C256.888 179.289 256.546 179.263 256.296 179.243C256.171 179.233 256.07 179.224 255.992 179.217C255.953 179.213 255.921 179.21 255.894 179.208L255.859 179.204L255.838 179.202C255.835 179.202 255.833 179.202 256.789 169.76C257.745 160.319 257.742 160.319 257.74 160.319L257.728 160.317L257.72 160.317C257.717 160.316 257.721 160.317 257.73 160.318C257.748 160.319 257.789 160.323 257.853 160.328C257.979 160.338 258.194 160.355 258.489 160.373C259.081 160.409 259.995 160.453 261.176 160.472C263.545 160.509 266.955 160.446 270.982 160.031C279.127 159.194 289.307 156.971 298.505 151.678C305.681 147.549 311.885 143.668 316.613 138.341C321.083 133.306 324.516 126.63 325.203 116.359L344.188 117.621C343.22 132.104 338.108 142.755 330.859 150.922Z" fill="#7767A0"/>
<path d="M158.487 178.464C163.741 178.464 168.001 174.215 168.001 168.975C168.001 163.734 163.741 159.485 158.487 159.485C153.233 159.485 148.974 163.734 148.974 168.975C148.974 174.215 153.233 178.464 158.487 178.464Z" fill="#7767A0"/>
<path d="M181.65 167.737C185.99 167.737 189.509 164.227 189.509 159.898C189.509 155.569 185.99 152.059 181.65 152.059C177.31 152.059 173.791 155.569 173.791 159.898C173.791 164.227 177.31 167.737 181.65 167.737Z" fill="#7767A0"/>
<path d="M181.768 199.365C188.786 199.365 194.474 193.691 194.474 186.692C194.474 179.692 188.786 174.018 181.768 174.018C174.751 174.018 169.062 179.692 169.062 186.692C169.062 193.691 174.751 199.365 181.768 199.365Z" fill="#7767A0"/>
</svg>
