<svg width="609" height="502" viewBox="0 0 609 502" fill="none" xmlns="http://www.w3.org/2000/svg">
<circle cx="172.763" cy="173.664" r="172.763" fill="#D9DBEF"/>
<path d="M139.714 454.325H465.197C480.158 454.325 492.321 441.756 492.321 426.297V146.982H112.59V426.297C112.59 441.756 124.753 454.325 139.714 454.325ZM112.59 118.954V146.982H492.321V118.954C492.321 103.495 480.158 90.9266 465.197 90.9266H139.714C124.753 90.9266 112.59 103.495 112.59 118.954ZM153.275 132.005C145.774 132.005 139.714 125.742 139.714 117.991C139.714 110.24 145.774 103.977 153.275 103.977C160.777 103.977 166.837 110.24 166.837 117.991C166.837 125.742 160.777 132.005 153.275 132.005ZM207.523 132.005C200.021 132.005 193.961 125.742 193.961 117.991C193.961 110.24 200.021 103.977 207.523 103.977C215.024 103.977 221.084 110.24 221.084 117.991C221.084 125.742 215.024 132.005 207.523 132.005Z" stroke="#7680DD" stroke-width="12"/>
<path d="M255.865 316.358C257.455 317.312 258.25 318.478 258.25 319.856C258.25 320.598 257.985 321.499 257.455 322.559C256.501 324.149 255.335 324.944 253.957 324.944C253.321 324.944 252.473 324.679 251.413 324.149L205.303 298.232C203.183 297.172 202.123 295.37 202.123 292.826C202.123 290.706 203.183 289.063 205.303 287.897L251.413 262.298C252.473 261.768 253.321 261.503 253.957 261.503C255.229 261.503 256.395 262.351 257.455 264.047C257.985 265.107 258.25 265.955 258.25 266.591C258.25 267.969 257.402 269.135 255.706 270.089L214.366 293.144L255.865 316.358ZM288.01 367.556C286.42 367.556 285.148 367.132 284.194 366.284C283.346 365.436 282.922 364.323 282.922 362.945C282.922 362.627 283.028 362.044 283.24 361.196L315.835 234.473C316.471 231.929 318.061 230.657 320.605 230.657C322.195 230.657 323.414 231.081 324.262 231.929C325.216 232.671 325.693 233.731 325.693 235.109C325.693 235.533 325.587 236.169 325.375 237.017L292.78 363.74C292.144 366.284 290.554 367.556 288.01 367.556ZM399.94 287.897C402.06 289.063 403.12 290.706 403.12 292.826C403.12 295.37 402.06 297.172 399.94 298.232L353.83 324.149C352.77 324.679 351.922 324.944 351.286 324.944C349.908 324.944 348.742 324.149 347.788 322.559C347.258 321.499 346.993 320.598 346.993 319.856C346.993 318.478 347.788 317.312 349.378 316.358L390.877 293.144L349.537 270.089C347.841 269.135 346.993 267.969 346.993 266.591C346.993 265.955 347.258 265.107 347.788 264.047C348.848 262.351 350.014 261.503 351.286 261.503C351.922 261.503 352.77 261.768 353.83 262.298L399.94 287.897Z" fill="#7680DD"/>
<path fill-rule="evenodd" clip-rule="evenodd" d="M515.992 317.601C566.896 317.601 608.162 358.867 608.162 409.771C608.162 460.675 566.896 501.941 515.992 501.941C465.087 501.941 423.821 460.675 423.821 409.771C423.821 358.867 465.087 317.601 515.992 317.601Z" fill="url(#paint0_linear_795_2322)"/>
<path d="M469.056 434.282C471.464 434.282 473.42 432.343 473.42 429.954V408.472C473.42 405.715 475.683 403.471 478.462 403.471H482.018C484.426 403.471 486.382 401.531 486.382 399.142C486.382 396.754 484.426 394.814 482.018 394.814H478.462C470.866 394.814 464.692 400.938 464.692 408.472V429.954C464.692 432.343 466.648 434.282 469.056 434.282ZM478.479 465.03H542.417C550.013 465.03 556.188 458.906 556.188 451.371V408.472C556.188 400.938 550.013 394.814 542.417 394.814H538.894C536.486 394.814 534.53 396.754 534.53 399.142C534.53 401.531 536.486 403.471 538.894 403.471H542.417C545.197 403.471 547.46 405.715 547.46 408.472V451.371C547.46 454.129 545.197 456.373 542.417 456.373H478.462C475.683 456.373 473.42 454.129 473.42 451.371V450.458C473.42 448.069 471.464 446.129 469.056 446.129C466.648 446.129 464.692 448.069 464.692 450.458V451.371C464.692 458.906 470.882 465.03 478.479 465.03Z" fill="white"/>
<path d="M589.983 402.878C592.213 402.878 594.121 401.178 594.331 398.934C594.428 397.828 594.46 385.051 594.46 384.923C594.46 368.155 580.641 354.496 563.638 354.496C546.652 354.496 532.833 368.138 532.833 384.923C532.833 385.051 532.849 397.812 532.946 398.918C533.156 401.307 535.273 403.054 537.681 402.846C540.057 402.637 541.819 400.569 541.641 398.229C541.593 397.074 541.544 386.302 541.544 384.923C541.544 372.916 551.452 363.153 563.622 363.153C575.809 363.153 585.716 372.916 585.716 384.923C585.716 386.302 585.684 397.074 585.619 398.229C585.441 400.585 587.203 402.653 589.579 402.862C589.724 402.878 589.854 402.878 589.983 402.878ZM541.625 398.181V398.229C541.641 398.213 541.625 398.197 541.625 398.181ZM585.635 398.165V398.213C585.619 398.197 585.619 398.181 585.635 398.165Z" fill="white"/>
<path d="M482.035 403.471H538.894C541.302 403.471 543.258 401.531 543.258 399.142C543.258 396.754 541.302 394.814 538.894 394.814H482.018C479.61 394.814 477.655 396.754 477.655 399.142C477.655 401.531 479.626 403.471 482.035 403.471Z" fill="white"/>
<path d="M482.035 403.471H538.894C541.302 403.471 543.258 401.531 543.258 399.142C543.258 396.754 541.302 394.814 538.894 394.814H482.018C479.61 394.814 477.655 396.754 477.655 399.142C477.655 401.531 479.626 403.471 482.035 403.471ZM510.577 444.59C518.707 444.59 525.334 438.034 525.334 429.954C525.334 421.89 518.723 415.318 510.577 415.318C502.448 415.318 495.821 421.874 495.821 429.954C495.821 438.018 502.432 444.59 510.577 444.59ZM510.577 423.99C513.891 423.99 516.606 426.668 516.606 429.97C516.606 433.256 513.907 435.95 510.577 435.95C507.264 435.95 504.549 433.272 504.549 429.97C504.549 426.668 507.248 423.99 510.577 423.99Z" fill="white"/>
<defs>
<linearGradient id="paint0_linear_795_2322" x1="423.821" y1="409.771" x2="620.006" y2="409.771" gradientUnits="userSpaceOnUse">
<stop stop-color="#767EE5"/>
<stop offset="1" stop-color="#9966CC"/>
</linearGradient>
</defs>
</svg>
