<svg width="65" height="65" viewBox="0 0 65 65" fill="none" xmlns="http://www.w3.org/2000/svg">
<g clip-path="url(#clip0_6326_2342)">
<path d="M53.8455 43.5466C53.8455 43.872 53.7162 44.184 53.4861 44.4141C53.2561 44.6442 52.944 44.7734 52.6186 44.7734H24.6973C24.3719 44.7734 24.0599 44.6442 23.8298 44.4141C23.5997 44.184 23.4705 43.872 23.4705 43.5466V25.7503C23.4705 25.0719 24.0189 24.5234 24.6973 24.5234H52.6186C53.297 24.5234 53.8455 25.0719 53.8455 25.7503V43.5466Z" fill="#E0EBFE"/>
<path d="M18.6544 11.2709L13.5919 16.3334C13.4335 16.4918 13.3445 16.7067 13.3445 16.9308C13.3445 17.1548 13.4335 17.3697 13.5919 17.5281C13.7504 17.6866 13.9652 17.7756 14.1893 17.7756C14.4134 17.7756 14.6282 17.6866 14.7867 17.5281L19.8492 12.4656C19.9276 12.3872 19.9899 12.294 20.0323 12.1916C20.0748 12.0891 20.0966 11.9792 20.0966 11.8683C20.0966 11.7573 20.0748 11.6475 20.0323 11.545C19.9899 11.4425 19.9276 11.3493 19.8492 11.2709C19.7707 11.1924 19.6776 11.1302 19.5751 11.0877C19.4726 11.0453 19.3627 11.0234 19.2518 11.0234C19.1409 11.0234 19.031 11.0453 18.9285 11.0877C18.826 11.1302 18.7329 11.1924 18.6544 11.2709Z" fill="#5465CF"/>
<path d="M55.7844 44.6435C55.7169 44.4511 55.6157 44.252 55.4807 44.0596C55.5111 43.8909 55.533 43.7221 55.533 43.5466V25.7502C55.533 24.1421 54.2269 22.8359 52.6187 22.8359H42.033V8.87525C42.033 7.26706 40.7269 5.96094 39.1187 5.96094H11.1973C9.58911 5.96094 8.28299 7.26706 8.28299 8.87525V26.6716C8.28299 26.8438 8.30493 27.0108 8.33361 27.1745C8.20991 27.3502 8.1111 27.5421 8.03999 27.7449L5.0683 35.8685C4.91891 36.3 4.87466 36.7608 4.93923 37.2128C5.0038 37.6648 5.17533 38.0949 5.43955 38.4673C5.99305 39.2469 6.89924 39.7109 7.86618 39.7109H21.783V43.5466C21.783 43.7204 21.8049 43.8892 21.8336 44.0529C21.7107 44.2278 21.6119 44.4185 21.54 44.6199L18.5683 52.7435C18.4189 53.175 18.3747 53.6358 18.4392 54.0878C18.5038 54.5398 18.6753 54.9699 18.9396 55.3423C19.4931 56.1219 20.3992 56.5859 21.3662 56.5859H55.9498C56.9657 56.5859 57.8921 56.1354 58.4271 55.3828C58.9266 54.6808 59.043 53.7931 58.7443 52.9342L55.7844 44.6435ZM53.4219 46.3344L53.4287 46.4609C53.3551 46.4506 53.2835 46.4295 53.2161 46.3985C53.2869 46.3833 53.3527 46.3546 53.4219 46.3344ZM52.158 26.2109V43.0859H25.158V26.2109H52.158ZM21.783 31.2734H14.1892C13.9655 31.2734 13.7509 31.3623 13.5926 31.5206C13.4344 31.6788 13.3455 31.8934 13.3455 32.1172C13.3455 32.341 13.4344 32.5556 13.5926 32.7138C13.7509 32.872 13.9655 32.9609 14.1892 32.9609H21.783V36.3359H8.49055L10.9594 29.5859H21.783V31.2734ZM21.783 25.7502V26.2109H11.658V9.33594H38.658V22.8359H24.6973C23.0891 22.8359 21.783 24.1421 21.783 25.7502ZM21.9906 53.2109L24.4594 46.4609H52.8499L55.2579 53.2109H21.9906Z" fill="#5465CF"/>
<path d="M49.6268 48.1495H27.6893C27.4655 48.1495 27.2509 48.2384 27.0926 48.3966C26.9344 48.5549 26.8455 48.7695 26.8455 48.9933C26.8455 49.217 26.9344 49.4316 27.0926 49.5899C27.2509 49.7481 27.4655 49.837 27.6893 49.837H49.6268C49.8505 49.837 50.0651 49.7481 50.2234 49.5899C50.3816 49.4316 50.4705 49.217 50.4705 48.9933C50.4705 48.7695 50.3816 48.5549 50.2234 48.3966C50.0651 48.2384 49.8505 48.1495 49.6268 48.1495ZM27.6893 34.6495C27.8002 34.6499 27.91 34.6283 28.0126 34.586C28.1151 34.5437 28.2082 34.4816 28.2866 34.4031L33.3491 29.3406C33.4276 29.2622 33.4898 29.169 33.5323 29.0666C33.5747 28.9641 33.5966 28.8542 33.5966 28.7433C33.5966 28.6323 33.5747 28.5225 33.5323 28.42C33.4898 28.3175 33.4276 28.2243 33.3491 28.1459C33.2707 28.0674 33.1776 28.0052 33.0751 27.9627C32.9726 27.9203 32.8627 27.8984 32.7518 27.8984C32.6408 27.8984 32.531 27.9203 32.4285 27.9627C32.326 28.0052 32.2328 28.0674 32.1544 28.1459L27.0919 33.2084C26.9736 33.3264 26.893 33.4769 26.8603 33.6407C26.8276 33.8046 26.8443 33.9745 26.9083 34.1288C26.9723 34.2832 27.0807 34.4151 27.2197 34.5078C27.3587 34.6005 27.5222 34.6498 27.6893 34.6495Z" fill="#5465CF"/>
</g>
<defs>
<clipPath id="clip0_6326_2342">
<rect width="54" height="54" fill="white" transform="translate(4.90796 4.27344)"/>
</clipPath>
</defs>
</svg>
