<svg width="31" height="30" viewBox="0 0 31 30" fill="none" xmlns="http://www.w3.org/2000/svg">
<path d="M15.7949 0.333025L21.2249 5.76303C21.2906 5.82858 21.3354 5.91218 21.3535 6.00322C21.3717 6.09426 21.3624 6.18864 21.3269 6.2744C21.2913 6.36015 21.2311 6.43342 21.1539 6.48492C21.0766 6.53642 20.9858 6.56382 20.893 6.56365H16.8693V9.8449C16.8693 10.2179 16.7211 10.5755 16.4574 10.8393C16.1937 11.103 15.836 11.2512 15.463 11.2512C15.0901 11.2512 14.7324 11.103 14.4686 10.8393C14.2049 10.5755 14.0568 10.2179 14.0568 9.8449V6.56365H10.033C9.94018 6.56382 9.84939 6.53642 9.77215 6.48492C9.69491 6.43342 9.6347 6.36015 9.59915 6.2744C9.5636 6.18864 9.55432 6.09426 9.57248 6.00322C9.59063 5.91218 9.63541 5.82858 9.70114 5.76303L15.1311 0.333025C15.1747 0.289372 15.2264 0.254738 15.2834 0.231107C15.3403 0.207476 15.4014 0.195313 15.463 0.195312C15.5247 0.195313 15.5857 0.207476 15.6427 0.231107C15.6996 0.254738 15.7513 0.289372 15.7949 0.333025ZM16.8693 19.2199C16.8693 18.8469 16.7211 18.4893 16.4574 18.2255C16.1937 17.9618 15.836 17.8137 15.463 17.8137C15.0901 17.8137 14.7324 17.9618 14.4686 18.2255C14.2049 18.4893 14.0568 18.8469 14.0568 19.2199V22.5012H10.033C9.94018 22.501 9.84939 22.5284 9.77215 22.5799C9.69491 22.6314 9.6347 22.7046 9.59915 22.7904C9.5636 22.8762 9.55432 22.9705 9.57248 23.0616C9.59063 23.1526 9.63541 23.2362 9.70114 23.3018L15.1311 28.7318C15.1747 28.7754 15.2264 28.8101 15.2834 28.8337C15.3403 28.8573 15.4014 28.8695 15.463 28.8695C15.5247 28.8695 15.5857 28.8573 15.6427 28.8337C15.6996 28.8101 15.7513 28.7754 15.7949 28.7318L21.2249 23.3018C21.2906 23.2362 21.3354 23.1526 21.3535 23.0616C21.3717 22.9705 21.3624 22.8762 21.3269 22.7904C21.2913 22.7046 21.2311 22.6314 21.1539 22.5799C21.0766 22.5284 20.9858 22.501 20.893 22.5012H16.8693V19.2199ZM5.61926 13.1262C5.2463 13.1262 4.88862 13.2743 4.62489 13.538C4.36117 13.8018 4.21301 14.1594 4.21301 14.5324C4.21301 14.9054 4.36117 15.263 4.62489 15.5268C4.88862 15.7905 5.2463 15.9387 5.61926 15.9387H25.3068C25.6797 15.9387 26.0374 15.7905 26.3011 15.5268C26.5649 15.263 26.713 14.9054 26.713 14.5324C26.713 14.1594 26.5649 13.8018 26.3011 13.538C26.0374 13.2743 25.6797 13.1262 25.3068 13.1262H5.61926Z" fill="#6B7280"/>
</svg>
