<svg width="46" height="46" viewBox="0 0 46 46" fill="none" xmlns="http://www.w3.org/2000/svg">
<path d="M41.0048 37.8232C38.7901 30.3168 32.1507 24.9666 24.3432 24.4051V16.2967H29.7114C30.4526 16.2967 31.0546 15.6947 31.0546 14.9535V9.58535C31.0546 8.84414 30.4526 8.24219 29.7114 8.24219H16.2932C15.552 8.24219 14.9501 8.84414 14.9501 9.58535V14.9535C14.9501 15.6947 15.552 16.2967 16.2932 16.2967H21.6614V24.4096C13.854 24.9711 7.21003 30.3168 4.99538 37.8277C3.5489 38.1422 2.628 39.5662 2.93796 41.0172C3.25241 42.4637 4.67644 43.3846 6.12741 43.0746C7.36277 42.8096 8.24324 41.7135 8.24324 40.4512C8.24324 39.7594 7.9737 39.135 7.54695 38.6633C9.40222 32.2574 15.013 27.6574 21.6614 27.1004V38.1422C20.8618 38.6049 20.3182 39.4629 20.3182 40.4557C20.3182 41.9381 21.5176 43.1375 23.0001 43.1375C24.4825 43.1375 25.6819 41.9381 25.6819 40.4557C25.6819 39.4674 25.1384 38.6094 24.3387 38.1422V27.0914C30.9872 27.6484 36.5979 32.2484 38.4532 38.6543C38.0085 39.1439 37.7569 39.7818 37.7569 40.4422C37.7569 41.9246 38.9563 43.124 40.4387 43.124C41.9212 43.124 43.1206 41.9246 43.1206 40.4422C43.1251 39.1799 42.2401 38.0883 41.0048 37.8232Z" fill="white"/>
<path d="M13.6068 21.6568H16.8546C17.5959 21.6568 18.1978 21.0549 18.1978 20.3137C18.1978 19.5725 17.5959 18.9705 16.8546 18.9705H13.6068C12.8656 18.9705 12.2636 18.3686 12.2636 17.6273V6.9C12.2636 6.15879 12.8656 5.55684 13.6068 5.55684H32.3886C33.1298 5.55684 33.7318 6.15879 33.7318 6.9V17.6318C33.7318 18.373 33.1298 18.975 32.3886 18.975H28.5882C27.847 18.975 27.2451 19.577 27.2451 20.3182C27.2451 21.0594 27.847 21.6613 28.5882 21.6613H32.3886C34.6123 21.6613 36.4136 19.86 36.4136 17.6363V6.9C36.4136 4.67637 34.6123 2.875 32.3886 2.875H13.6068C11.3832 2.875 9.58179 4.67637 9.58179 6.9V17.6318C9.58179 19.8555 11.3876 21.6568 13.6068 21.6568Z" fill="white"/>
</svg>
