<svg width="46" height="46" viewBox="0 0 46 46" fill="none" xmlns="http://www.w3.org/2000/svg">
<g clip-path="url(#clip0_6339_2892)">
<path d="M44.6757 21.6764C44.5543 21.6844 44.4353 21.7092 44.3203 21.7494C44.2117 21.7166 44.0995 21.6959 43.9863 21.6867H32.4064C32.2184 13.8064 30.41 6.99214 27.7765 3.19831C33.6881 4.6059 38.6555 8.59178 41.3108 14.0571C41.4117 14.2635 41.5652 14.4396 41.7557 14.5679C41.9463 14.6962 42.1672 14.7721 42.3964 14.7879C42.8627 14.8201 43.3112 14.6011 43.5723 14.2135C43.8333 13.8254 43.8678 13.328 43.6625 12.9077C39.8348 4.9854 31.7981 -0.0348922 23 0.000182605C10.3012 0.000182605 0.00708008 10.2943 0.00708008 22.9931C0.00708008 23.7205 0.596451 24.3099 1.32382 24.3099C1.41295 24.3001 1.50092 24.2794 1.58487 24.2472C1.66249 24.2742 1.74299 24.2915 1.82522 24.2995H13.5931C13.7811 32.1592 15.5786 38.9315 18.2023 42.7569C12.2953 41.3154 7.33368 37.3261 4.65708 31.8665C4.34255 31.2144 3.55883 30.9402 2.90621 31.2547C2.25417 31.5692 1.98047 32.3529 2.29499 33.0056C6.95936 42.6626 17.6807 47.8123 28.1342 45.4168C38.5876 43.0214 45.997 33.718 45.9918 22.9931C45.9918 22.6441 45.8533 22.3089 45.606 22.0622C45.3605 21.815 45.0253 21.6764 44.6757 21.6764ZM29.8143 21.6764H16.2277C16.4681 10.3053 20.2826 2.80099 22.9063 2.63424H23.084C25.7071 2.78029 29.5326 10.2949 29.8143 21.6867V21.6764ZM18.1712 3.22994C15.5481 7.02376 13.7506 13.8277 13.5937 21.6867H2.69346C3.27248 12.8157 9.53765 5.34535 18.1712 3.22994ZM16.1858 24.2995H29.7723C29.49 35.681 25.6755 43.1956 23.0524 43.3526H22.8747C20.2935 43.206 16.4681 35.6914 16.1858 24.2995ZM27.8289 42.7563C30.452 38.9625 32.2494 32.1586 32.438 24.299H43.3072C42.7276 33.17 36.463 40.6409 27.8289 42.7563Z" fill="white"/>
</g>
<defs>
<clipPath id="clip0_6339_2892">
<rect width="46" height="46" fill="white"/>
</clipPath>
</defs>
</svg>
