<svg width="46" height="46" viewBox="0 0 46 46" fill="none" xmlns="http://www.w3.org/2000/svg">
<path d="M39.7655 6.21778C42.5859 9.03959 42.6908 13.5318 41.2533 18.0355C40.6936 19.7514 39.9715 21.4101 39.0971 22.9891C39.9715 24.568 40.6936 26.2268 41.2533 27.9427C42.6908 32.4478 42.5859 36.9415 39.7655 39.7618C36.9437 42.5822 32.4515 42.6871 27.9464 41.2496C26.2304 40.6899 24.5717 39.9679 22.9927 39.0934C21.4138 39.9679 19.7551 40.6899 18.0391 41.2496C13.5354 42.6871 9.04325 42.5822 6.22288 39.7618C3.40106 36.94 3.29613 32.4478 4.73363 27.9427C5.24681 26.3327 5.97131 24.6681 6.88988 22.9891C6.01532 21.4102 5.2933 19.7514 4.73363 18.0355C3.29613 13.5318 3.40106 9.03959 6.22144 6.21921C9.04325 3.3974 13.5354 3.29246 18.0391 4.72996C19.6491 5.24315 21.3166 5.96765 22.9927 6.88621C24.5717 6.01167 26.2304 5.28966 27.9464 4.72996C32.4515 3.29246 36.9451 3.3974 39.7655 6.21778ZM8.6465 25.8684C8.16925 26.8746 7.77681 27.8622 7.47206 28.8167C6.14956 32.9581 6.58513 36.0588 8.25406 37.7292C9.92444 39.3982 13.0251 39.8323 17.1666 38.5112C18.1743 38.1856 19.1593 37.7933 20.1149 37.3368C17.8641 35.807 15.7645 34.066 13.8445 32.1373C11.9164 30.2178 10.1759 28.1186 8.6465 25.8684ZM37.339 25.8684C35.8096 28.1186 34.0691 30.2177 32.141 32.1373C30.2215 34.0659 28.1223 35.8069 25.8721 37.3368C26.8783 37.814 27.8659 38.2065 28.8204 38.5112C32.9618 39.8337 36.0625 39.3981 37.7329 37.7278C39.4018 36.0588 39.8359 32.9581 38.5149 28.8167C38.1893 27.809 37.7969 26.824 37.3404 25.8684H37.339ZM22.9927 10.2083C20.6036 11.6745 18.1771 13.5763 15.8771 15.8749C13.58 18.172 11.6768 20.6 10.2119 22.9905C11.6782 25.3797 13.58 27.8061 15.8786 30.1061C18.1757 32.4033 20.6036 34.3051 22.9942 35.7713C25.3833 34.3051 27.8098 32.4033 30.1098 30.1047C32.4069 27.8062 34.3087 25.3797 35.775 22.9891C34.3087 20.6 32.4069 18.1735 30.1084 15.8735C27.8098 13.5763 25.3833 11.6731 22.9927 10.2083ZM22.9927 19.3953C23.9459 19.3953 24.86 19.774 25.5339 20.4479C26.2079 21.1219 26.5865 22.036 26.5865 22.9891C26.5865 23.9422 26.2079 24.8563 25.5339 25.5303C24.86 26.2042 23.9459 26.5828 22.9927 26.5828C22.0396 26.5828 21.1255 26.2042 20.4516 25.5303C19.7776 24.8563 19.399 23.9422 19.399 22.9891C19.399 22.036 19.7776 21.1219 20.4516 20.4479C21.1255 19.774 22.0396 19.3953 22.9927 19.3953ZM8.25406 8.2504C6.58513 9.92078 6.151 13.0215 7.47206 17.1629C7.77681 18.1174 8.16925 19.1035 8.6465 20.1112C10.1758 17.8605 11.9163 15.7609 13.8445 13.8408C15.7645 11.9127 17.8642 10.1721 20.1149 8.64284C19.1086 8.16559 18.1211 7.77315 17.1651 7.4684C13.0251 6.1459 9.92444 6.58146 8.25406 8.2504ZM28.8204 7.4684C27.8659 7.77315 26.8797 8.16559 25.8721 8.64284C28.1223 10.1722 30.2214 11.9127 32.141 13.8408C34.0697 15.7608 35.8107 17.8605 37.3404 20.1112C37.8177 19.105 38.2101 18.1174 38.5149 17.1615C39.8374 13.0215 39.4018 9.92078 37.7314 8.2504C36.0625 6.58146 32.9618 6.14734 28.8204 7.4684Z" fill="white"/>
</svg>
