<svg width="65" height="65" viewBox="0 0 65 65" fill="none" xmlns="http://www.w3.org/2000/svg">
<path d="M40.3455 38.7109H53.8455V48.8359H40.3455V38.7109ZM8.28296 11.7109H18.408V25.2109H8.28296V11.7109Z" fill="#E0EBFE"/>
<path d="M15.8767 4.96094H10.8142C10.5904 4.96094 10.3758 5.04983 10.2176 5.20807C10.0594 5.3663 9.97046 5.58091 9.97046 5.80469V10.0234H8.28296C7.83541 10.0234 7.40618 10.2012 7.08972 10.5177C6.77325 10.8342 6.59546 11.2634 6.59546 11.7109V25.2109C6.59546 25.6585 6.77325 26.0877 7.08972 26.4042C7.40618 26.7206 7.83541 26.8984 8.28296 26.8984H11.658V43.7734C11.658 49.3574 16.199 53.8984 21.783 53.8984C27.3669 53.8984 31.908 49.3574 31.908 43.7734V20.1484C31.908 16.4258 34.9353 13.3984 38.658 13.3984C42.3806 13.3984 45.408 16.4258 45.408 20.1484V37.0234H40.3455C39.8979 37.0234 39.4687 37.2012 39.1522 37.5177C38.8357 37.8342 38.658 38.2634 38.658 38.7109V48.8359C38.658 49.2835 38.8357 49.7127 39.1522 50.0292C39.4687 50.3456 39.8979 50.5234 40.3455 50.5234H42.033V54.7422C42.033 54.966 42.1219 55.1806 42.2801 55.3388C42.4383 55.497 42.6529 55.5859 42.8767 55.5859H51.3142C51.538 55.5859 51.7526 55.497 51.9108 55.3388C52.0691 55.1806 52.158 54.966 52.158 54.7422V50.5234H53.8455C54.293 50.5234 54.7222 50.3456 55.0387 50.0292C55.3552 49.7127 55.533 49.2835 55.533 48.8359V38.7109C55.533 38.2634 55.3552 37.8342 55.0387 37.5177C54.7222 37.2012 54.293 37.0234 53.8455 37.0234H48.783V20.1484C48.783 14.5645 44.2419 10.0234 38.658 10.0234C33.074 10.0234 28.533 14.5645 28.533 20.1484V43.7734C28.533 47.4961 25.5056 50.5234 21.783 50.5234C18.0603 50.5234 15.033 47.4961 15.033 43.7734V26.8984H18.408C18.8555 26.8984 19.2847 26.7206 19.6012 26.4042C19.9177 26.0877 20.0955 25.6585 20.0955 25.2109V11.7109C20.0955 11.2634 19.9177 10.8342 19.6012 10.5177C19.2847 10.2012 18.8555 10.0234 18.408 10.0234H16.7205V5.80469C16.7205 5.58091 16.6316 5.3663 16.4733 5.20807C16.3151 5.04983 16.1005 4.96094 15.8767 4.96094ZM50.4705 53.8984H43.7205V50.5234H50.4705V53.8984ZM52.158 40.3984V47.1484H42.033V40.3984H52.158ZM11.658 6.64844H15.033V10.0234H11.658V6.64844ZM16.7205 23.5234H9.97046V13.3984H16.7205V23.5234Z" fill="#5465CF"/>
</svg>
