<svg width="31" height="30" viewBox="0 0 31 30" fill="none" xmlns="http://www.w3.org/2000/svg">
<path d="M14.2876 12.375H16.1626V8.625H20.4751L15.9751 3.9375C15.6001 3.75 14.8501 3.75 14.4751 3.9375L9.9751 8.625H14.2876V12.375Z" fill="#6B7280"/>
<path d="M12.6001 14.0625H8.8501V9.75L4.1626 14.25C3.9751 14.625 3.9751 15.375 4.1626 15.75L8.8501 20.4375V15.9375H12.6001V14.0625Z" fill="#6B7280"/>
<path d="M26.2876 14.25L21.6001 9.5625V13.875H17.8501V15.75H21.6001V20.0625L26.2876 15.375C26.4751 15.375 26.4751 14.625 26.2876 14.25Z" fill="#6B7280"/>
<path d="M16.1626 17.625H14.2876V21.375H9.9751L14.6626 26.0625C15.0376 26.4375 15.6001 26.4375 15.9751 26.0625L20.6626 21.375H16.1626V17.625Z" fill="#6B7280"/>
</svg>
