<svg width="33" height="33" viewBox="0 0 33 33" fill="none" xmlns="http://www.w3.org/2000/svg">
<path d="M24.908 2.77344C26.3666 2.77344 27.7656 3.3529 28.797 4.38435C29.8285 5.4158 30.408 6.81475 30.408 8.27344V24.2734C30.408 25.7321 29.8285 27.1311 28.797 28.1625C27.7656 29.194 26.3666 29.7734 24.908 29.7734H8.90796C7.44927 29.7734 6.05032 29.194 5.01887 28.1625C3.98742 27.1311 3.40796 25.7321 3.40796 24.2734V8.27344C3.40796 6.81475 3.98742 5.4158 5.01887 4.38435C6.05032 3.3529 7.44927 2.77344 8.90796 2.77344H24.908ZM15.408 17.7734H6.40796V24.2734C6.40796 25.5674 7.39196 26.6334 8.65196 26.7614L8.90796 26.7734H15.408V17.7734ZM27.408 17.7734H18.408V26.7734H24.908C25.5269 26.7737 26.1239 26.5444 26.5835 26.1299C27.0431 25.7154 27.3326 25.1451 27.396 24.5294L27.408 24.2734V17.7734ZM24.908 5.77344H8.90796C7.52796 5.77344 6.40796 6.89344 6.40796 8.27344V14.7734H27.408V8.27344C27.4082 7.65452 27.1789 7.0575 26.7644 6.59791C26.3499 6.13831 25.7796 5.84881 25.164 5.78544L24.908 5.77344Z" fill="#7680DD"/>
</svg>
