<svg width="33" height="33" viewBox="0 0 33 33" fill="none" xmlns="http://www.w3.org/2000/svg">
<path d="M24.6178 19.1302C25.2579 19.1305 25.8892 19.2782 26.4629 19.5619C27.0367 19.8456 27.5373 20.2576 27.9261 20.7661C28.3148 21.2745 28.5812 21.8657 28.7046 22.4937C28.828 23.1217 28.805 23.7697 28.6375 24.3874C28.47 25.0052 28.1624 25.576 27.7386 26.0556C27.3149 26.5353 26.7863 26.9109 26.1939 27.1532C25.6016 27.3956 24.9613 27.4982 24.3229 27.4532C23.6845 27.4082 23.065 27.2167 22.5125 26.8935C20.5321 28.1991 18.185 28.8347 15.8165 28.7069C14.6528 28.647 13.5057 28.4048 12.4172 27.9889L12.1245 27.8715L12.8925 26.0249C13.8458 26.4215 14.8658 26.6542 15.9212 26.7095C17.7178 26.8069 19.5029 26.3688 21.0505 25.4509C20.669 24.8188 20.4622 24.0968 20.4514 23.3586C20.4406 22.6204 20.6261 21.8926 20.9889 21.2497C21.3517 20.6068 21.8789 20.0718 22.5164 19.6995C23.1539 19.3272 23.8789 19.131 24.6172 19.1309L24.6178 19.1302ZM10.3478 8.24954L11.4325 9.92954C10.2154 10.7124 9.20217 11.7737 8.47648 13.0256C7.7508 14.2776 7.33352 15.6844 7.25915 17.1295C7.22241 17.8225 7.26446 18.5174 7.38449 19.2009C8.38249 19.0139 9.41443 19.1977 10.2864 19.7179C11.1585 20.238 11.8105 21.0587 12.1201 22.0257C12.4298 22.9927 12.3756 24.0395 11.9679 24.9694C11.5601 25.8993 10.8269 26.6484 9.90586 27.0758C8.98484 27.5032 7.93944 27.5796 6.96606 27.2906C5.99268 27.0016 5.15832 26.3672 4.61973 25.5064C4.08114 24.6457 3.87538 23.6179 4.04113 22.6161C4.20687 21.6144 4.73269 20.7076 5.51982 20.0662C5.29462 19.0691 5.20802 18.0457 5.26249 17.0249C5.35115 15.3055 5.83799 13.6302 6.68461 12.1311C7.53124 10.632 8.71451 9.34998 10.1412 8.38621L10.3478 8.24954ZM24.6178 21.1302C24.0432 21.1302 23.4921 21.3585 23.0858 21.7648C22.6794 22.1711 22.4512 22.7222 22.4512 23.2969C22.4512 23.8715 22.6794 24.4226 23.0858 24.8289C23.4921 25.2353 24.0432 25.4635 24.6178 25.4635C25.1925 25.4635 25.7436 25.2353 26.1499 24.8289C26.5562 24.4226 26.7845 23.8715 26.7845 23.2969C26.7845 22.7222 26.5562 22.1711 26.1499 21.7648C25.7436 21.3585 25.1925 21.1302 24.6178 21.1302ZM8.15115 21.1302C7.57652 21.1302 7.02542 21.3585 6.61909 21.7648C6.21276 22.1711 5.98449 22.7222 5.98449 23.2969C5.98449 23.8715 6.21276 24.4226 6.61909 24.8289C7.02542 25.2353 7.57652 25.4635 8.15115 25.4635C8.72579 25.4635 9.27689 25.2353 9.68322 24.8289C10.0895 24.4226 10.3178 23.8715 10.3178 23.2969C10.3178 22.7222 10.0895 22.1711 9.68322 21.7648C9.27689 21.3585 8.72579 21.1302 8.15115 21.1302ZM16.3845 3.29688C17.4533 3.29689 18.4812 3.70764 19.2558 4.44418C20.0303 5.18073 20.4921 6.18674 20.5458 7.25421C22.6182 8.09387 24.3898 9.53778 25.6303 11.3981C26.8708 13.2584 27.5227 15.449 27.5012 17.6849L27.4965 17.9195L25.4978 17.8569C25.5529 16.0555 25.0742 14.2781 24.1219 12.748C23.1697 11.218 21.7863 10.0036 20.1458 9.25754C19.8249 9.93017 19.3295 10.5044 18.7113 10.9205C18.093 11.3365 17.3744 11.5791 16.6304 11.623C15.8865 11.6669 15.1444 11.5104 14.4815 11.1699C13.8186 10.8294 13.2591 10.3174 12.8614 9.68712C12.4637 9.05687 12.2423 8.33149 12.2203 7.58657C12.1983 6.84165 12.3765 6.10447 12.7363 5.45184C13.0961 4.79921 13.6244 4.25503 14.266 3.87601C14.9077 3.49698 15.6392 3.29699 16.3845 3.29688ZM16.3845 5.29688C16.1 5.29688 15.8182 5.35292 15.5553 5.4618C15.2925 5.57069 15.0536 5.73028 14.8524 5.93148C14.6512 6.13267 14.4916 6.37152 14.3827 6.63439C14.2739 6.89727 14.2178 7.17901 14.2178 7.46354C14.2178 7.74807 14.2739 8.02982 14.3827 8.29269C14.4916 8.55556 14.6512 8.79441 14.8524 8.99561C15.0536 9.1968 15.2925 9.3564 15.5553 9.46528C15.8182 9.57417 16.1 9.63021 16.3845 9.63021C16.9591 9.63021 17.5102 9.40194 17.9166 8.99561C18.3229 8.58928 18.5512 8.03818 18.5512 7.46354C18.5512 6.88891 18.3229 6.33781 17.9166 5.93148C17.5102 5.52515 16.9591 5.29688 16.3845 5.29688Z" fill="#7680DD"/>
</svg>
