<svg width="33" height="33" viewBox="0 0 33 33" fill="none" xmlns="http://www.w3.org/2000/svg">
<path d="M21.1766 17.1141C23.1516 15.6578 24.4329 13.3141 24.4329 10.6766C24.4329 6.26719 20.8454 2.67969 16.436 2.67969C12.0266 2.67969 8.43911 6.26719 8.43911 10.6766C8.43911 13.3141 9.72349 15.6578 11.6954 17.1141C7.17036 18.9828 3.97974 23.4422 3.97974 28.6328C3.97974 29.3234 4.53911 29.8828 5.22974 29.8828C5.92036 29.8828 6.47974 29.3234 6.47974 28.6328C6.47974 23.1391 10.9485 18.6734 16.4391 18.6734C21.9297 18.6734 26.3985 23.1422 26.3985 28.6328C26.3985 29.3234 26.9579 29.8828 27.6485 29.8828C28.3391 29.8828 28.8985 29.3234 28.8985 28.6328C28.8954 23.4422 25.7016 18.9828 21.1766 17.1141ZM10.936 10.6766C10.936 7.64219 13.4047 5.17656 16.436 5.17656C19.4672 5.17656 21.936 7.64531 21.936 10.6766C21.936 13.7078 19.4672 16.1766 16.436 16.1766C13.4047 16.1766 10.936 13.7078 10.936 10.6766Z" fill="#7680DD"/>
</svg>
