<svg width="33" height="33" viewBox="0 0 33 33" fill="none" xmlns="http://www.w3.org/2000/svg">
<path d="M28.3672 9.03562C27.7691 8.89031 27.1713 9.20906 26.9385 9.75719C24.6966 6.01844 20.6347 3.61719 16.0691 3.61719C9.07256 3.61719 3.38037 9.30906 3.38037 16.3056C3.38037 23.3022 9.07256 28.9944 16.0688 28.9944C21.6985 28.9944 26.7144 25.2188 28.2663 19.8128C28.4554 19.1541 28.0747 18.4669 27.416 18.2778C26.7582 18.0884 26.0701 18.4694 25.881 19.1281C24.6326 23.4762 20.5979 26.5131 16.0688 26.5131C10.4407 26.5131 5.86193 21.9344 5.86193 16.3059C5.86193 10.6778 10.4407 6.09906 16.0688 6.09906C20.8191 6.09906 24.9032 9.32188 25.9997 13.9366C26.1579 14.6031 26.8266 15.0153 27.4938 14.8569C27.9682 14.7441 28.3088 14.3716 28.4116 13.9269C28.4588 13.8375 28.5079 13.7487 28.5326 13.6459L29.2826 10.5328C29.4435 9.86625 29.0335 9.19625 28.3672 9.03562Z" fill="#7680DD"/>
<path d="M16.1212 22.2631C13.5122 22.2631 11.2697 20.4934 10.6675 17.9594C10.5094 17.2928 9.84094 16.8809 9.17344 17.0391C8.50656 17.1975 8.09469 17.8663 8.25312 18.5331C9.12219 22.1906 12.3575 24.745 16.1212 24.745C20.5806 24.745 24.2084 21.1169 24.2084 16.6578C24.2084 12.1987 20.5803 8.57031 16.1212 8.57031C13.8694 8.57031 11.7719 9.51906 10.2772 11.0772C10.035 10.7406 9.63312 10.53 9.195 10.5581C8.51094 10.6006 7.99094 11.1897 8.03344 11.8737L8.20344 14.6062C8.215 14.7909 8.26969 14.9612 8.35187 15.1141C8.46781 15.5075 8.77375 15.8362 9.1975 15.9578C9.85531 16.1469 10.5434 15.7659 10.7325 15.1075C11.4181 12.7197 13.6341 11.0522 16.1212 11.0522C19.2122 11.0522 21.7269 13.5669 21.7269 16.6578C21.7266 19.7484 19.2119 22.2631 16.1212 22.2631Z" fill="#7680DD"/>
</svg>
