<svg width="33" height="33" viewBox="0 0 33 33" fill="none" xmlns="http://www.w3.org/2000/svg">
<g clip-path="url(#clip0_6339_2733)">
<path d="M29.7206 24.3834L23.1862 28.1553C23.1018 28.2021 22.9987 28.1428 22.9987 28.0459V25.774C22.9987 25.499 22.7737 25.274 22.4987 25.274H7.40806C6.07993 25.274 4.82681 24.7521 3.87681 23.8053C2.92994 22.8584 2.40806 21.6053 2.40806 20.274C2.40806 18.9428 2.92994 17.6928 3.87681 16.7428C4.82369 15.7959 6.07993 15.274 7.40806 15.274H25.4081C27.0737 15.274 28.4237 13.9115 28.4081 12.2428C28.3924 10.5928 27.0206 9.27402 25.3706 9.27402H9.15181C8.93931 9.27402 8.75181 9.40839 8.67993 9.60839C8.12993 11.1615 6.64868 12.274 4.90806 12.274C2.68931 12.274 0.892435 10.4678 0.90806 8.24589C0.923685 6.02714 2.76431 4.23652 4.98306 4.27402C6.69244 4.30527 8.14243 5.41152 8.68306 6.94277C8.75181 7.14277 8.94244 7.27402 9.15181 7.27402H25.4081C26.7362 7.27402 27.9893 7.79589 28.9393 8.74277C29.8862 9.68964 30.4081 10.9459 30.4081 12.274C30.4081 13.6021 29.8862 14.8553 28.9393 15.8053C27.9924 16.7521 26.7362 17.274 25.4081 17.274H7.40806C5.74243 17.274 4.39244 18.6365 4.40806 20.3053C4.42369 21.9553 5.79556 23.274 7.44556 23.274H22.4987C22.7737 23.274 22.9987 23.049 22.9987 22.774V20.5021C22.9987 20.4053 23.1018 20.3459 23.1862 20.3928L29.7206 24.1646C29.8049 24.2146 29.8049 24.3334 29.7206 24.3834Z" fill="#7680DD"/>
</g>
<defs>
<clipPath id="clip0_6339_2733">
<rect width="32" height="32" fill="white" transform="translate(0.907959 0.273438)"/>
</clipPath>
</defs>
</svg>
