<svg width="30" height="30" viewBox="0 0 30 30" fill="none" xmlns="http://www.w3.org/2000/svg">
<g clip-path="url(#clip0_6723_2658)">
<path d="M15.3319 0.333025L20.7619 5.76303C20.8276 5.82858 20.8724 5.91218 20.8905 6.00322C20.9087 6.09426 20.8994 6.18864 20.8639 6.2744C20.8283 6.36015 20.7681 6.43342 20.6909 6.48492C20.6136 6.53642 20.5228 6.56382 20.43 6.56365H16.4062V9.8449C16.4062 10.2179 16.2581 10.5755 15.9944 10.8393C15.7306 11.103 15.373 11.2512 15 11.2512C14.627 11.2512 14.2694 11.103 14.0056 10.8393C13.7419 10.5755 13.5938 10.2179 13.5938 9.8449V6.56365H9.57C9.47717 6.56382 9.38638 6.53642 9.30914 6.48492C9.2319 6.43342 9.17169 6.36015 9.13614 6.2744C9.10059 6.18864 9.09131 6.09426 9.10946 6.00322C9.12762 5.91218 9.1724 5.82858 9.23812 5.76303L14.6681 0.333025C14.7117 0.289372 14.7634 0.254738 14.8203 0.231107C14.8773 0.207476 14.9383 0.195313 15 0.195312C15.0617 0.195313 15.1227 0.207476 15.1797 0.231107C15.2366 0.254738 15.2883 0.289372 15.3319 0.333025ZM16.4062 19.2199C16.4062 18.8469 16.2581 18.4893 15.9944 18.2255C15.7306 17.9618 15.373 17.8137 15 17.8137C14.627 17.8137 14.2694 17.9618 14.0056 18.2255C13.7419 18.4893 13.5938 18.8469 13.5938 19.2199V22.5012H9.57C9.47717 22.501 9.38638 22.5284 9.30914 22.5799C9.2319 22.6314 9.17169 22.7046 9.13614 22.7904C9.10059 22.8762 9.09131 22.9705 9.10946 23.0616C9.12762 23.1526 9.1724 23.2362 9.23812 23.3018L14.6681 28.7318C14.7117 28.7754 14.7634 28.8101 14.8203 28.8337C14.8773 28.8573 14.9383 28.8695 15 28.8695C15.0617 28.8695 15.1227 28.8573 15.1797 28.8337C15.2366 28.8101 15.2883 28.7754 15.3319 28.7318L20.7619 23.3018C20.8276 23.2362 20.8724 23.1526 20.8905 23.0616C20.9087 22.9705 20.8994 22.8762 20.8639 22.7904C20.8283 22.7046 20.7681 22.6314 20.6909 22.5799C20.6136 22.5284 20.5228 22.501 20.43 22.5012H16.4062V19.2199ZM5.15625 13.1262C4.78329 13.1262 4.4256 13.2743 4.16188 13.538C3.89816 13.8018 3.75 14.1594 3.75 14.5324C3.75 14.9054 3.89816 15.263 4.16188 15.5268C4.4256 15.7905 4.78329 15.9387 5.15625 15.9387H24.8438C25.2167 15.9387 25.5744 15.7905 25.8381 15.5268C26.1018 15.263 26.25 14.9054 26.25 14.5324C26.25 14.1594 26.1018 13.8018 25.8381 13.538C25.5744 13.2743 25.2167 13.1262 24.8438 13.1262H5.15625Z" fill="#6B7280"/>
</g>
<defs>
<clipPath id="clip0_6723_2658">
<rect width="30" height="30" fill="white"/>
</clipPath>
</defs>
</svg>
