<svg width="33" height="33" viewBox="0 0 33 33" fill="none" xmlns="http://www.w3.org/2000/svg">
<path d="M15.6316 16.4756C15.6316 16.8815 15.7928 17.2707 16.0798 17.5577C16.3668 17.8447 16.756 18.0059 17.1619 18.0059C17.5678 18.0059 17.957 17.8447 18.244 17.5577C18.531 17.2707 18.6922 16.8815 18.6922 16.4756C18.6922 16.0698 18.531 15.6805 18.244 15.3935C17.957 15.1065 17.5678 14.9453 17.1619 14.9453C16.756 14.9453 16.3668 15.1065 16.0798 15.3935C15.7928 15.6805 15.6316 16.0698 15.6316 16.4756Z" fill="#7680DD"/>
<path d="M30.8099 24.2401C30.5471 22.4701 29.7431 20.3854 28.4843 18.2119C28.1815 17.6891 27.5124 17.511 26.9896 17.8135C26.4668 18.1163 26.2887 18.7854 26.5912 19.3082C28.7396 23.0179 29.3212 26.2216 28.0728 27.4697C27.3271 28.2154 25.8531 28.3213 23.9221 27.7679C22.0896 27.2426 19.9499 26.1426 17.7943 24.6282C19.1181 23.5591 20.429 22.3776 21.7049 21.1016C23.3503 19.4563 24.8393 17.7532 26.1309 16.0394C27.9946 13.5666 29.344 11.2029 30.0331 9.20412C30.4031 8.13131 30.5787 7.16912 30.5559 6.34412C30.5278 5.33944 30.2128 4.52944 29.6199 3.93631C29.0268 3.34319 28.2168 3.02819 27.2121 3.00006C26.3871 2.97694 25.4249 3.15287 24.3521 3.52287C22.3534 4.21194 19.9899 5.56131 17.5168 7.42506C15.8031 8.71662 14.0996 10.206 12.4546 11.851C11.1787 13.1269 9.99713 14.4379 8.92807 15.7616C7.41369 13.606 6.31369 11.4663 5.78838 9.63381C5.23494 7.70287 5.34088 6.22881 6.08682 5.48287C6.84869 4.721 8.19932 4.7685 9.19807 4.94256C10.8093 5.2235 12.7462 6.036 14.799 7.29287C15.3143 7.60819 15.9874 7.44631 16.3028 6.931C16.6181 6.41569 16.4562 5.74256 15.9409 5.42725C13.6553 4.02819 11.4537 3.11537 9.57338 2.78756C6.83869 2.311 5.3265 3.14912 4.53963 3.936C3.5965 4.87912 2.68244 6.73756 3.68525 10.2363C4.33182 12.4922 5.65869 15.0169 7.53838 17.5772C5.92775 19.8085 4.75369 21.9297 4.1265 23.7488C3.7565 24.8216 3.58088 25.7838 3.60369 26.6088C3.63182 27.6135 3.94682 28.4235 4.53963 29.0166C5.13275 29.6097 5.94275 29.9247 6.94744 29.9529C6.99525 29.9541 7.04338 29.9547 7.09213 29.9547C7.884 29.9547 8.79682 29.7785 9.80744 29.4301C11.6265 28.8029 13.7478 27.6288 15.9784 26.0179C18.5387 27.8976 21.0634 29.2244 23.3193 29.871C24.3987 30.1804 25.3215 30.3072 26.1096 30.3072C27.8771 30.3072 28.9674 29.6688 29.6193 29.0166C30.3743 28.2622 31.1934 26.8213 30.8099 24.2401ZM14.0015 13.3982C15.5749 11.8247 17.2009 10.4029 18.8337 9.17225C21.1259 7.44475 23.2806 6.20662 25.0653 5.59131C26.5162 5.091 27.6406 5.05069 28.0734 5.4835C28.5059 5.916 28.4656 7.04037 27.9656 8.49131C27.3503 10.276 26.1121 12.4307 24.3846 14.7229C23.154 16.3557 21.7321 17.9816 20.1587 19.5551C18.7996 20.9141 17.4012 22.1604 15.9931 23.2676L15.9696 23.2488C15.9453 23.2291 15.9209 23.2091 15.8965 23.1891C15.8487 23.1504 15.8009 23.1113 15.7534 23.0719C15.7265 23.0497 15.6993 23.0276 15.6724 23.0051C15.6262 22.9669 15.5803 22.9285 15.534 22.8901C15.5078 22.8682 15.4815 22.8463 15.4553 22.8241C15.4043 22.7813 15.3534 22.7382 15.3024 22.6951C15.2821 22.6776 15.2615 22.6604 15.2412 22.6429C15.1706 22.5826 15.1003 22.5222 15.0299 22.4613C15.0143 22.4479 14.9987 22.4341 14.9831 22.4207C14.9278 22.3726 14.8728 22.3244 14.8174 22.276C14.7924 22.2541 14.7678 22.2322 14.7428 22.2101C14.6965 22.1691 14.6503 22.1282 14.604 22.0869L14.5249 22.0163C14.4787 21.9747 14.4321 21.9329 14.3859 21.891C14.3615 21.8688 14.3371 21.8469 14.3128 21.8247C14.2565 21.7735 14.2003 21.7219 14.1443 21.6701C14.1306 21.6576 14.1171 21.6451 14.1034 21.6326C14.034 21.5685 13.9646 21.5038 13.8956 21.4388C13.8762 21.4207 13.8568 21.4022 13.8374 21.3841C13.7874 21.3369 13.7374 21.2897 13.6874 21.2422C13.6628 21.2185 13.6378 21.1951 13.6131 21.1713C13.5678 21.1279 13.5228 21.0844 13.4774 21.041C13.4524 21.0166 13.4274 20.9926 13.4021 20.9682C13.3549 20.9222 13.3078 20.8763 13.2606 20.8301C13.239 20.8088 13.2171 20.7876 13.1956 20.7663C13.1274 20.6991 13.0593 20.6316 12.9918 20.5641C12.924 20.4963 12.8568 20.4285 12.7896 20.3604C12.7684 20.3388 12.7471 20.3169 12.7259 20.2954C12.6796 20.2485 12.6337 20.2013 12.5878 20.1541C12.5634 20.1291 12.539 20.1041 12.5149 20.0788C12.4715 20.0338 12.4281 19.9888 12.3849 19.9435C12.3612 19.9185 12.3374 19.8938 12.3137 19.8688C12.2665 19.8194 12.2196 19.7697 12.1728 19.7201C12.154 19.7004 12.1353 19.6807 12.1168 19.6607C12.0521 19.5919 11.9878 19.5229 11.924 19.4538C11.9106 19.4394 11.8974 19.4247 11.884 19.4104C11.8331 19.3554 11.7825 19.3002 11.7321 19.2447C11.7093 19.2197 11.6868 19.1947 11.6643 19.1701C11.6231 19.1244 11.5818 19.0791 11.5409 19.0335C11.5165 19.0066 11.4924 18.9794 11.4684 18.9522C11.4281 18.9069 11.3878 18.8619 11.3478 18.8166C11.3249 18.7907 11.3018 18.7651 11.2793 18.7391C11.2324 18.686 11.1862 18.6326 11.1396 18.5794L11.094 18.5272C11.0334 18.4576 10.9734 18.3876 10.9137 18.3172C10.8956 18.296 10.8774 18.2747 10.8596 18.2535C10.8171 18.2035 10.7749 18.1535 10.7328 18.1035L10.6653 18.0229C10.6274 17.9776 10.5896 17.9319 10.5518 17.8866C10.529 17.8591 10.5065 17.8316 10.4837 17.8041C10.4446 17.7569 10.4062 17.7094 10.3674 17.6619C10.3474 17.6372 10.3271 17.6129 10.3074 17.5882L10.2887 17.5647C11.3962 16.1557 12.6424 14.7572 14.0015 13.3982ZM9.09463 27.3619C7.64369 27.8622 6.51932 27.9026 6.0865 27.4697C5.654 27.0372 5.69432 25.9126 6.19432 24.4619C6.70588 22.9776 7.64869 21.2376 8.94525 19.3751C8.95557 19.3876 8.96619 19.3997 8.9765 19.4122C9.06307 19.516 9.15025 19.6197 9.23838 19.7229C9.24119 19.7263 9.244 19.7294 9.24682 19.7329C9.33244 19.8332 9.419 19.9335 9.50619 20.0335C9.53057 20.0616 9.55494 20.0894 9.57963 20.1172C9.65619 20.2047 9.73338 20.2919 9.81088 20.3791C9.82588 20.396 9.84088 20.4132 9.85619 20.4301C9.94713 20.5319 10.039 20.6332 10.1315 20.7344C10.1543 20.7594 10.1771 20.7841 10.1999 20.8091C10.2753 20.891 10.3509 20.9729 10.4268 21.0544C10.4493 21.0788 10.4721 21.1032 10.4946 21.1272C10.5887 21.2276 10.6831 21.3276 10.7784 21.4272C10.7956 21.4451 10.8128 21.4632 10.8299 21.481C10.9106 21.5651 10.9915 21.6488 11.0731 21.7322L11.1518 21.8129C11.3466 22.0119 11.5436 22.2088 11.7428 22.4035L11.8249 22.4838C11.9074 22.5641 11.9899 22.6441 12.0728 22.7235C12.0918 22.7419 12.1109 22.7604 12.1299 22.7785C12.229 22.8732 12.3284 22.9669 12.4281 23.0604C12.4534 23.0841 12.4787 23.1076 12.504 23.131C12.5843 23.206 12.6649 23.2804 12.7456 23.3544C12.7715 23.3782 12.7971 23.4019 12.8231 23.4254C12.9237 23.5172 13.0246 23.6085 13.1259 23.6991C13.1437 23.7151 13.1615 23.7307 13.1793 23.7466C13.2656 23.8235 13.3521 23.8997 13.4387 23.9757C13.4668 24.0004 13.4953 24.0251 13.5237 24.0497C13.6234 24.1366 13.7234 24.2229 13.8234 24.3085C13.8268 24.3113 13.8303 24.3144 13.8337 24.3172C13.9371 24.4054 14.0409 24.4926 14.1446 24.5794C14.1568 24.5897 14.169 24.6001 14.1815 24.6104C12.3193 25.9076 10.579 26.8504 9.09463 27.3619Z" fill="#7680DD"/>
</svg>
