<svg width="65" height="65" viewBox="0 0 65 65" fill="none" xmlns="http://www.w3.org/2000/svg">
<g clip-path="url(#clip0_6326_2324)">
<path d="M26.8455 51.5234C26.8455 52.8661 27.3788 54.1538 28.3282 55.1032C29.2776 56.0526 30.5653 56.5859 31.908 56.5859C33.2506 56.5859 34.5383 56.0526 35.4877 55.1032C36.4371 54.1538 36.9705 52.8661 36.9705 51.5234C36.9705 50.1808 36.4371 48.8931 35.4877 47.9437C34.5383 46.9943 33.2506 46.4609 31.908 46.4609C30.5653 46.4609 29.2776 46.9943 28.3282 47.9437C27.3788 48.8931 26.8455 50.1808 26.8455 51.5234Z" fill="#E0EBFE"/>
<path d="M13.3455 26.2109C13.3455 27.5536 13.8788 28.8413 14.8282 29.7907C15.7776 30.7401 17.0653 31.2734 18.408 31.2734C19.7506 31.2734 21.0383 30.7401 21.9877 29.7907C22.9371 28.8413 23.4705 27.5536 23.4705 26.2109C23.4705 24.8683 22.9371 23.5806 21.9877 22.6312C21.0383 21.6818 19.7506 21.1484 18.408 21.1484C17.0653 21.1484 15.7776 21.6818 14.8282 22.6312C13.8788 23.5806 13.3455 24.8683 13.3455 26.2109Z" fill="#E0EBFE"/>
<path d="M36.9705 14.3984H26.8455L31.908 5.96094L36.9705 14.3984ZM42.033 17.7734H48.783V24.5234H42.033V17.7734Z" fill="#E0EBFE"/>
<path d="M25.158 26.2087C25.158 22.486 22.1306 19.4587 18.408 19.4587C14.6853 19.4587 11.658 22.486 11.658 26.2087C11.658 29.3255 13.7926 31.9293 16.6681 32.7022V33.6235C16.6681 35.6907 17.9051 37.5301 19.8187 38.3114L30.2205 42.5521V45.0108C27.318 45.7651 25.158 48.3858 25.158 51.5212C25.158 55.2438 28.1853 58.2712 31.908 58.2712C35.6306 58.2712 38.658 55.2438 38.658 51.5212C38.658 48.3858 36.498 45.7668 33.5955 45.0108V39.1552L43.9449 34.9364C44.8779 34.5586 45.6764 33.9103 46.2379 33.0748C46.7993 32.2394 47.098 31.2551 47.0955 30.2485V26.2087H48.783C49.2305 26.2087 49.6597 26.0309 49.9762 25.7144C50.2927 25.3979 50.4705 24.9687 50.4705 24.5212V17.7712C50.4705 17.3236 50.2927 16.8944 49.9762 16.5779C49.6597 16.2615 49.2305 16.0837 48.783 16.0837H42.033C41.5854 16.0837 41.1562 16.2615 40.8397 16.5779C40.5232 16.8944 40.3455 17.3236 40.3455 17.7712V24.5212C40.3455 24.9687 40.5232 25.3979 40.8397 25.7144C41.1562 26.0309 41.5854 26.2087 42.033 26.2087H43.7205V30.2485C43.7211 30.5842 43.6213 30.9123 43.4339 31.1908C43.2466 31.4692 42.9803 31.6853 42.6691 31.8112L33.5955 35.5119V16.0837H37.0042C37.3295 16.0838 37.6479 15.9898 37.921 15.8132C38.1942 15.6366 38.4104 15.3847 38.5438 15.088C38.6772 14.7914 38.7219 14.4624 38.6727 14.1409C38.6235 13.8194 38.4824 13.5189 38.2665 13.2757L33.3558 5.0913C32.745 4.07373 31.071 4.07373 30.4618 5.0913L25.3993 13.5288C25.2459 13.7848 25.1631 14.0769 25.1594 14.3753C25.1557 14.6737 25.2312 14.9677 25.3782 15.2274C25.5252 15.4872 25.7385 15.7032 25.9963 15.8536C26.254 16.0041 26.547 16.0834 26.8455 16.0837H30.2205V38.9071L21.0945 35.1862C20.7834 35.0603 20.517 34.8442 20.3297 34.5657C20.1423 34.2873 20.0425 33.9592 20.0431 33.6235V32.7359C22.9726 32.0002 25.158 29.3643 25.158 26.2087ZM43.7205 19.4587H47.0955V22.8337H43.7205V19.4587ZM29.8256 12.7087L31.908 9.23917L33.9903 12.7087H29.8256ZM31.908 48.1462C33.7693 48.1462 35.283 49.6599 35.283 51.5212C35.283 53.3825 33.7693 54.8962 31.908 54.8962C30.0466 54.8962 28.533 53.3825 28.533 51.5212C28.533 49.6599 30.0466 48.1462 31.908 48.1462ZM18.408 29.5837C16.5466 29.5837 15.033 28.07 15.033 26.2087C15.033 24.3474 16.5466 22.8337 18.408 22.8337C20.2693 22.8337 21.783 24.3474 21.783 26.2087C21.783 28.07 20.2693 29.5837 18.408 29.5837Z" fill="#5465CF"/>
</g>
<defs>
<clipPath id="clip0_6326_2324">
<rect width="54" height="54" fill="white" transform="translate(4.90796 4.27344)"/>
</clipPath>
</defs>
</svg>
