<svg width="33" height="33" viewBox="0 0 33 33" fill="none" xmlns="http://www.w3.org/2000/svg">
<path d="M29.5832 16.8187C29.7717 16.8225 29.951 16.9009 30.0819 17.0365C30.2128 17.1722 30.2847 17.3542 30.2819 17.5427L30.2712 17.9467C30.1802 20.2773 29.4915 22.5453 28.2713 24.5331C27.051 26.5208 25.3403 28.1614 23.3032 29.2973C23.2216 29.3426 23.1319 29.3712 23.0392 29.3816C22.9465 29.3919 22.8527 29.3838 22.7631 29.3576C22.6736 29.3314 22.5902 29.2878 22.5176 29.2291C22.4451 29.1705 22.3849 29.0981 22.3405 29.016C22.2496 28.8496 22.228 28.654 22.2805 28.4718C22.3329 28.2895 22.4551 28.1353 22.6205 28.0427C24.4432 27.0263 25.974 25.5584 27.0658 23.7799C28.1576 22.0013 28.7738 19.972 28.8552 17.8867L28.8645 17.5253C28.8663 17.3364 28.943 17.1558 29.0777 17.0234C29.2124 16.8909 29.3942 16.8173 29.5832 16.8187ZM3.05253 16.8187C3.14614 16.8178 3.23901 16.8354 3.32582 16.8704C3.41263 16.9055 3.49167 16.9573 3.55842 17.023C3.62517 17.0886 3.67833 17.1668 3.71484 17.253C3.75135 17.3392 3.7705 17.4317 3.7712 17.5253L3.78053 17.8853C3.86186 19.971 4.47816 22.0007 5.57022 23.7795C6.66228 25.5583 8.19342 27.0264 10.0165 28.0427C10.1817 28.1356 10.3037 28.2899 10.3558 28.4721C10.408 28.6543 10.3862 28.8498 10.2952 29.016C10.2507 29.0979 10.1904 29.1703 10.1179 29.2288C10.0453 29.2873 9.96179 29.3308 9.87227 29.3568C9.78275 29.3829 9.68896 29.3909 9.59631 29.3805C9.50367 29.37 9.41401 29.3413 9.33253 29.296C7.29566 28.1602 5.58499 26.5198 4.36477 24.5323C3.14456 22.5448 2.45576 20.2771 2.36453 17.9467L2.35386 17.5427C2.35065 17.3541 2.42242 17.1719 2.55342 17.0361C2.68441 16.9004 2.86392 16.8222 3.05253 16.8187ZM16.3179 6.46134C19.1468 6.46134 21.8599 7.58515 23.8603 9.58554C25.8607 11.5859 26.9845 14.299 26.9845 17.128C26.9845 19.957 25.8607 22.6701 23.8603 24.6705C21.8599 26.6709 19.1468 27.7947 16.3179 27.7947C13.4889 27.7947 10.7758 26.6709 8.77539 24.6705C6.775 22.6701 5.6512 19.957 5.6512 17.128C5.6512 14.299 6.775 11.5859 8.77539 9.58554C10.7758 7.58515 13.4889 6.46134 16.3179 6.46134ZM16.3179 8.19201C13.9479 8.19201 11.675 9.13348 9.99916 10.8093C8.32333 12.4851 7.38186 14.758 7.38186 17.128C7.38186 19.498 8.32333 21.7709 9.99916 23.4467C11.675 25.1225 13.9479 26.064 16.3179 26.064C18.6878 26.064 20.9607 25.1225 22.6366 23.4467C24.3124 21.7709 25.2539 19.498 25.2539 17.128C25.2539 14.758 24.3124 12.4851 22.6366 10.8093C20.9607 9.13348 18.6878 8.19201 16.3179 8.19201ZM15.1539 12.5853L18.7179 21.3693H16.9312L16.1405 19.3053H12.6939L11.9379 21.3693H10.2712L13.7019 12.5853H15.1552H15.1539ZM21.0512 12.5853V21.3693H19.3845V12.5853H21.0512ZM14.3792 14.7L13.2152 17.8773H15.5939L14.3792 14.7ZM16.9845 3.21601C19.2165 3.30934 21.3512 3.93734 23.2419 5.03334C23.3291 5.07755 23.4064 5.13909 23.469 5.21421C23.5317 5.28933 23.5783 5.37644 23.6061 5.47021C23.6339 5.56399 23.6422 5.66244 23.6307 5.75956C23.6191 5.85667 23.5878 5.9504 23.5387 6.035C23.4896 6.1196 23.4238 6.19329 23.3453 6.25157C23.2667 6.30985 23.1771 6.35148 23.0819 6.37392C22.9867 6.39636 22.888 6.39913 22.7917 6.38206C22.6954 6.365 22.6036 6.32846 22.5219 6.27468C20.8156 5.28665 18.8946 4.72881 16.9245 4.64934C14.5747 4.54685 12.2457 5.12911 10.2205 6.32534C10.0566 6.42224 9.86094 6.45005 9.67653 6.40267C9.49212 6.35528 9.33409 6.23658 9.2372 6.07268C9.1403 5.90877 9.11249 5.71309 9.15987 5.52868C9.20726 5.34427 9.32596 5.18624 9.48986 5.08934C11.754 3.75229 14.3576 3.10149 16.9845 3.21601Z" fill="#7680DD"/>
</svg>
