<svg width="46" height="46" viewBox="0 0 46 46" fill="none" xmlns="http://www.w3.org/2000/svg">
<g clip-path="url(#clip0_6339_2895)">
<path d="M27.9258 4.3125C28.3071 4.3125 28.6727 4.46395 28.9423 4.73353C29.2119 5.00312 29.3633 5.36875 29.3633 5.75C29.3633 6.13125 29.2119 6.49688 28.9423 6.76647C28.6727 7.03605 28.3071 7.1875 27.9258 7.1875H11.5709C10.4084 7.1875 9.29342 7.64932 8.47137 8.47137C7.64932 9.29342 7.1875 10.4084 7.1875 11.5709V34.4291C7.1875 35.0047 7.30088 35.5747 7.52117 36.1065C7.74146 36.6384 8.06433 37.1216 8.47137 37.5286C8.87841 37.9357 9.36163 38.2585 9.89346 38.4788C10.4253 38.6991 10.9953 38.8125 11.5709 38.8125H34.3582C35.5174 38.8125 36.6295 38.3533 37.451 37.5354C38.2725 36.7175 38.7365 35.6075 38.7416 34.4483L38.8125 18.4144C38.8142 18.0331 38.9672 17.6681 39.2379 17.3997C39.5087 17.1313 39.875 16.9815 40.2562 16.9831C40.6375 16.9848 41.0025 17.1378 41.2709 17.4085C41.5393 17.6793 41.6892 18.0456 41.6875 18.4268L41.6166 34.4607C41.6082 36.3803 40.8398 38.2184 39.4795 39.5728C38.1192 40.9271 36.2778 41.6875 34.3582 41.6875H11.5709C9.64586 41.6875 7.79966 40.9228 6.43844 39.5616C5.07722 38.2003 4.3125 36.3541 4.3125 34.4291V11.5709C4.3125 9.64586 5.07722 7.79966 6.43844 6.43844C7.79966 5.07722 9.64586 4.3125 11.5709 4.3125H27.9258Z" fill="white"/>
<path d="M33.8379 5.10221L20.4643 18.401C20.1956 18.6681 19.9824 18.9857 19.8368 19.3355C19.6913 19.6854 19.6163 20.0605 19.6162 20.4394V22.8582C19.616 23.648 19.9252 24.4065 20.4774 24.9711C21.0297 25.5357 21.7811 25.8616 22.5708 25.8789L24.8612 25.9287C25.2395 25.9371 25.6157 25.8707 25.9683 25.7334C26.3209 25.5961 26.6429 25.3905 26.9158 25.1285L40.5568 12.0377C41.4834 11.148 42.0192 9.92703 42.0465 8.64272C42.0738 7.35841 41.5904 6.11574 40.7024 5.18751L40.6373 5.12042C39.7382 4.21653 38.5169 3.70674 37.242 3.70314C35.9671 3.69955 34.743 4.20245 33.8388 5.10126L33.8379 5.10221ZM38.6238 7.17509C38.9853 7.553 39.1821 8.05891 39.1709 8.58175C39.1598 9.1046 38.9416 9.60167 38.5644 9.96384L24.9263 23.0547L22.635 23.0039C22.5968 23.0031 22.5605 22.9874 22.5338 22.9602C22.5071 22.933 22.4922 22.8964 22.4922 22.8582V20.4394L35.8648 7.14059C36.2078 6.79959 36.6662 6.59959 37.1495 6.58007C37.6328 6.56056 38.1058 6.72294 38.4753 7.03517L38.6238 7.17509Z" fill="white"/>
<path d="M34.6946 6.95312L38.9477 11.233L36.9084 13.259L32.6553 8.98L34.6946 6.95312Z" fill="white"/>
</g>
<defs>
<clipPath id="clip0_6339_2895">
<rect width="46" height="46" fill="white"/>
</clipPath>
</defs>
</svg>
