<svg width="46" height="46" viewBox="0 0 46 46" fill="none" xmlns="http://www.w3.org/2000/svg">
<g clip-path="url(#clip0_6339_2889)">
<path d="M23 0C10.2615 0 0 10.2615 0 23C0 35.7385 10.2615 46 23 46C35.7385 46 46 35.7385 46 23C46 10.2615 35.7385 0 23 0ZM23 42.4615C12.2077 42.4615 3.53846 33.7923 3.53846 23C3.53846 12.2077 12.2077 3.53846 23 3.53846C33.7923 3.53846 42.4615 12.2077 42.4615 23C42.4615 33.7923 33.7923 42.4615 23 42.4615ZM31.8462 24.7692C32.7308 24.7692 33.6154 24.0615 33.6154 23C33.6154 21.9385 32.9077 21.2308 31.8462 21.2308H26.7154L31.4923 13.2692C32.0231 12.3846 31.8462 11.3231 30.9615 10.7923C30.0769 10.2615 29.0154 10.6154 28.4846 11.5L23.1769 20.3462C23 20.5231 23 20.8769 23 21.2308C23 21.0538 23 21.0538 23 20.8769C23 20.7 23 20.5231 22.8231 20.3462L17.5154 11.5C16.9846 10.6154 15.9231 10.2615 15.0385 10.7923C14.1538 11.3231 13.9769 12.3846 14.3308 13.2692L19.1077 21.2308H14.1538C13.2692 21.2308 12.3846 21.9385 12.3846 23C12.3846 24.0615 13.0923 24.7692 14.1538 24.7692H21.2308V26.5385H14.1538C13.2692 26.5385 12.3846 27.2462 12.3846 28.3077C12.3846 29.3692 13.0923 30.0769 14.1538 30.0769H21.2308V35.3846C21.2308 36.2692 21.9385 37.1538 23 37.1538C24.0615 37.1538 24.7692 36.4462 24.7692 35.3846V30.0769H31.8462C32.7308 30.0769 33.6154 29.3692 33.6154 28.3077C33.6154 27.2462 32.9077 26.5385 31.8462 26.5385H24.7692V24.7692H31.8462Z" fill="white"/>
</g>
<defs>
<clipPath id="clip0_6339_2889">
<rect width="46" height="46" fill="white"/>
</clipPath>
</defs>
</svg>
