<svg width="22" height="22" viewBox="0 0 22 22" fill="none" xmlns="http://www.w3.org/2000/svg">
<path fill-rule="evenodd" clip-rule="evenodd" d="M10.9473 3.74953C6.89886 3.74953 3.61697 7.03143 3.61697 11.0799C3.61697 15.1283 6.89886 18.4102 10.9473 18.4102C14.9957 18.4102 18.2776 15.1283 18.2776 11.0799C18.2776 7.03143 14.9957 3.74953 10.9473 3.74953ZM2.28418 11.0799C2.28418 6.29535 6.16279 2.41675 10.9473 2.41675C15.7318 2.41675 19.6104 6.29535 19.6104 11.0799C19.6104 15.8644 15.7318 19.743 10.9473 19.743C6.16279 19.743 2.28418 15.8644 2.28418 11.0799Z" fill="#141414" fill-opacity="0.7"/>
<path fill-rule="evenodd" clip-rule="evenodd" d="M10.9467 5.74866C11.3147 5.74866 11.6131 6.04701 11.6131 6.41505V10.4134H15.6114C15.9795 10.4134 16.2778 10.7118 16.2778 11.0798C16.2778 11.4478 15.9795 11.7462 15.6114 11.7462H10.9467C10.5786 11.7462 10.2803 11.4478 10.2803 11.0798V6.41505C10.2803 6.04701 10.5786 5.74866 10.9467 5.74866Z" fill="#141414" fill-opacity="0.7"/>
</svg>
