<svg width="32" height="32" viewBox="0 0 32 32" fill="none" xmlns="http://www.w3.org/2000/svg">
<path id="Vector" d="M0 16.0494C0 22.9969 4.45248 28.9038 10.6581 31.0724C11.4942 31.2847 11.3668 30.6875 11.3668 30.284V27.5276C6.54136 28.093 6.34893 24.8999 6.02245 24.3678C5.36686 23.249 3.8221 22.9637 4.28261 22.4315C5.38146 21.8661 6.50154 22.5748 7.79681 24.4925C8.73508 25.882 10.5652 25.6471 11.4955 25.4149C11.6951 24.592 12.1229 23.8422 12.7297 23.2517C7.73178 22.3572 5.64688 19.3061 5.64688 15.6765C5.64688 13.9167 6.22816 12.299 7.3655 10.9931C6.64089 8.8405 7.43318 6.99979 7.53802 6.7264C9.60567 6.54061 11.7503 8.20614 11.9175 8.3362C13.092 8.01902 14.4311 7.8518 15.9294 7.8518C17.4357 7.8518 18.7827 8.02432 19.9638 8.34549C20.362 8.04025 22.3553 6.61095 24.2769 6.78612C24.3791 7.05951 25.1528 8.85775 24.472 10.9798C25.6253 12.2883 26.2119 13.9207 26.2119 15.6858C26.2119 19.3207 24.115 22.3744 19.1025 23.2583C19.5318 23.6812 19.8726 24.1853 20.105 24.7412C20.3374 25.2972 20.4568 25.8939 20.4562 26.4965V30.4977C20.484 30.8175 20.4562 31.1347 20.991 31.1347C27.2868 29.0127 31.8203 23.0619 31.8203 16.0521C31.8203 7.26123 24.695 0.14258 15.9121 0.14258C7.11865 0.138598 0 7.25858 0 16.0494Z" fill="#42424A"/>
</svg>
