<svg width="93" height="93" viewBox="0 0 93 93" fill="none" xmlns="http://www.w3.org/2000/svg">
<g id="Frame">
<path id="Vector" d="M46.8672 6.25C24.6398 6.25 6.61719 24.2727 6.61719 46.5C6.61719 68.7273 24.6398 86.75 46.8672 86.75C69.0945 86.75 87.1172 68.7273 87.1172 46.5C87.1172 24.2727 69.0945 6.25 46.8672 6.25ZM38.7184 49.1773L38.7094 49.3121C38.5746 51.1449 38.1434 53.2563 37.5504 55.3855L39.7066 53.7594L46.0855 61.0098C46.9121 63.9746 45.7891 66.6789 45.7891 66.6789L37.191 56.6254V56.6164C36.3914 59.2219 35.3852 61.7645 34.1992 64.2262C32.1688 68.332 29.2398 69.1406 26.1582 69.4102C23.0676 69.6797 24.0648 68.934 24.0648 68.934C30.1742 63.9477 31.0727 61.0457 32.7617 57.8742C33.8309 55.8707 34.5945 52.0973 35.0348 49.1773H24.5949C24.5949 49.1773 25.0262 46.3742 26.3199 45.4309H35.448C35.502 44.0563 35.3312 36.1949 35.2684 33.6254H30.8301C30.0035 37.6684 27.1465 38.7195 26.5086 39.025C25.8797 39.3305 24.3883 39.6629 24.6129 39.025C24.8465 38.3871 27.0387 34.8742 28.4941 29.0793C29.9586 23.2754 34.2352 23.509 34.2352 23.509C33.0852 25.5305 32.2227 30.1215 32.2227 30.1215H46.5707C47.4781 30.1215 47.523 33.6254 47.523 33.6254H39.3652C39.3023 35.6648 39.1137 41.1543 38.916 45.4309H47.4961C47.4961 45.4309 48.5922 46.8145 48.5922 49.1773H38.7184ZM69.8492 64.1812H61.9789L55.7348 68.368L54.2613 64.1812H50.6586V29.3848H69.8492V64.1812ZM56.9477 63.8668L62.0508 60.4438H66.1477H66.1387V33.266H54.477V60.4438H55.7437L56.9477 63.8668Z" fill="#7680DD"/>
</g>
</svg>
