<svg width="100" height="106" viewBox="0 0 100 106" fill="none" xmlns="http://www.w3.org/2000/svg">
<path d="M56.5653 2.10637L93.5239 21.773C95.2721 22.7035 96.7345 24.0917 97.7547 25.7891C98.7748 27.4865 99.3144 29.4293 99.3158 31.4097V74.2338C99.3158 78.2852 97.0787 82.0022 93.5042 83.8902L56.5407 103.473C52.5435 105.592 47.7547 105.592 43.7574 103.473L6.79392 83.9C5.03912 82.9706 3.57081 81.5805 2.54687 79.8791C1.52292 78.1777 0.982055 76.2294 0.982422 74.2437V31.4195C0.982422 27.378 3.20967 23.6659 6.77425 21.7681L43.7328 2.10637C45.7082 1.05523 47.9115 0.505493 50.1491 0.505493C52.3867 0.505493 54.59 1.05523 56.5653 2.10637ZM45.7536 10.9613L44.9276 11.3694L15.3784 27.4469C14.1169 28.1342 13.0442 29.1218 12.2553 30.3224C11.4663 31.523 10.9854 32.8995 10.8551 34.3302L10.8158 35.1267V70.5168C10.8158 73.4767 12.3104 76.2202 14.7638 77.823L15.3932 78.2016L44.9423 94.2102C46.4043 95.0027 48.028 95.451 49.6894 95.5208C51.3509 95.5907 53.0065 95.2803 54.5298 94.6134L55.3509 94.2102L84.905 78.2016C87.5108 76.7905 89.2071 74.1699 89.4529 71.2494L89.4824 70.5119V35.1267C89.4824 32.1914 88.0074 29.4725 85.5982 27.8599L84.9197 27.4469L55.3706 11.3694C53.9052 10.5715 52.2765 10.1198 50.6094 10.0491C48.9424 9.97834 47.2813 10.2904 45.7536 10.9613ZM70.7794 36.0019C71.3388 35.6739 71.9575 35.4599 72.5999 35.372C73.2424 35.2842 73.8958 35.3243 74.5227 35.49C75.1496 35.6558 75.7375 35.9439 76.2525 36.3377C76.7676 36.7316 77.1997 37.2235 77.5239 37.785C77.8481 38.3465 78.0581 38.9666 78.1416 39.6096C78.2252 40.2526 78.1808 40.9058 78.0109 41.5316C77.841 42.1573 77.549 42.7433 77.1517 43.2558C76.7545 43.7682 76.2598 44.197 75.6961 44.5175L55.0658 56.4257V77.3608C55.0658 78.6648 54.5477 79.9154 53.6257 80.8374C52.7036 81.7595 51.4531 82.2775 50.1491 82.2775C48.8451 82.2775 47.5945 81.7595 46.6725 80.8374C45.7504 79.9154 45.2324 78.6648 45.2324 77.3608V56.4306L24.6021 44.5175C23.482 43.8609 22.6672 42.7879 22.3353 41.5327C22.0035 40.2775 22.1816 38.942 22.8307 37.8176C23.4799 36.6932 24.5475 35.8713 25.8005 35.5311C27.0534 35.1909 28.3901 35.3601 29.5188 36.0019L50.0704 47.8608H50.2179L70.7794 36.0019Z" fill="url(#paint0_linear_825_536)"/>
<defs>
<linearGradient id="paint0_linear_825_536" x1="0.982422" y1="52.784" x2="105.634" y2="52.784" gradientUnits="userSpaceOnUse">
<stop stop-color="#767EE5"/>
<stop offset="1" stop-color="#9966CC"/>
</linearGradient>
</defs>
</svg>
