<svg width="96" height="95" viewBox="0 0 96 95" fill="none" xmlns="http://www.w3.org/2000/svg">
<path d="M95.2502 31.9676C95.2502 29.7897 93.4906 28.0301 91.3127 28.0301L14.1992 28.0301L34.6742 7.5551C36.2123 6.01701 36.2123 3.51916 34.6742 1.98108C33.1361 0.442991 30.6383 0.44299 29.1002 1.98108L1.90684 29.1744C1.85762 29.2237 1.8207 29.2729 1.77148 29.3098C1.74687 29.3344 1.73457 29.359 1.70996 29.3836C1.68535 29.4082 1.66074 29.4328 1.64844 29.4574C1.62382 29.482 1.59922 29.519 1.57461 29.5436C1.56231 29.5682 1.5377 29.5805 1.52539 29.6051C1.50078 29.642 1.47617 29.6789 1.45157 29.7035C1.43926 29.7158 1.42695 29.7404 1.41465 29.7528L1.34082 29.8635C1.32851 29.8758 1.31621 29.9004 1.30391 29.9127C1.2793 29.9496 1.26699 29.9865 1.24238 30.0235C1.23008 30.0481 1.21777 30.0604 1.20547 30.085C1.19317 30.1219 1.16855 30.1588 1.15625 30.1834L1.11934 30.2572C1.10703 30.2942 1.09473 30.3188 1.08243 30.3557C1.07012 30.3803 1.05781 30.4172 1.04551 30.4418C1.03321 30.4664 1.0209 30.5033 1.00859 30.5279C0.996283 30.5649 0.983985 30.5895 0.971678 30.6264C0.959372 30.651 0.959372 30.6756 0.947066 30.7002L0.910155 30.811C0.897849 30.8356 0.897849 30.8602 0.885543 30.8725C0.873236 30.9094 0.860938 30.9463 0.848631 30.9955C0.848631 31.0201 0.836333 31.0324 0.836333 31.057C0.824027 31.094 0.81172 31.1432 0.81172 31.1801C0.81172 31.2047 0.799414 31.2293 0.799414 31.2416C0.787116 31.2785 0.787108 31.3278 0.774809 31.3647C0.774809 31.3893 0.762496 31.4139 0.762496 31.4385C0.762496 31.4754 0.750197 31.5123 0.750197 31.5492C0.750197 31.5861 0.750197 31.6108 0.737891 31.6477C0.737891 31.6723 0.737891 31.7092 0.725585 31.7338L0.725585 32.1276C0.725585 32.1645 0.725592 32.1891 0.737891 32.2137C0.737891 32.2506 0.737891 32.2752 0.750197 32.3121C0.750197 32.349 0.762496 32.386 0.762496 32.4229C0.762496 32.4475 0.762503 32.4721 0.774809 32.4967C0.774809 32.5336 0.787116 32.5828 0.799414 32.6197C0.799414 32.6444 0.81172 32.669 0.81172 32.6813C0.824027 32.7182 0.824027 32.7674 0.836333 32.8043C0.836333 32.8289 0.848631 32.8412 0.848631 32.8658C0.860938 32.9028 0.873236 32.9397 0.885542 32.9889C0.897849 33.0135 0.897849 33.0381 0.910155 33.0504L0.947066 33.1612C0.959372 33.1858 0.959372 33.2104 0.971678 33.235C0.983984 33.2719 0.996283 33.2965 1.00859 33.3334C1.0209 33.358 1.03321 33.3949 1.04551 33.4195C1.05781 33.4442 1.07012 33.4811 1.08243 33.5057C1.09473 33.5426 1.10703 33.5672 1.11934 33.6041L1.15625 33.6779C1.16855 33.7149 1.19317 33.7518 1.20547 33.7764C1.21777 33.801 1.23008 33.8133 1.24238 33.8379C1.26699 33.8748 1.2793 33.9117 1.30391 33.9486C1.31621 33.961 1.32851 33.9856 1.34082 33.9979L1.41465 34.1086C1.42695 34.1209 1.43926 34.1455 1.45157 34.1578C1.47617 34.1947 1.50078 34.2317 1.52539 34.2563C1.5377 34.2809 1.56231 34.2932 1.57461 34.3178C1.59922 34.3424 1.62382 34.3793 1.64844 34.4039C1.67305 34.4285 1.69765 34.4531 1.70996 34.4777C1.73457 34.5024 1.74687 34.527 1.77148 34.5516C1.85762 34.65 1.95605 34.7362 2.04219 34.8223C2.06679 34.8469 2.09141 34.8592 2.11601 34.8838C2.14062 34.9084 2.16524 34.933 2.18985 34.9453C2.21445 34.9699 2.25137 34.9945 2.27598 35.0192C2.30059 35.0315 2.3129 35.0561 2.3375 35.0684C2.37442 35.093 2.39902 35.1176 2.43594 35.1422C2.44824 35.1545 2.47285 35.1668 2.48515 35.1791L2.5959 35.2529C2.60821 35.2653 2.63282 35.2776 2.64512 35.2899C2.68204 35.3145 2.71895 35.3268 2.75586 35.3514C2.78047 35.3637 2.79277 35.376 2.81738 35.3883C2.85429 35.4006 2.89121 35.4252 2.91582 35.4375L2.98965 35.4744C3.02656 35.4867 3.05117 35.499 3.08809 35.5113C3.11269 35.5236 3.14961 35.536 3.17422 35.5483C3.19883 35.5606 3.23575 35.5729 3.26035 35.5852C3.29727 35.5975 3.32188 35.6098 3.35879 35.6221C3.3834 35.6344 3.408 35.6344 3.43262 35.6467L3.54336 35.6836C3.56797 35.6959 3.59258 35.6959 3.60489 35.7082C3.6418 35.7205 3.67871 35.7328 3.72793 35.7451C3.75254 35.7451 3.76485 35.7574 3.78946 35.7574C3.82637 35.7697 3.87559 35.782 3.9125 35.782C3.93711 35.782 3.94942 35.7943 3.97403 35.7943C4.01094 35.8067 4.06016 35.8067 4.09707 35.819C4.12168 35.819 4.14628 35.8313 4.1709 35.8313C4.20781 35.8313 4.24473 35.8436 4.28165 35.8436C4.31856 35.8436 4.34316 35.8436 4.38008 35.8559C4.41699 35.8559 4.4416 35.8559 4.47851 35.8682L91.3127 35.8682C93.4906 35.9051 95.2502 34.1455 95.2502 31.9676ZM66.9125 93.4541L94.1059 66.2608C94.1551 66.2115 94.192 66.1623 94.2412 66.1131C94.2658 66.0885 94.2781 66.0639 94.3027 66.0393C94.3273 66.0147 94.352 65.9901 94.3643 65.9654C94.3889 65.9408 94.4135 65.9039 94.4381 65.8793C94.4504 65.8547 94.475 65.8424 94.4873 65.8178C94.5119 65.7809 94.5365 65.744 94.5611 65.7194C94.5734 65.707 94.5857 65.6824 94.598 65.6701L94.6719 65.5594C94.6842 65.5471 94.6965 65.5225 94.7088 65.5102C94.7334 65.4733 94.7457 65.4363 94.7703 65.3994C94.7826 65.3748 94.7949 65.3625 94.8072 65.3379C94.8195 65.301 94.8441 65.2641 94.8564 65.2395L94.8934 65.1656C94.9057 65.1287 94.918 65.1041 94.9303 65.0672C94.9426 65.0426 94.9549 65.0057 94.9672 64.9811C94.9795 64.9565 94.9918 64.9195 95.0041 64.8949C95.0164 64.858 95.0287 64.8334 95.041 64.7965C95.0533 64.7719 95.0533 64.7473 95.0656 64.7227L95.1025 64.6119C95.1148 64.5873 95.1148 64.5627 95.1271 64.5504C95.1394 64.5135 95.1518 64.4766 95.1641 64.4274C95.1641 64.4028 95.1764 64.3904 95.1764 64.3658C95.1887 64.3289 95.201 64.2797 95.201 64.2428C95.201 64.2182 95.2133 64.2059 95.2133 64.1813C95.2256 64.1444 95.2256 64.0951 95.2379 64.0582C95.2379 64.0336 95.2502 64.009 95.2502 63.9844C95.2502 63.9475 95.2625 63.9106 95.2625 63.8736C95.2625 63.8367 95.2625 63.8121 95.2748 63.7752C95.2748 63.7383 95.2748 63.7137 95.2871 63.6768L95.2871 63.3076C95.2871 63.2707 95.2871 63.2461 95.2748 63.2092C95.2748 63.1723 95.2748 63.1477 95.2625 63.1108C95.2625 63.0738 95.2502 63.0369 95.2502 63C95.2502 62.9754 95.2502 62.9508 95.2379 62.9262C95.2379 62.8893 95.2256 62.8401 95.2133 62.8031C95.2133 62.7785 95.201 62.7662 95.201 62.7416C95.1887 62.7047 95.1887 62.6555 95.1764 62.6186C95.1764 62.594 95.1641 62.5817 95.1641 62.557C95.1518 62.5201 95.1395 62.4709 95.1271 62.434C95.1148 62.4094 95.1148 62.3848 95.1025 62.3725L95.0656 62.2617C95.0533 62.2371 95.0533 62.2125 95.041 62.1879C95.0287 62.151 95.0164 62.1264 95.0041 62.0895C94.9918 62.0649 94.9795 62.0279 94.9672 62.0033C94.9549 61.9787 94.9426 61.9418 94.9303 61.9172C94.918 61.8803 94.9057 61.8557 94.8934 61.8188L94.8564 61.7449C94.8441 61.708 94.8195 61.6711 94.8072 61.6465C94.7949 61.6219 94.7826 61.6096 94.7703 61.585C94.7457 61.5481 94.7334 61.5112 94.7088 61.4742C94.6965 61.4496 94.6842 61.4373 94.6719 61.425L94.598 61.3143C94.5857 61.302 94.5734 61.2774 94.5611 61.2651C94.5365 61.2281 94.5119 61.1912 94.4873 61.1666C94.475 61.142 94.4504 61.1297 94.4381 61.1051C94.4135 61.0805 94.3889 61.0436 94.3643 61.019C94.3396 60.9944 94.315 60.9697 94.3027 60.9451C94.2781 60.9205 94.2658 60.8959 94.2412 60.8713C94.1551 60.7729 94.0566 60.6867 93.9705 60.6006C93.9459 60.576 93.9213 60.5637 93.8967 60.5391C93.8721 60.5145 93.8475 60.4899 93.8228 60.4776C93.7982 60.4529 93.7613 60.4283 93.7367 60.4037C93.7121 60.3914 93.6998 60.3668 93.6752 60.3545C93.6383 60.3299 93.6014 60.3053 93.5768 60.2807C93.5644 60.2684 93.5398 60.2561 93.5275 60.2438L93.4168 60.1699C93.4045 60.1576 93.3799 60.1453 93.3676 60.133C93.3307 60.1084 93.2937 60.0961 93.2568 60.0715C93.2322 60.0592 93.2199 60.0469 93.1953 60.0346C93.1584 60.0223 93.1215 59.9977 93.0969 59.9854L93.023 59.9485C92.9861 59.9361 92.9615 59.9238 92.9246 59.9115C92.9 59.8992 92.8631 59.8869 92.8385 59.8746C92.8139 59.8623 92.7769 59.85 92.7523 59.8377C92.7154 59.8254 92.6908 59.8131 92.6539 59.8008C92.6293 59.7885 92.6047 59.7885 92.5801 59.7762L92.4693 59.7393C92.4447 59.727 92.4201 59.727 92.4078 59.7147C92.3709 59.7024 92.334 59.6901 92.2848 59.6777C92.2602 59.6777 92.2478 59.6654 92.2232 59.6654C92.1863 59.6531 92.1371 59.6408 92.1002 59.6408C92.0756 59.6408 92.051 59.6285 92.0387 59.6285C92.0018 59.6162 91.9525 59.6162 91.9156 59.6039C91.891 59.6039 91.8664 59.5916 91.8418 59.5916C91.8049 59.5916 91.768 59.5793 91.7311 59.5793C91.6941 59.5793 91.6695 59.5793 91.6326 59.567C91.608 59.567 91.5711 59.567 91.5465 59.5547L4.73691 59.5547C2.55899 59.5547 0.799413 61.3143 0.799413 63.4922C0.799413 65.6701 2.55899 67.4297 4.73691 67.4297L81.8135 67.4297L61.3385 87.9047C59.8004 89.4428 59.8004 91.9406 61.3385 93.4787C62.8766 94.9922 65.3744 94.9922 66.9125 93.4541Z" fill="url(#paint0_linear_826_540)"/>
<defs>
<linearGradient id="paint0_linear_826_540" x1="48.0063" y1="0.827513" x2="48.0063" y2="100.636" gradientUnits="userSpaceOnUse">
<stop stop-color="#767EE5"/>
<stop offset="1" stop-color="#9966CC"/>
</linearGradient>
</defs>
</svg>
