<svg width="96" height="96" viewBox="0 0 96 96" fill="none" xmlns="http://www.w3.org/2000/svg">
<path d="M38.1006 45.6559H6.90344C6.08969 45.6569 5.28424 45.4923 4.53609 45.1723C3.78793 44.8522 3.11271 44.3832 2.55151 43.794C1.9903 43.2047 1.55484 42.5074 1.27161 41.7445C0.988376 40.9817 0.863301 40.1692 0.903989 39.3564V8.09927C0.903989 6.50812 1.53607 4.98213 2.66119 3.85702C3.7863 2.7319 5.31229 2.09982 6.90344 2.09982H38.1006C38.9133 2.05913 39.7258 2.1842 40.4887 2.46743C41.2516 2.75066 41.9489 3.18613 42.5381 3.74733C43.1274 4.30854 43.5963 4.98376 43.9164 5.73192C44.2365 6.48007 44.401 7.28552 44.4 8.09927V39.3564C44.4431 40.195 44.3097 41.0334 44.0084 41.8172C43.707 42.601 43.2445 43.3128 42.6507 43.9066C42.057 44.5003 41.3451 44.9629 40.5613 45.2642C39.7775 45.5655 38.9392 45.699 38.1006 45.6559ZM38.1006 8.09927H7.20341L7.56338 39.0565H38.1006V8.09927ZM71.9975 47.2157C71.1836 47.2285 70.3756 47.0756 69.6226 46.7661C68.8697 46.4567 68.1876 45.9973 67.6179 45.4159L50.2795 28.0775C49.6895 27.517 49.2197 26.8424 48.8987 26.0946C48.5777 25.3468 48.4122 24.5416 48.4122 23.7278C48.4122 22.9141 48.5777 22.1089 48.8987 21.3611C49.2197 20.6133 49.6895 19.9387 50.2795 19.3782L67.5579 2.03982C68.1184 1.44985 68.793 0.98007 69.5408 0.65905C70.2885 0.33803 71.0938 0.172485 71.9075 0.172485C72.7213 0.172485 73.5265 0.33803 74.2743 0.65905C75.022 0.98007 75.6966 1.44985 76.2571 2.03982L93.5355 19.3782C94.1255 19.9387 94.5953 20.6133 94.9163 21.3611C95.2373 22.1089 95.4029 22.9141 95.4029 23.7278C95.4029 24.5416 95.2373 25.3468 94.9163 26.0946C94.5953 26.8424 94.1255 27.517 93.5355 28.0775L76.2571 45.4159C75.7015 45.9828 75.0389 46.4337 74.3077 46.7427C73.5765 47.0516 72.7913 47.2124 71.9975 47.2157ZM55.259 23.9978L71.9975 40.4363L88.616 23.9978L71.9975 7.01937L55.259 23.9978ZM38.1006 95.9913H6.90344C6.08969 95.9923 5.28424 95.8278 4.53609 95.5077C3.78793 95.1876 3.11271 94.7187 2.55151 94.1294C1.9903 93.5401 1.55484 92.8428 1.27161 92.08C0.988376 91.3171 0.863301 90.5046 0.903989 89.6918V58.1947C0.903989 56.6036 1.53607 55.0776 2.66119 53.9525C3.7863 52.8273 5.31229 52.1953 6.90344 52.1953H38.1006C38.9133 52.1546 39.7258 52.2796 40.4887 52.5629C41.2516 52.8461 41.9489 53.2816 42.5381 53.8428C43.1274 54.404 43.5963 55.0792 43.9164 55.8274C44.2365 56.5755 44.401 57.381 44.4 58.1947V89.4519C44.4788 90.3098 44.3719 91.1746 44.0866 91.9875C43.8013 92.8005 43.3442 93.5424 42.7465 94.1629C42.1488 94.7833 41.4245 95.2678 40.6228 95.5833C39.8211 95.8988 38.9609 96.038 38.1006 95.9913ZM38.1006 58.4347L7.20341 58.7347L7.56338 89.6918L38.1006 89.3919V58.4347ZM87.5361 95.9913H56.2789C55.4652 95.9923 54.6597 95.8278 53.9116 95.5077C53.1634 95.1876 52.4882 94.7187 51.927 94.1294C51.3658 93.5401 50.9303 92.8428 50.6471 92.08C50.3639 91.3171 50.2388 90.5046 50.2795 89.6918V58.1947C50.2795 56.6036 50.9116 55.0776 52.0367 53.9525C53.1618 52.8273 54.6878 52.1953 56.2789 52.1953H87.5361C89.1272 52.1953 90.6532 52.8273 91.7783 53.9525C92.9035 55.0776 93.5355 56.6036 93.5355 58.1947V89.4519C93.6107 90.2839 93.5113 91.1225 93.2437 91.9139C92.976 92.7053 92.5461 93.4321 91.9813 94.0477C91.4165 94.6633 90.7294 95.1542 89.9639 95.4889C89.1984 95.8235 88.3715 95.9947 87.5361 95.9913ZM87.1761 58.1947L56.2789 58.4947L56.6389 89.4519L87.1761 89.1519V58.1947Z" fill="url(#paint0_linear_823_510)"/>
<defs>
<linearGradient id="paint0_linear_823_510" x1="0.896484" y1="48.0863" x2="101.475" y2="48.0863" gradientUnits="userSpaceOnUse">
<stop stop-color="#767EE5"/>
<stop offset="1" stop-color="#9966CC"/>
</linearGradient>
</defs>
</svg>
