<svg width="24" height="25" viewBox="0 0 24 25" fill="none" xmlns="http://www.w3.org/2000/svg">
<path d="M19.8985 12.554L10.6938 21.8221C10.5537 21.9632 10.4753 22.1543 10.476 22.3532C10.4767 22.5521 10.5563 22.7426 10.6975 22.8828C10.8386 23.0229 11.0296 23.1013 11.2286 23.1006C11.4275 23.1 11.618 23.0203 11.7581 22.8791L21.4922 13.079C21.6323 12.9378 21.7106 12.7468 21.7099 12.5479C21.7092 12.3491 21.6296 12.1586 21.4885 12.0184L11.7546 2.35165C11.6847 2.28224 11.6019 2.22728 11.5107 2.1899C11.4196 2.15252 11.322 2.13346 11.2235 2.13379C11.125 2.13413 11.0276 2.15386 10.9367 2.19187C10.8459 2.22987 10.7634 2.2854 10.694 2.35528C10.6246 2.42516 10.5696 2.50803 10.5322 2.59916C10.4948 2.69028 10.4758 2.78787 10.4761 2.88636C10.4764 2.98486 10.4962 3.08232 10.5342 3.17318C10.5722 3.26405 10.6277 3.34654 10.6976 3.41594L19.8985 12.554Z" fill="url(#paint0_linear_791_1234)"/>
<path d="M11.7136 12.554L2.509 21.8221C2.36883 21.9632 2.29046 22.1543 2.29114 22.3532C2.29182 22.5521 2.37149 22.7426 2.51263 22.8828C2.65376 23.0229 2.8448 23.1013 3.04371 23.1006C3.24263 23.1 3.43312 23.0203 3.57329 22.8791L13.3064 13.079C13.4465 12.9378 13.5249 12.7468 13.5242 12.5479C13.5235 12.3491 13.4438 12.1586 13.3027 12.0184L3.56978 2.35165C3.42864 2.21148 3.23761 2.13311 3.03869 2.13379C2.83978 2.13447 2.64928 2.21415 2.50911 2.35528C2.36894 2.49642 2.29058 2.68745 2.29126 2.88636C2.29194 3.08528 2.37161 3.27577 2.51275 3.41594L11.7136 12.554Z" fill="url(#paint1_linear_791_1234)"/>
<defs>
<linearGradient id="paint0_linear_791_1234" x1="10.476" y1="12.6172" x2="22.4317" y2="12.6172" gradientUnits="userSpaceOnUse">
<stop stop-color="#767EE5"/>
<stop offset="1" stop-color="#9966CC"/>
</linearGradient>
<linearGradient id="paint1_linear_791_1234" x1="2.29114" y1="12.6172" x2="14.2459" y2="12.6172" gradientUnits="userSpaceOnUse">
<stop stop-color="#767EE5"/>
<stop offset="1" stop-color="#9966CC"/>
</linearGradient>
</defs>
</svg>
