<svg width="59" height="59" viewBox="0 0 59 59" fill="none" xmlns="http://www.w3.org/2000/svg">
<g id="Frame">
<path id="Vector" d="M29.3327 49.1825C29.1251 49.1829 28.9182 49.1586 28.7164 49.11L6.96644 43.3825C6.44923 43.2461 5.99189 42.942 5.66607 42.5178C5.34026 42.0935 5.16439 41.5732 5.16603 41.0383V13.0292C5.16674 12.6597 5.25217 12.2953 5.41575 11.964C5.57932 11.6327 5.81668 11.3433 6.10959 11.1181C6.4025 10.8928 6.74314 10.7378 7.10535 10.6648C7.46756 10.5918 7.84167 10.6029 8.19894 10.6971L29.3327 16.2554L50.4785 10.6971C50.835 10.605 51.2078 10.5957 51.5684 10.6697C51.9291 10.7437 52.2681 10.8991 52.5595 11.1241C52.8509 11.349 53.0871 11.6376 53.25 11.9678C53.4129 12.298 53.4982 12.661 53.4994 13.0292V41.0383C53.4983 41.5712 53.3212 42.0887 52.9956 42.5105C52.67 42.9322 52.2142 43.2345 51.6989 43.3704L29.9489 49.0979C29.7487 49.1557 29.5411 49.1841 29.3327 49.1825ZM9.99936 39.1775L29.3327 44.2646L48.666 39.1775V16.2192L29.9248 21.0887C29.5285 21.1911 29.1127 21.1911 28.7164 21.0887L9.99936 16.1587V39.1775Z" fill="url(#paint0_linear_1577_2858)"/>
<path id="Vector_2" d="M29.3327 25.1133C30.9438 25.1133 31.7493 25.9188 31.7493 27.5299V37.1966C31.7493 38.8077 30.9438 39.6133 29.3327 39.6133C27.7216 39.6133 26.916 38.8077 26.916 37.1966V27.5299C26.916 25.9188 27.7216 25.1133 29.3327 25.1133Z" fill="url(#paint1_linear_1577_2858)"/>
</g>
<defs>
<linearGradient id="paint0_linear_1577_2858" x1="5.16602" y1="29.8999" x2="56.6048" y2="29.8999" gradientUnits="userSpaceOnUse">
<stop stop-color="#767EE5"/>
<stop offset="1" stop-color="#9966CC"/>
</linearGradient>
<linearGradient id="paint1_linear_1577_2858" x1="26.916" y1="32.3633" x2="32.0599" y2="32.3633" gradientUnits="userSpaceOnUse">
<stop stop-color="#767EE5"/>
<stop offset="1" stop-color="#9966CC"/>
</linearGradient>
</defs>
</svg>
