<svg width="59" height="60" viewBox="0 0 59 60" fill="none" xmlns="http://www.w3.org/2000/svg">
<g id="Frame">
<path id="Vector" d="M50.9798 23.743L50.992 23.7661C50.9864 23.7563 50.4297 22.7809 49.5793 22.5838C48.8266 22.4099 47.946 22.9026 47.3398 23.3469L44.9464 19.959C47.2993 18.2344 49.276 18.2375 50.5198 18.5438C53.1551 19.1929 54.4427 21.5632 54.5806 21.8313L50.9798 23.743ZM42.0192 12.9483L47.1971 7.64923L50.0631 10.5819L44.8844 15.8807L42.0192 12.9483ZM40.8848 43.9671C38.9193 45.9782 36.5278 47.4992 33.8954 48.4122C31.263 49.3253 28.4605 49.6059 25.7051 49.2324L15.9009 55.2861L15.8762 55.2608C14.4884 56.4718 12.706 57.1039 10.8835 57.0312C9.06107 56.9585 7.33213 56.1864 6.04074 54.8685L4.59856 53.3927C3.3106 52.0713 2.55604 50.3021 2.485 48.4373C2.41397 46.5724 3.03168 44.7485 4.21522 43.3285L4.19052 43.3033L10.1067 33.271C9.74167 30.4515 10.0159 27.5838 10.9082 24.8903C11.8005 22.1967 13.287 19.7495 15.2523 17.7383C22.3191 10.507 33.818 10.507 40.8849 17.7383C47.9519 24.9696 47.9518 36.7355 40.8848 43.9671ZM7.48225 50.4419L8.92409 51.9173C9.44995 52.4539 10.1429 52.785 10.8826 52.853C11.6222 52.9211 12.3618 52.7218 12.9728 52.2898L7.11816 46.2991C6.69599 46.9243 6.50124 47.6811 6.56775 48.4379C6.63427 49.1948 6.95785 49.9039 7.48225 50.4419ZM9.33168 42.6625L16.5267 50.0249L20.3777 47.647C16.5402 45.8063 13.454 42.6483 11.6551 38.7215L9.33168 42.6625ZM38.0011 20.6887C36.0366 18.6785 33.5337 17.3096 30.8089 16.755C28.0841 16.2004 25.2597 16.485 22.693 17.5729C20.1263 18.6608 17.9324 20.5031 16.389 22.8669C14.8455 25.2306 14.0216 28.0095 14.0216 30.8524C14.0216 33.6952 14.8455 36.4742 16.389 38.8379C17.9324 41.2016 20.1263 43.0439 22.693 44.1318C25.2597 45.2197 28.0841 45.5043 30.8089 44.9497C33.5337 44.3951 36.0366 43.0262 38.0011 41.016C40.6316 38.3184 42.1088 34.6632 42.1088 30.8524C42.1088 27.0416 40.6316 23.3864 38.0011 20.6887ZM27.4528 39.5664L24.694 36.7434L27.2071 31.6157L22.0853 34.0741L19.3268 31.2512L24.6009 20.3026L28.2767 22.1248L25.5982 27.7737L31.184 25.1888L33.6154 27.6768L30.9647 33.2654L36.6606 30.6295L38.3411 34.4389L27.4528 39.5664ZM34.7601 10.6171C35.134 9.95456 35.5281 9.00718 35.2812 8.2572C35.0029 7.40974 33.9916 6.93971 33.9815 6.93507L34.0055 6.94515L35.5146 3.08203C35.7909 3.19586 38.2406 4.27133 39.1407 6.89346C39.5657 8.1312 39.7675 10.1465 38.3164 12.7183L34.7601 10.6171ZM7.80918 18.7786C7.22665 18.7786 6.6572 18.6019 6.17285 18.2707C5.6885 17.9396 5.31099 17.4689 5.08806 16.9182C4.86514 16.3675 4.80681 15.7615 4.92046 15.1769C5.0341 14.5922 5.31462 14.0552 5.72653 13.6337C6.13844 13.2123 6.66324 12.9252 7.23458 12.8089C7.80591 12.6926 8.39811 12.7523 8.9363 12.9804C9.47448 13.2085 9.93448 13.5948 10.2581 14.0905C10.5818 14.5861 10.7545 15.1688 10.7545 15.7648C10.7545 16.5641 10.4442 17.3307 9.89183 17.8959C9.33947 18.4611 8.59032 18.7786 7.80918 18.7786ZM47.9107 40.9185C48.4933 40.9185 49.0627 41.0953 49.5471 41.4265C50.0314 41.7576 50.4089 42.2283 50.6319 42.779C50.8548 43.3297 50.9131 43.9357 50.7995 44.5203C50.6858 45.1049 50.4053 45.6419 49.9934 46.0634C49.5815 46.4849 49.0567 46.772 48.4853 46.8882C47.914 47.0045 47.3218 46.9449 46.7836 46.7167C46.2454 46.4886 45.7854 46.1023 45.4618 45.6067C45.1382 45.1111 44.9654 44.5284 44.9654 43.9324C44.9654 43.133 45.2757 42.3665 45.8281 41.8013C46.3804 41.2361 47.1296 40.9185 47.9107 40.9185Z" fill="url(#paint0_linear_1577_2839)"/>
</g>
<defs>
<linearGradient id="paint0_linear_1577_2839" x1="2.47949" y1="30.0594" x2="57.9282" y2="30.0594" gradientUnits="userSpaceOnUse">
<stop stop-color="#767EE5"/>
<stop offset="1" stop-color="#9966CC"/>
</linearGradient>
</defs>
</svg>
