<svg width="17" height="16" viewBox="0 0 17 16" fill="none" xmlns="http://www.w3.org/2000/svg">
<g clip-path="url(#clip0_1461_2247)">
<path d="M13.4859 3.7932C13.784 3.51375 14.1433 3.37402 14.5638 3.37402C14.9843 3.37402 15.3436 3.51375 15.6417 3.7932C15.9504 4.07266 16.1048 4.40701 16.1048 4.79625C16.1048 5.18549 15.9504 5.51983 15.6417 5.79929L9.66934 11.3684C9.54159 11.5081 9.38191 11.6054 9.19028 11.6603C8.99865 11.7152 8.79638 11.7377 8.58347 11.7277C8.37055 11.7177 8.16029 11.6753 7.9527 11.6005C7.7451 11.5256 7.56678 11.4183 7.41774 11.2786L1.54122 5.79929C1.23249 5.51983 1.07812 5.18549 1.07812 4.79625C1.07812 4.40701 1.23249 4.07266 1.54122 3.7932C1.69026 3.65348 1.85794 3.54868 2.04424 3.47882C2.23054 3.40896 2.42217 3.37402 2.61912 3.37402C2.81606 3.37402 3.01035 3.40896 3.20198 3.47882C3.3936 3.54868 3.56394 3.65348 3.71298 3.7932L8.59943 8.31437L13.4859 3.7932Z" fill="#7680DD"/>
</g>
<defs>
<clipPath id="clip0_1461_2247">
<rect width="16" height="15" fill="white" transform="translate(0.120117 0.5)"/>
</clipPath>
</defs>
</svg>
