<svg width="16" height="16" viewBox="0 0 16 16" fill="none" xmlns="http://www.w3.org/2000/svg">
<g clip-path="url(#clip0_1461_2256)">
<path d="M4.71215 3.05513C4.4327 2.75704 4.29297 2.39774 4.29297 1.97723C4.29297 1.55672 4.4327 1.19742 4.71215 0.899336C4.9916 0.590606 5.32595 0.436239 5.71519 0.436239C6.10443 0.436239 6.43878 0.590606 6.71823 0.899336L12.2874 6.87167C12.4271 6.99942 12.5244 7.15911 12.5793 7.35073C12.6342 7.54236 12.6566 7.74463 12.6467 7.95755C12.6367 8.17047 12.5943 8.38072 12.5194 8.58832C12.4445 8.79591 12.3373 8.97423 12.1975 9.12327L6.71823 14.9998C6.43878 15.3085 6.10443 15.4629 5.71519 15.4629C5.32595 15.4629 4.9916 15.3085 4.71215 14.9998C4.57242 14.8508 4.46763 14.6831 4.39776 14.4968C4.3279 14.3105 4.29297 14.1188 4.29297 13.9219C4.29297 13.725 4.3279 13.5307 4.39776 13.339C4.46763 13.1474 4.57242 12.9771 4.71215 12.828L9.23332 7.94158L4.71215 3.05513Z" fill="#D9DBEF"/>
</g>
<defs>
<clipPath id="clip0_1461_2256">
<rect width="16" height="15" fill="white" transform="translate(0 0.450195)"/>
</clipPath>
</defs>
</svg>
