<svg width="30" height="29" viewBox="0 0 30 29" fill="none" xmlns="http://www.w3.org/2000/svg">
<path fill-rule="evenodd" clip-rule="evenodd" d="M0.207031 14.8574C0.207031 21.2737 4.35766 26.693 10.1214 28.6143C10.8464 28.7412 11.1183 28.3062 11.1183 27.9255C11.1183 27.5812 11.1002 26.4393 11.1002 25.2249C7.45703 25.8955 6.51453 24.3368 6.22453 23.5212C6.06141 23.1043 5.35453 21.8174 4.73828 21.473C4.23078 21.2012 3.50578 20.5305 4.72016 20.5124C5.86203 20.4943 6.67766 21.5637 6.94953 21.9987C8.25453 24.1918 10.3389 23.5756 11.1727 23.1949C11.2995 22.2524 11.6802 21.6181 12.097 21.2555C8.87078 20.893 5.49953 19.6424 5.49953 14.0962C5.49953 12.5193 6.06141 11.2143 6.98578 10.1993C6.84078 9.8368 6.33328 8.35056 7.13078 6.35681C7.13078 6.35681 8.34516 5.97618 11.1183 7.84305C12.2783 7.51679 13.5108 7.35367 14.7433 7.35367C15.9758 7.35367 17.2083 7.51679 18.3683 7.84305C21.1414 5.95805 22.3558 6.35681 22.3558 6.35681C23.1533 8.35056 22.6458 9.8368 22.5008 10.1993C23.4252 11.2143 23.987 12.5012 23.987 14.0962C23.987 19.6605 20.5977 20.893 17.3714 21.2555C17.897 21.7087 18.3502 22.5787 18.3502 23.938C18.3502 25.8774 18.332 27.4362 18.332 27.9255C18.332 28.3062 18.6039 28.7593 19.3289 28.6143C25.0564 26.693 29.207 21.2555 29.207 14.8574C29.207 6.84619 22.7183 0.357422 14.707 0.357422C6.69578 0.357422 0.207031 6.84619 0.207031 14.8574Z" fill="#0A061F"/>
</svg>
