<svg width="90" height="91" viewBox="0 0 90 91" fill="none" xmlns="http://www.w3.org/2000/svg">
<path d="M67.5001 43.0801H54.0001L49.5001 49.8301H40.5001L36.0001 43.0801H22.5001" stroke="#FDCB6E" stroke-width="4" stroke-linecap="round" stroke-linejoin="round"/>
<path d="M30.2626 27.5776L22.5001 43.0801V56.5801C22.5001 57.7736 22.9742 58.9181 23.8181 59.7621C24.6621 60.606 25.8066 61.0801 27.0001 61.0801H63.0001C64.1936 61.0801 65.3382 60.606 66.1821 59.7621C67.026 58.9181 67.5001 57.7736 67.5001 56.5801V43.0801L59.7376 27.5776C59.3651 26.8278 58.7908 26.1969 58.0793 25.7557C57.3678 25.3145 56.5473 25.0805 55.7101 25.0801H34.2901C33.4529 25.0805 32.6325 25.3145 31.921 25.7557C31.2095 26.1969 30.6352 26.8278 30.2626 27.5776V27.5776Z" stroke="#FDCB6E" stroke-width="4" stroke-linecap="round" stroke-linejoin="round"/>
</svg>
