<svg width="103" height="108" viewBox="0 0 103 108" fill="none" xmlns="http://www.w3.org/2000/svg">
<path d="M80.3912 68.3582C79.3544 68.3594 78.3559 67.9665 77.5979 67.2591L37.6057 30.0417C35.9475 28.4984 35.8542 25.9032 37.3974 24.2449C38.9407 22.5867 41.5359 22.4933 43.1941 24.0366L83.1864 61.2541C84.8447 62.7973 84.9381 65.3926 83.3946 67.0507C82.5869 67.9189 81.4904 68.3582 80.3912 68.3582ZM88.0372 20.0464C87.0004 20.0477 86.0019 19.6548 85.2439 18.9474C83.5856 17.4042 83.4923 14.8089 85.0357 13.1506L95.3339 2.08489C96.877 0.426906 99.4724 0.333254 101.13 1.87667C102.789 3.41981 102.882 6.01514 101.339 7.67341L91.0405 18.7391C90.2326 19.6072 89.1364 20.0464 88.0372 20.0464ZM34.2306 107.096C33.4313 107.096 32.6218 107.069 31.8024 107.013C23.8842 106.477 16.1829 103.39 11.2011 98.7536L10.9583 98.5278C5.97681 93.8919 2.34433 86.432 1.24156 78.5727C0.0385677 69.9989 2.01333 62.2183 6.65945 57.2257L18.2222 44.801C19.7654 43.1429 22.3606 43.0494 24.0189 44.5928C25.6772 46.1361 25.7704 48.7314 24.2273 50.3895L12.6645 62.8142C9.70965 65.9895 8.50707 71.3177 9.36511 77.433C10.202 83.3971 12.9538 89.1792 16.5468 92.5228L16.7896 92.7488C20.3826 96.0925 26.3474 98.4223 32.356 98.8289C38.517 99.2457 43.7452 97.6638 46.7001 94.4887L58.263 82.0638C59.8059 80.4056 62.4015 80.312 64.0596 81.8556C65.7179 83.3987 65.8112 85.9941 64.2678 87.6522L52.7051 100.077C48.5 104.596 41.8584 107.096 34.2306 107.096Z" fill="url(#paint0_linear_825_532)"/>
<defs>
<linearGradient id="paint0_linear_825_532" x1="0.896484" y1="53.9368" x2="108.962" y2="53.9367" gradientUnits="userSpaceOnUse">
<stop stop-color="#767EE5"/>
<stop offset="1" stop-color="#9966CC"/>
</linearGradient>
</defs>
</svg>
