<svg width="31" height="30" viewBox="0 0 31 30" fill="none" xmlns="http://www.w3.org/2000/svg">
<g clip-path="url(#clip0_6314_89472)">
<path d="M30.4475 23.4375C30.4475 24.1834 30.1512 24.8988 29.6237 25.4262C29.0963 25.9537 28.3809 26.25 27.635 26.25H22.01C21.2641 26.25 20.5487 25.9537 20.0213 25.4262C19.4938 24.8988 19.1975 24.1834 19.1975 23.4375V21.5625C19.1975 20.8166 19.4938 20.1012 20.0213 19.5738C20.5487 19.0463 21.2641 18.75 22.01 18.75H23.8456C23.7706 17.4487 23.4988 16.6781 23.1256 16.425C22.6756 16.1231 22.1619 16.0463 20.795 16.0256L20.2888 16.0162C20.051 16.0116 19.8134 16.0004 19.5763 15.9825L19.145 15.9394C18.3617 15.8601 17.6049 15.6119 16.9269 15.2119C16.3419 14.8594 15.8544 14.2181 15.4344 13.2806C15.0163 14.2181 14.5288 14.8594 13.9438 15.2119C13.2663 15.6117 12.5102 15.8599 11.7275 15.9394L11.2963 15.9825C11.0638 16.0013 10.865 16.0106 10.5838 16.0162L10.0775 16.0256C8.70876 16.0444 8.19501 16.1231 7.74501 16.4269C7.37188 16.6781 7.10001 17.4487 7.02689 18.75H8.88501C9.63093 18.75 10.3463 19.0463 10.8737 19.5738C11.4012 20.1012 11.6975 20.8166 11.6975 21.5625V23.4375C11.6975 24.1834 11.4012 24.8988 10.8737 25.4262C10.3463 25.9537 9.63093 26.25 8.88501 26.25H3.26001C2.51409 26.25 1.79872 25.9537 1.27127 25.4262C0.743826 24.8988 0.44751 24.1834 0.44751 23.4375L0.44751 21.5625C0.44751 20.8166 0.743826 20.1012 1.27127 19.5738C1.79872 19.0463 2.51409 18.75 3.26001 18.75H5.14813C5.24188 16.8263 5.72001 15.5306 6.69688 14.8725C7.42813 14.3775 8.07501 14.2219 9.31251 14.1713L10.7 14.1375C10.8125 14.1337 10.91 14.13 11.0075 14.1225L11.1538 14.1131C11.915 14.055 12.4813 13.9069 12.9744 13.6069C13.3494 13.3819 13.7769 12.5887 14.18 11.2537L12.635 11.25C11.8891 11.25 11.1737 10.9537 10.6463 10.4262C10.1188 9.89879 9.82251 9.18342 9.82251 8.4375V6.5625C9.82251 5.81658 10.1188 5.10121 10.6463 4.57376C11.1737 4.04632 11.8891 3.75 12.635 3.75H18.26C19.0059 3.75 19.7213 4.04632 20.2487 4.57376C20.7762 5.10121 21.0725 5.81658 21.0725 6.5625V8.4375C21.0725 9.18342 20.7762 9.89879 20.2487 10.4262C19.7213 10.9537 19.0059 11.25 18.26 11.25L16.6925 11.2537C17.0938 12.5887 17.5231 13.3819 17.8963 13.6069C18.3894 13.9069 18.9556 14.055 19.7188 14.1131L19.865 14.1225C19.9606 14.13 20.0581 14.1337 20.1706 14.1375L21.5581 14.1713C22.7956 14.2219 23.4425 14.3775 24.1756 14.8725C25.1506 15.5288 25.6288 16.8263 25.7225 18.75H27.635C28.3809 18.75 29.0963 19.0463 29.6237 19.5738C30.1512 20.1012 30.4475 20.8166 30.4475 21.5625V23.4375ZM9.82251 23.4375V21.5625C9.82251 21.3139 9.72374 21.0754 9.54792 20.8996C9.37211 20.7238 9.13365 20.625 8.88501 20.625H3.26001C3.01137 20.625 2.77291 20.7238 2.5971 20.8996C2.42128 21.0754 2.32251 21.3139 2.32251 21.5625V23.4375C2.32251 23.6861 2.42128 23.9246 2.5971 24.1004C2.77291 24.2762 3.01137 24.375 3.26001 24.375H8.88501C9.13365 24.375 9.37211 24.2762 9.54792 24.1004C9.72374 23.9246 9.82251 23.6861 9.82251 23.4375ZM19.1975 8.4375V6.5625C19.1975 6.31386 19.0987 6.0754 18.9229 5.89959C18.7471 5.72377 18.5086 5.625 18.26 5.625H12.635C12.3864 5.625 12.1479 5.72377 11.9721 5.89959C11.7963 6.0754 11.6975 6.31386 11.6975 6.5625V8.4375C11.6975 8.68614 11.7963 8.9246 11.9721 9.10041C12.1479 9.27623 12.3864 9.375 12.635 9.375H18.26C18.5086 9.375 18.7471 9.27623 18.9229 9.10041C19.0987 8.9246 19.1975 8.68614 19.1975 8.4375ZM28.5725 23.4375V21.5625C28.5725 21.3139 28.4737 21.0754 28.2979 20.8996C28.1221 20.7238 27.8836 20.625 27.635 20.625H22.01C21.7614 20.625 21.5229 20.7238 21.3471 20.8996C21.1713 21.0754 21.0725 21.3139 21.0725 21.5625V23.4375C21.0725 23.6861 21.1713 23.9246 21.3471 24.1004C21.5229 24.2762 21.7614 24.375 22.01 24.375H27.635C27.8836 24.375 28.1221 24.2762 28.2979 24.1004C28.4737 23.9246 28.5725 23.6861 28.5725 23.4375Z" fill="#6B7280"/>
</g>
<defs>
<clipPath id="clip0_6314_89472">
<rect width="30" height="30" fill="white" transform="translate(0.44751)"/>
</clipPath>
</defs>
</svg>
