<svg width="32" height="32" viewBox="0 0 32 32" fill="none" xmlns="http://www.w3.org/2000/svg">
<path d="M24.3001 18.8333C24.9401 18.8336 25.5715 18.9813 26.1452 19.265C26.7189 19.5487 27.2196 19.9607 27.6083 20.4692C27.9971 20.9776 28.2635 21.5688 28.3868 22.1968C28.5102 22.8248 28.4873 23.4728 28.3197 24.0906C28.1522 24.7083 27.8447 25.2791 27.4209 25.7588C26.9971 26.2384 26.4686 26.614 25.8762 26.8564C25.2838 27.0987 24.6436 27.2014 24.0051 27.1563C23.3667 27.1113 22.7472 26.9198 22.1947 26.5967C20.2143 27.9022 17.8673 28.5378 15.4987 28.41C14.335 28.3502 13.1879 28.1079 12.0994 27.692L11.8067 27.5747L12.5747 25.728C13.5281 26.1247 14.5481 26.3573 15.6034 26.4127C17.4001 26.51 19.1852 26.0719 20.7327 25.154C20.3512 24.522 20.1444 23.7999 20.1336 23.0617C20.1228 22.3236 20.3083 21.5958 20.6711 20.9528C21.034 20.3099 21.5611 19.7749 22.1987 19.4026C22.8362 19.0303 23.5611 18.8341 24.2994 18.834L24.3001 18.8333ZM10.0301 7.95267L11.1147 9.63267C9.89768 10.4155 8.88442 11.4768 8.15873 12.7288C7.43305 13.9808 7.01577 15.3875 6.9414 16.8327C6.90466 17.5256 6.94671 18.2205 7.06674 18.904C8.06474 18.717 9.09668 18.9008 9.96869 19.421C10.8407 19.9412 11.4928 20.7618 11.8024 21.7288C12.112 22.6959 12.0579 23.7426 11.6501 24.6726C11.2424 25.6025 10.5091 26.3515 9.58811 26.7789C8.66709 27.2063 7.62169 27.2827 6.64831 26.9937C5.67493 26.7048 4.84057 26.0703 4.30198 25.2095C3.76339 24.3488 3.55763 23.321 3.72338 22.3192C3.88912 21.3175 4.41495 20.4107 5.20207 19.7693C4.97687 18.7722 4.89027 17.7488 4.94474 16.728C5.0334 15.0086 5.52024 13.3333 6.36686 11.8342C7.21349 10.3351 8.39677 9.0531 9.8234 8.08933L10.0301 7.95267ZM24.3001 20.8333C23.7254 20.8333 23.1743 21.0616 22.768 21.4679C22.3617 21.8743 22.1334 22.4254 22.1334 23C22.1334 23.5746 22.3617 24.1257 22.768 24.5321C23.1743 24.9384 23.7254 25.1667 24.3001 25.1667C24.8747 25.1667 25.4258 24.9384 25.8321 24.5321C26.2385 24.1257 26.4667 23.5746 26.4667 23C26.4667 22.4254 26.2385 21.8743 25.8321 21.4679C25.4258 21.0616 24.8747 20.8333 24.3001 20.8333ZM7.8334 20.8333C7.25877 20.8333 6.70767 21.0616 6.30134 21.4679C5.89501 21.8743 5.66674 22.4254 5.66674 23C5.66674 23.5746 5.89501 24.1257 6.30134 24.5321C6.70767 24.9384 7.25877 25.1667 7.8334 25.1667C8.40804 25.1667 8.95914 24.9384 9.36547 24.5321C9.7718 24.1257 10.0001 23.5746 10.0001 23C10.0001 22.4254 9.7718 21.8743 9.36547 21.4679C8.95914 21.0616 8.40804 20.8333 7.8334 20.8333ZM16.0667 3C17.1356 3.00002 18.1635 3.41076 18.938 4.14731C19.7125 4.88385 20.1744 5.88987 20.2281 6.95733C22.3004 7.79699 24.0721 9.24091 25.3125 11.1012C26.553 12.9615 27.2049 15.1521 27.1834 17.388L27.1787 17.6227L25.1801 17.56C25.2351 15.7587 24.7565 13.9812 23.8042 12.4512C22.8519 10.9211 21.4686 9.70673 19.8281 8.96067C19.5072 9.63329 19.0118 10.2076 18.3935 10.6236C17.7752 11.0396 17.0566 11.2822 16.3127 11.3261C15.5687 11.37 14.8266 11.2135 14.1637 10.873C13.5008 10.5325 12.9413 10.0205 12.5436 9.39024C12.1459 8.75999 11.9246 8.03461 11.9025 7.28969C11.8805 6.54478 12.0587 5.80759 12.4185 5.15496C12.7783 4.50234 13.3066 3.95816 13.9483 3.57913C14.5899 3.20011 15.3215 3.00012 16.0667 3ZM16.0667 5C15.7822 5 15.5005 5.05604 15.2376 5.16493C14.9747 5.27381 14.7359 5.43341 14.5347 5.6346C14.3335 5.8358 14.1739 6.07465 14.065 6.33752C13.9561 6.60039 13.9001 6.88214 13.9001 7.16667C13.9001 7.4512 13.9561 7.73294 14.065 7.99581C14.1739 8.25869 14.3335 8.49754 14.5347 8.69873C14.7359 8.89993 14.9747 9.05952 15.2376 9.16841C15.5005 9.27729 15.7822 9.33333 16.0667 9.33333C16.6414 9.33333 17.1925 9.10506 17.5988 8.69873C18.0051 8.2924 18.2334 7.7413 18.2334 7.16667C18.2334 6.59203 18.0051 6.04093 17.5988 5.6346C17.1925 5.22827 16.6414 5 16.0667 5Z" fill="#7680DD"/>
</svg>
