<svg width="32" height="32" viewBox="0 0 32 32" fill="none" xmlns="http://www.w3.org/2000/svg">
<path d="M29.2656 16.5218C29.4541 16.5257 29.6334 16.604 29.7643 16.7396C29.8952 16.8753 29.9671 17.0573 29.9642 17.2458L29.9536 17.6498C29.8626 19.9804 29.1739 22.2485 27.9536 24.2362C26.7334 26.2239 25.0226 27.8645 22.9856 29.0005C22.904 29.0457 22.8143 29.0743 22.7216 29.0847C22.6289 29.095 22.535 29.0869 22.4455 29.0607C22.356 29.0346 22.2725 28.9909 22.2 28.9323C22.1275 28.8736 22.0673 28.8012 22.0229 28.7191C21.932 28.5527 21.9104 28.3572 21.9628 28.1749C22.0153 27.9927 22.1375 27.8385 22.3029 27.7458C24.1256 26.7294 25.6563 25.2615 26.7481 23.483C27.8399 21.7045 28.4562 19.6751 28.5376 17.5898L28.5469 17.2285C28.5487 17.0395 28.6253 16.859 28.7601 16.7265C28.8948 16.594 29.0766 16.5204 29.2656 16.5218ZM2.7349 16.5218C2.82852 16.5209 2.92138 16.5385 3.00819 16.5736C3.095 16.6086 3.17404 16.6605 3.24079 16.7261C3.30755 16.7917 3.3607 16.8699 3.39721 16.9561C3.43372 17.0423 3.45287 17.1349 3.45357 17.2285L3.4629 17.5885C3.54423 19.6741 4.16053 21.7039 5.25259 23.4826C6.34466 25.2614 7.87579 26.7295 9.6989 27.7458C9.86412 27.8387 9.98603 27.993 10.0382 28.1752C10.0904 28.3574 10.0686 28.5529 9.97757 28.7191C9.9331 28.8011 9.87282 28.8734 9.80023 28.9319C9.72764 28.9904 9.64416 29.0339 9.55464 29.0599C9.46512 29.086 9.37133 29.094 9.27869 29.0836C9.18604 29.0731 9.09639 29.0444 9.0149 28.9991C6.97803 27.8633 5.26737 26.2229 4.04715 24.2354C2.82693 22.248 2.13814 19.9802 2.0469 17.6498L2.03624 17.2458C2.03302 17.0572 2.10479 16.875 2.23579 16.7393C2.36678 16.6035 2.54629 16.5253 2.7349 16.5218ZM16.0002 6.16447C18.8292 6.16447 21.5423 7.28827 23.5427 9.28866C25.5431 11.2891 26.6669 14.0022 26.6669 16.8311C26.6669 19.6601 25.5431 22.3732 23.5427 24.3736C21.5423 26.374 18.8292 27.4978 16.0002 27.4978C13.1713 27.4978 10.4582 26.374 8.45776 24.3736C6.45738 22.3732 5.33357 19.6601 5.33357 16.8311C5.33357 14.0022 6.45738 11.2891 8.45776 9.28866C10.4582 7.28827 13.1713 6.16447 16.0002 6.16447ZM16.0002 7.89513C13.6303 7.89513 11.3574 8.8366 9.68153 10.5124C8.0057 12.1883 7.06424 14.4612 7.06424 16.8311C7.06424 19.2011 8.0057 21.474 9.68153 23.1498C11.3574 24.8257 13.6303 25.7671 16.0002 25.7671C18.3702 25.7671 20.6431 24.8257 22.3189 23.1498C23.9948 21.474 24.9362 19.2011 24.9362 16.8311C24.9362 14.4612 23.9948 12.1883 22.3189 10.5124C20.6431 8.8366 18.3702 7.89513 16.0002 7.89513ZM14.8362 12.2885L18.4002 21.0725H16.6136L15.8229 19.0085H12.3762L11.6202 21.0725H9.95357L13.3842 12.2885H14.8376H14.8362ZM20.7336 12.2885V21.0725H19.0669V12.2885H20.7336ZM14.0616 14.4031L12.8976 17.5805H15.2762L14.0616 14.4031ZM16.6669 2.91914C18.8989 3.01247 21.0336 3.64047 22.9242 4.73647C23.0115 4.78067 23.0888 4.84222 23.1514 4.91734C23.214 4.99246 23.2607 5.07957 23.2885 5.17334C23.3163 5.26711 23.3246 5.36557 23.313 5.46268C23.3014 5.55979 23.2702 5.65352 23.2211 5.73812C23.172 5.82272 23.1062 5.89642 23.0277 5.9547C22.9491 6.01297 22.8595 6.0546 22.7643 6.07704C22.6691 6.09948 22.5703 6.10225 22.474 6.08519C22.3777 6.06812 22.2859 6.03158 22.2042 5.9778C20.498 4.98978 18.5769 4.43194 16.6069 4.35247C14.2571 4.24998 11.9281 4.83223 9.9029 6.02847C9.739 6.12536 9.54332 6.15317 9.35891 6.10579C9.1745 6.05841 9.01646 5.93971 8.91957 5.7758C8.82268 5.6119 8.79486 5.41622 8.84225 5.23181C8.88963 5.0474 9.00833 4.88936 9.17224 4.79247C11.4363 3.45541 14.04 2.80462 16.6669 2.91914Z" fill="#7680DD"/>
</svg>
