<svg width="30" height="30" viewBox="0 0 30 30" fill="none" xmlns="http://www.w3.org/2000/svg">
<g clip-path="url(#clip0_6723_2654)">
<path d="M30 23.4375C30 24.1834 29.7037 24.8988 29.1762 25.4262C28.6488 25.9537 27.9334 26.25 27.1875 26.25H21.5625C20.8166 26.25 20.1012 25.9537 19.5738 25.4262C19.0463 24.8988 18.75 24.1834 18.75 23.4375V21.5625C18.75 20.8166 19.0463 20.1012 19.5738 19.5738C20.1012 19.0463 20.8166 18.75 21.5625 18.75H23.3981C23.3231 17.4487 23.0513 16.6781 22.6781 16.425C22.2281 16.1231 21.7144 16.0463 20.3475 16.0256L19.8412 16.0162C19.6035 16.0116 19.3659 16.0004 19.1287 15.9825L18.6975 15.9394C17.9142 15.8601 17.1574 15.6119 16.4794 15.2119C15.8944 14.8594 15.4069 14.2181 14.9869 13.2806C14.5688 14.2181 14.0813 14.8594 13.4963 15.2119C12.8188 15.6117 12.0626 15.8599 11.28 15.9394L10.8487 15.9825C10.6163 16.0013 10.4175 16.0106 10.1363 16.0162L9.63 16.0256C8.26125 16.0444 7.7475 16.1231 7.2975 16.4269C6.92438 16.6781 6.6525 17.4487 6.57938 18.75H8.4375C9.18342 18.75 9.89879 19.0463 10.4262 19.5738C10.9537 20.1012 11.25 20.8166 11.25 21.5625V23.4375C11.25 24.1834 10.9537 24.8988 10.4262 25.4262C9.89879 25.9537 9.18342 26.25 8.4375 26.25H2.8125C2.06658 26.25 1.35121 25.9537 0.823762 25.4262C0.296316 24.8988 0 24.1834 0 23.4375L0 21.5625C0 20.8166 0.296316 20.1012 0.823762 19.5738C1.35121 19.0463 2.06658 18.75 2.8125 18.75H4.70062C4.79437 16.8263 5.2725 15.5306 6.24937 14.8725C6.98062 14.3775 7.6275 14.2219 8.865 14.1713L10.2525 14.1375C10.365 14.1337 10.4625 14.13 10.56 14.1225L10.7063 14.1131C11.4675 14.055 12.0338 13.9069 12.5269 13.6069C12.9019 13.3819 13.3294 12.5887 13.7325 11.2537L12.1875 11.25C11.4416 11.25 10.7262 10.9537 10.1988 10.4262C9.67132 9.89879 9.375 9.18342 9.375 8.4375V6.5625C9.375 5.81658 9.67132 5.10121 10.1988 4.57376C10.7262 4.04632 11.4416 3.75 12.1875 3.75H17.8125C18.5584 3.75 19.2738 4.04632 19.8012 4.57376C20.3287 5.10121 20.625 5.81658 20.625 6.5625V8.4375C20.625 9.18342 20.3287 9.89879 19.8012 10.4262C19.2738 10.9537 18.5584 11.25 17.8125 11.25L16.245 11.2537C16.6462 12.5887 17.0756 13.3819 17.4487 13.6069C17.9419 13.9069 18.5081 14.055 19.2712 14.1131L19.4175 14.1225C19.5131 14.13 19.6106 14.1337 19.7231 14.1375L21.1106 14.1713C22.3481 14.2219 22.995 14.3775 23.7281 14.8725C24.7031 15.5288 25.1812 16.8263 25.275 18.75H27.1875C27.9334 18.75 28.6488 19.0463 29.1762 19.5738C29.7037 20.1012 30 20.8166 30 21.5625V23.4375ZM9.375 23.4375V21.5625C9.375 21.3139 9.27623 21.0754 9.10041 20.8996C8.9246 20.7238 8.68614 20.625 8.4375 20.625H2.8125C2.56386 20.625 2.3254 20.7238 2.14959 20.8996C1.97377 21.0754 1.875 21.3139 1.875 21.5625V23.4375C1.875 23.6861 1.97377 23.9246 2.14959 24.1004C2.3254 24.2762 2.56386 24.375 2.8125 24.375H8.4375C8.68614 24.375 8.9246 24.2762 9.10041 24.1004C9.27623 23.9246 9.375 23.6861 9.375 23.4375ZM18.75 8.4375V6.5625C18.75 6.31386 18.6512 6.0754 18.4754 5.89959C18.2996 5.72377 18.0611 5.625 17.8125 5.625H12.1875C11.9389 5.625 11.7004 5.72377 11.5246 5.89959C11.3488 6.0754 11.25 6.31386 11.25 6.5625V8.4375C11.25 8.68614 11.3488 8.9246 11.5246 9.10041C11.7004 9.27623 11.9389 9.375 12.1875 9.375H17.8125C18.0611 9.375 18.2996 9.27623 18.4754 9.10041C18.6512 8.9246 18.75 8.68614 18.75 8.4375ZM28.125 23.4375V21.5625C28.125 21.3139 28.0262 21.0754 27.8504 20.8996C27.6746 20.7238 27.4361 20.625 27.1875 20.625H21.5625C21.3139 20.625 21.0754 20.7238 20.8996 20.8996C20.7238 21.0754 20.625 21.3139 20.625 21.5625V23.4375C20.625 23.6861 20.7238 23.9246 20.8996 24.1004C21.0754 24.2762 21.3139 24.375 21.5625 24.375H27.1875C27.4361 24.375 27.6746 24.2762 27.8504 24.1004C28.0262 23.9246 28.125 23.6861 28.125 23.4375Z" fill="#6B7280"/>
</g>
<defs>
<clipPath id="clip0_6723_2654">
<rect width="30" height="30" fill="white"/>
</clipPath>
</defs>
</svg>
