<svg width="37" height="37" viewBox="0 0 37 37" fill="none" xmlns="http://www.w3.org/2000/svg">
<path d="M9.6269 18.9508C9.01167 18.9508 8.51245 18.4516 8.51245 17.8363V7.03633C8.51245 6.42109 9.01167 5.92188 9.6269 5.92188C10.2421 5.92188 10.7414 6.42109 10.7414 7.03633V17.8328C10.7414 18.4516 10.2421 18.9508 9.6269 18.9508ZM9.6269 29.1426C9.01167 29.1426 8.51245 28.6434 8.51245 28.0281V24.3473C8.51245 23.732 9.01167 23.2328 9.6269 23.2328C10.2421 23.2328 10.7414 23.732 10.7414 24.3473V28.0281C10.7414 28.6434 10.2421 29.1426 9.6269 29.1426ZM28.1824 29.1426C27.5671 29.1426 27.0679 28.6434 27.0679 28.0281V16.3246C27.0679 15.7094 27.5671 15.2102 28.1824 15.2102C28.7976 15.2102 29.2968 15.7094 29.2968 16.3246V28.0281C29.2968 28.6434 28.8011 29.1426 28.1824 29.1426ZM18.8871 28.8578C18.2718 28.8578 17.7726 28.3586 17.7726 27.7434V19.675C17.7726 19.0598 18.2718 18.5605 18.8871 18.5605C19.5023 18.5605 20.0015 19.0598 20.0015 19.675V27.7434C19.998 28.3621 19.5023 28.8578 18.8871 28.8578ZM18.8871 14.0395C18.2718 14.0395 17.7726 13.5402 17.7726 12.925V6.75508C17.7726 6.13984 18.2718 5.64062 18.8871 5.64062C19.5023 5.64062 20.0015 6.13984 20.0015 6.75508V12.9285C19.998 13.5438 19.5023 14.0395 18.8871 14.0395ZM28.1824 10.9281C27.5671 10.9281 27.0679 10.4289 27.0679 9.81367V7.03984C27.0679 6.42461 27.5671 5.92539 28.1824 5.92539C28.7976 5.92539 29.2968 6.42461 29.2968 7.03984V9.81367C29.2968 10.4289 28.8011 10.9281 28.1824 10.9281Z" fill="#5060F5"/>
<path d="M9.78513 24.9281C7.50701 24.9281 5.65076 23.0754 5.65076 20.7937C5.65076 18.5121 7.50701 16.6594 9.78513 16.6594C12.0633 16.6594 13.9195 18.5156 13.9195 20.7937C13.9195 23.0719 12.0633 24.9281 9.78513 24.9281ZM9.78513 18.8848C8.73396 18.8848 7.87966 19.7391 7.87966 20.7902C7.87966 21.8414 8.73396 22.6957 9.78513 22.6957C10.8363 22.6957 11.6941 21.8414 11.6941 20.7902C11.6906 19.7426 10.8363 18.8848 9.78513 18.8848ZM18.8871 20.6145C16.609 20.6145 14.7527 18.7617 14.7527 16.4801C14.7527 14.1984 16.6054 12.3457 18.8871 12.3457C21.1652 12.3457 23.0215 14.202 23.0215 16.4801C23.0215 18.7582 21.1652 20.6145 18.8871 20.6145ZM18.8871 14.5746C17.8359 14.5746 16.9816 15.4289 16.9816 16.4801C16.9816 17.5312 17.8359 18.3855 18.8871 18.3855C19.9383 18.3855 20.7961 17.5312 20.7961 16.4801C20.7926 15.4289 19.9383 14.5746 18.8871 14.5746ZM27.9258 17.148C25.6476 17.148 23.7914 15.2918 23.7914 13.0137C23.7914 10.7355 25.6476 8.88281 27.9258 8.88281C30.2039 8.88281 32.0601 10.7355 32.0601 13.0172C32.0601 15.2988 30.2039 17.148 27.9258 17.148ZM27.9258 11.1082C26.8746 11.1082 26.0203 11.9625 26.0203 13.0137C26.0203 14.0648 26.8746 14.9191 27.9258 14.9191C28.9769 14.9191 29.8312 14.0648 29.8312 13.0137C29.8312 11.9625 28.9769 11.1082 27.9258 11.1082Z" fill="#5060F5"/>
</svg>
