<svg width="282" height="35" viewBox="0 0 282 35" fill="none" xmlns="http://www.w3.org/2000/svg">
<path d="M17.2923 1.26836C19.0588 1.26836 20.8646 1.6093 22.371 2.29095C23.8772 2.9726 25.178 3.91534 26.2736 5.11962C27.369 6.32359 28.2281 7.76275 28.8514 9.43649C29.4742 11.1102 29.7859 12.9317 29.7859 14.9006V20.217C29.7859 22.2015 29.8337 24.2966 29.8337 25.9455C29.8337 30.0677 29.4458 30.787 28.3504 31.9913C27.2548 33.1953 25.3838 33.915 23.3072 33.915C21.2306 33.915 19.154 33.915 17.4619 33.8492H3.04322C2.65968 33.8492 2.30376 33.7736 1.97512 33.622C1.64648 33.4708 1.36214 33.2625 1.12266 32.9972C0.882943 32.7325 0.694588 32.4177 0.55791 32.0543C0.420918 31.691 0.352539 31.2972 0.352539 30.8728V4.24478C0.352539 3.83587 0.392531 3.46683 0.392531 2.91721C0.392531 2.53239 0.449461 2.09071 0.689178 1.81798C0.928581 1.54555 1.50862 1.26836 1.87576 1.26836H5.48484M24.4456 14.9006C24.4456 13.7495 24.2777 12.6968 23.9424 11.7425C23.6066 10.7882 23.1311 9.97422 22.5149 9.3C21.8987 8.62641 21.1624 8.10377 20.3068 7.73233C19.4509 7.36158 18.5026 7.17567 17.4621 7.17567H5.6928V27.9419H17.462C18.5025 27.9419 19.6922 27.8691 20.6374 27.8691C21.824 27.8691 23.3073 27.8691 23.9006 27.5943C24.6511 27.2467 24.4939 25.6706 24.4939 24.2966C24.4939 23.3003 24.4455 21.3836 24.4455 20.2169L24.4456 14.9006Z" fill="#42424A"/>
<path d="M63.7016 26.4213C63.7016 27.1817 63.6545 28.6271 63.6545 29.5424C63.6545 30.4624 63.7957 31.8402 63.1957 32.5935C62.5955 33.347 62.3968 33.4694 61.3604 33.8139C60.4427 34.119 57.5031 33.984 56.1195 33.984H46.1864C45.4241 33.984 43.576 34.1048 42.7011 33.8139C42.0893 33.6105 41.4775 33.3054 40.8658 32.8986C40.0933 32.3849 39.6423 31.373 39.6423 29.8474V23.7453C39.6423 22.83 39.6538 22.3631 40.2541 21.6096C40.854 20.8563 41.7338 20.3892 42.7012 20.3892C43.6189 20.3892 44.8026 20.363 46.1865 20.363H51.9618L53.4073 20.3892V24.9658L51.9167 24.9917H46.1865C45.438 24.9917 44.2307 24.9963 44.2307 24.9963V27.4066C44.2307 28.1247 44.2307 28.627 44.5452 29.0582C44.9105 29.559 45.5793 29.6604 46.2289 29.6604H56.1196C56.8677 29.6604 57.8919 29.6881 58.3016 29.2374C58.711 28.7868 58.6075 27.0552 58.6075 26.3791V21.3042C58.6075 20.3892 58.9134 18.2534 57.9957 17.3381C57.078 16.4227 55.8545 16.1177 54.9368 16.1177L47.5812 16.0607L41.7836 16.1177V11.0834L47.4005 11.1481H56.1196C56.8821 11.1481 57.7043 11.2822 58.5868 11.5494C59.4691 11.817 60.2882 12.2502 61.0437 12.8485C61.7988 13.4474 62.4309 14.2289 62.9392 15.1934C63.4475 16.1582 63.7017 17.3306 63.7017 18.7108L63.7016 26.4213Z" fill="#42424A"/>
<path d="M122.192 18.8634V21.9148C122.192 22.8348 122.229 24.0506 121.923 24.6608C121.502 25.5009 120.694 25.7287 119.782 25.7287C118.44 25.7287 116.932 25.6635 115.636 25.6635H108.173V21.361H115.636C116.337 21.361 117.157 21.482 117.61 20.9995C117.897 20.6944 117.897 20.7624 117.897 20.3893V16.0873C117.61 16.0873 116.244 16.0609 115.636 16.0609L107.301 16.1178C105.583 16.1178 105.107 17.186 104.724 17.6433C104.34 18.1013 104.151 19.103 104.151 19.7791L104.137 26.4214C104.137 27.1538 104.008 28.5241 104.438 28.9323C104.867 29.3408 105.743 29.3554 106.377 29.3554H121.233V33.9842H106.338C105.624 33.9842 104.442 33.9666 103.579 33.9666C102.719 33.9666 101.422 33.8024 100.715 33.2038C100.008 32.6052 100.045 32.6431 99.5695 31.6783C99.0936 30.7138 99.2396 27.8019 99.2396 26.4214V18.7109C99.2396 17.9502 99.3649 17.1299 99.6163 16.2498C99.8673 15.3699 100.274 14.5529 100.836 13.7993C101.397 13.0461 102.131 12.4156 103.036 11.9085C103.942 11.4017 105.042 11.1481 106.338 11.1481H115.637C116.35 11.1481 117.643 10.9687 118.47 11.236C119.295 11.5036 119.767 11.553 120.474 12.1513C121.181 12.7502 121.43 13.0175 121.906 13.982C122.382 14.9468 122.192 17.4833 122.192 18.8634Z" fill="#42424A"/>
<path d="M157.401 33.984H151.894V21.3089C151.894 20.5908 151.77 19.9463 151.524 19.3761C151.276 18.8058 150.941 18.3166 150.518 17.908C150.094 17.4995 149.596 17.1864 149.024 16.968C148.453 16.7496 147.835 16.6405 147.171 16.6405H137.535V33.984H132.028V13.8731C132.028 13.4929 132.099 13.1374 132.24 12.8061C132.381 12.4754 132.579 12.1866 132.833 11.9402C133.087 11.6938 133.384 11.5001 133.723 11.3592C134.062 11.2186 134.422 11.148 134.803 11.148H147.214C147.905 11.148 148.636 11.2254 149.406 11.3803C150.175 11.5353 150.938 11.7853 151.693 12.1303C152.448 12.4753 153.168 12.9118 153.854 13.4398C154.538 13.9681 155.145 14.609 155.675 15.3623C156.204 16.1158 156.624 16.9856 156.935 17.9712C157.245 18.9571 157.401 20.0701 157.401 21.3089L157.401 33.984Z" fill="#42424A"/>
<path d="M192.184 31.3608C192.184 32.6295 191.153 33.6579 189.881 33.6579H169.513C169.118 33.6579 168.75 33.5876 168.412 33.4467C168.073 33.306 167.78 33.1124 167.533 32.8657C167.286 32.6196 167.091 32.327 166.95 31.9891C166.809 31.6512 166.739 31.285 166.739 30.8906V0.923828H169.019C170.801 0.923828 172.245 2.36479 172.245 4.14231V28.1655H192.184L192.184 31.3608Z" fill="#42424A"/>
<path d="M281.865 26.3018C281.865 27.2455 281.744 28.0941 281.505 28.8473C281.264 29.6008 280.947 30.2626 280.552 30.8332C280.156 31.4034 279.697 31.8894 279.175 32.2908C278.652 32.6921 278.105 33.0196 277.533 33.2732C276.962 33.5264 276.383 33.7133 275.797 33.8327C275.211 33.9525 274.656 34.0124 274.134 34.0124H264.201C263.255 34.0124 262.408 33.8929 261.66 33.6534C260.911 33.4141 260.251 33.0935 259.679 32.6922C259.108 32.2909 258.621 31.8297 258.218 31.3085C257.816 30.7877 257.487 30.2415 257.233 29.6712C256.979 29.1009 256.792 28.5235 256.672 27.9389C256.552 27.3549 256.492 26.8088 256.492 26.3019V18.8658C256.492 17.4577 256.75 16.2641 257.265 15.2853C257.78 14.3065 258.423 13.5106 259.192 12.8981C259.962 12.2855 260.798 11.8454 261.702 11.5778C262.605 11.3105 263.439 11.1765 264.201 11.1765H274.134V16.669L266.553 16.7563C264.412 16.7563 263.569 17.604 263.188 17.9767C262.807 18.35 261.965 19.5022 261.965 21.3329L261.999 26.2596C261.999 27.0063 262.186 27.5694 262.56 27.9496C262.934 28.3298 263.481 28.5199 264.201 28.5199H274.134C274.883 28.5199 275.44 28.3298 275.807 27.9496C276.174 27.5694 276.358 27.02 276.358 26.3019L276.342 1.1957H281.848L281.865 26.3018Z" fill="#42424A"/>
<path d="M90.6476 16.5754L83.7266 16.6406V33.9841H78.1565V16.6406H70.9979V11.1481H78.1565V3.69081H81.4138C82.6911 3.69081 83.7266 4.72364 83.7266 5.99769V11.1481L90.6476 11.0834V16.5754Z" fill="#42424A"/>
<path d="M230.813 34.1472H236.319L236.625 23.4411C236.625 21.8015 236.907 19.8906 238.045 18.7071C239.055 17.6565 240.627 16.7561 243.048 16.7561H251.002V11.2641H240.165C238.395 11.2641 236.64 11.7161 235.143 12.6581C232.937 14.0467 230.652 16.8018 230.813 22.248L230.813 34.1472Z" fill="#42424A"/>
<path d="M214.828 34.1474H211.68C205.565 34.1474 200.609 29.2035 200.609 23.1051V22.3066C200.609 16.2081 205.565 11.2643 211.68 11.2643H214.828C220.943 11.2643 225.899 16.2081 225.899 22.3066V23.1051C225.899 29.2035 220.943 34.1474 214.828 34.1474ZM219.076 24.9075V23.0779C219.076 19.8604 216.461 17.252 213.235 17.252H211.307C209.31 17.252 207.69 18.8674 207.69 20.86V22.4277C207.69 25.7899 210.423 28.5155 213.794 28.5155H215.458C217.456 28.5155 219.076 26.9002 219.076 24.9075Z" fill="#42424A"/>
</svg>
