<svg width="450" height="153" viewBox="0 0 450 153" fill="none" xmlns="http://www.w3.org/2000/svg">
<g clip-path="url(#clip0_1577_2607)">
<path d="M12.9014 102.679V94.8301H55.726V109.315H19.5354C15.8699 109.315 12.9014 106.346 12.9014 102.679Z" fill="#7767A0"/>
<path d="M135.077 51.9941H146.848C148.345 51.9941 149.559 53.2077 149.559 54.7052V88.9162C149.559 93.228 146.074 96.7137 141.763 96.7137H135.077V51.9941Z" fill="#7767A0"/>
<path d="M121.654 75.3089C121.654 80.2405 120.802 84.7589 119.099 88.9159C117.395 93.047 115.02 96.6101 112.026 99.6052C109.005 102.6 105.443 104.924 101.313 106.628C97.1829 108.332 92.6913 109.158 87.8384 109.158H48.2405C47.1822 109.158 46.2012 108.978 45.2978 108.59C44.3943 108.203 43.6199 107.687 42.9487 107.041C42.2776 106.396 41.7613 105.595 41.3999 104.692C41.0127 103.788 40.832 102.807 40.832 101.748V35.65C40.832 34.6431 41.0127 33.6877 41.3999 32.7841C41.7871 31.8804 42.3034 31.08 42.9487 30.4087C43.5941 29.7373 44.3943 29.1951 45.2978 28.8337C46.2012 28.4464 47.1822 28.2656 48.2405 28.2656H87.8384C92.6913 28.2656 97.1829 29.1177 101.313 30.7959C105.443 32.5 109.031 34.8238 112.026 37.8189C115.02 40.814 117.395 44.3771 119.099 48.534C120.802 52.691 121.654 57.2094 121.654 62.0893V75.2831V75.3089ZM106.992 62.1151C106.992 59.2491 106.527 56.6414 105.598 54.266C104.669 51.8906 103.378 49.8766 101.674 48.1984C99.9708 46.5201 97.9573 45.2291 95.6083 44.2996C93.2592 43.3701 90.6521 42.9053 87.7868 42.9053H55.4683V94.4671H87.7868C90.6521 94.4671 93.2592 94.0023 95.6083 93.0728C97.9573 92.1433 99.9708 90.8523 101.674 89.1741C103.378 87.4958 104.669 85.4819 105.598 83.1323C106.527 80.7827 106.992 78.1491 106.992 75.2573V62.0635V62.1151Z" fill="#7767A0"/>
<path d="M40.9355 94.209H55.4169V137.044H47.931C44.059 137.044 40.9355 133.92 40.9355 130.047V94.209V94.209Z" fill="#7767A0"/>
<path d="M20.8265 0.355469H27.3832V109.314H19.794C15.9736 109.314 12.876 106.216 12.876 102.395V8.28209C12.9018 3.89275 16.4641 0.355469 20.8265 0.355469Z" fill="#7767A0"/>
<path d="M41.2451 130.382V122.533H84.0697V137.018H47.8792C44.2137 137.018 41.2451 134.049 41.2451 130.382V130.382Z" fill="#7767A0"/>
<path d="M41.2451 8.20463V0.355469H94.137V14.8403H47.8792C44.2137 14.8403 41.2451 11.871 41.2451 8.20463V8.20463Z" fill="#7767A0"/>
<path d="M135.129 55.6094C132.496 31.1841 119.099 22.457 113.471 19.8234C102.836 14.8661 90.8847 14.8403 90.7298 14.8403L90.6523 0.355469C91.2719 0.355469 105.882 0.355469 119.563 6.70709C127.437 10.3735 146.1 22.3021 149.533 54.0602L135.129 55.6094V55.6094Z" fill="#7767A0"/>
<path d="M87.2443 137.173C84.3532 137.173 82.5462 136.992 82.2881 136.967L83.7336 122.559C83.8885 122.559 100.719 124.083 114.787 115.975C125.706 109.675 134.122 103.685 135.103 89.0195L149.558 89.9749C147.983 113.548 131.747 122.921 122.015 128.524C108.953 136.063 94.6011 137.173 87.2443 137.173V137.173Z" fill="#7767A0"/>
<path d="M8.20379 136.425C12.2098 136.425 15.4574 133.176 15.4574 129.169C15.4574 125.162 12.2098 121.914 8.20379 121.914C4.19774 121.914 0.950195 125.162 0.950195 129.169C0.950195 133.176 4.19774 136.425 8.20379 136.425Z" fill="#7767A0"/>
<path d="M25.8344 128.215C29.1419 128.215 31.8232 125.533 31.8232 122.225C31.8232 118.916 29.1419 116.234 25.8344 116.234C22.5269 116.234 19.8457 118.916 19.8457 122.225C19.8457 125.533 22.5269 128.215 25.8344 128.215Z" fill="#7767A0"/>
<path d="M25.9115 152.355C31.2577 152.355 35.5916 148.02 35.5916 142.673C35.5916 137.325 31.2577 132.99 25.9115 132.99C20.5654 132.99 16.2314 137.325 16.2314 142.673C16.2314 148.02 20.5654 152.355 25.9115 152.355Z" fill="#7767A0"/>
<path d="M198.036 102.111C199.714 102.111 201.444 102.447 202.863 103.092C204.309 103.738 205.548 104.642 206.58 105.804C207.613 106.965 208.439 108.334 209.033 109.935C209.626 111.535 209.91 113.265 209.91 115.15V120.237C209.91 122.122 209.962 124.135 209.962 125.71C209.962 129.635 209.601 130.332 208.542 131.494C207.51 132.656 205.729 133.327 203.741 133.327C201.753 133.327 199.792 133.327 198.165 133.276H184.433C184.071 133.276 183.736 133.198 183.426 133.069C183.116 132.914 182.832 132.733 182.626 132.475C182.393 132.217 182.213 131.933 182.083 131.571C181.954 131.236 181.877 130.849 181.877 130.435V105.003C181.877 104.616 181.903 104.254 181.903 103.738C181.903 103.376 181.954 102.938 182.187 102.679C182.419 102.421 182.961 102.163 183.323 102.163H186.756M204.799 115.176C204.799 114.066 204.644 113.085 204.309 112.155C203.999 111.251 203.534 110.477 202.941 109.831C202.347 109.186 201.65 108.695 200.85 108.334C200.024 107.972 199.12 107.792 198.139 107.792H186.936V127.621H198.139C199.12 127.621 200.256 127.544 201.16 127.544C202.295 127.544 203.689 127.544 204.257 127.285C204.98 126.95 204.825 125.452 204.825 124.135C204.825 123.18 204.774 121.347 204.774 120.237V115.15L204.799 115.176Z" fill="#42424A"/>
<path d="M242.229 126.123C242.229 126.846 242.177 128.241 242.177 129.093C242.177 129.945 242.306 131.287 241.739 132.01C241.171 132.733 240.99 132.837 239.983 133.172C239.106 133.456 236.318 133.327 235.001 133.327H225.554C224.831 133.327 223.075 133.43 222.224 133.172C221.63 132.966 221.062 132.682 220.468 132.294C219.745 131.804 219.307 130.848 219.307 129.377V123.541C219.307 122.664 219.307 122.225 219.9 121.502C220.468 120.779 221.32 120.34 222.224 120.34C223.127 120.34 224.237 120.34 225.554 120.34H232.42V124.729H231H225.554C224.831 124.729 223.695 124.729 223.695 124.729V127.027C223.695 127.724 223.695 128.189 224.005 128.602C224.34 129.093 224.986 129.17 225.605 129.17H235.027C235.75 129.17 236.705 129.196 237.092 128.757C237.479 128.318 237.376 126.666 237.376 126.02V121.166C237.376 120.288 237.66 118.248 236.782 117.371C235.905 116.493 234.743 116.209 233.865 116.209L226.87 116.157L221.346 116.209V111.406L226.689 111.458H235.001C235.724 111.458 236.498 111.587 237.35 111.845C238.202 112.103 238.977 112.516 239.699 113.085C240.422 113.653 241.016 114.401 241.506 115.331C241.997 116.26 242.229 117.371 242.229 118.687V126.046V126.123Z" fill="#42424A"/>
<path d="M297.934 118.893V121.811C297.934 122.689 297.96 123.851 297.676 124.445C297.263 125.245 296.515 125.452 295.637 125.452C294.346 125.452 292.927 125.4 291.688 125.4H284.589V121.295H291.688C292.359 121.295 293.133 121.398 293.572 120.959C293.856 120.675 293.856 120.727 293.856 120.365V116.26C293.572 116.26 292.281 116.26 291.713 116.26L283.789 116.311C282.162 116.311 281.698 117.344 281.336 117.757C280.975 118.196 280.794 119.152 280.794 119.797V126.149C280.794 126.846 280.665 128.163 281.078 128.55C281.491 128.937 282.317 128.963 282.937 128.963H297.083V133.378H282.911C282.24 133.378 281.104 133.378 280.278 133.378C279.452 133.378 278.213 133.223 277.542 132.655C276.871 132.087 276.896 132.113 276.458 131.209C275.993 130.28 276.148 127.517 276.148 126.2V118.842C276.148 118.119 276.277 117.344 276.509 116.492C276.742 115.64 277.129 114.866 277.671 114.143C278.213 113.42 278.91 112.826 279.762 112.335C280.614 111.845 281.672 111.612 282.911 111.612H291.765C292.436 111.612 293.675 111.432 294.45 111.69C295.224 111.948 295.689 112 296.36 112.568C297.031 113.136 297.263 113.394 297.728 114.323C298.193 115.253 298.012 117.654 298.012 118.997L297.934 118.893Z" fill="#42424A"/>
<path d="M331.44 133.352H326.2V121.243C326.2 120.546 326.071 119.952 325.839 119.41C325.606 118.867 325.297 118.403 324.884 118.015C324.471 117.628 324.006 117.318 323.464 117.112C322.922 116.905 322.328 116.802 321.709 116.802H312.545V133.352H307.305V114.143C307.305 113.781 307.382 113.445 307.511 113.136C307.64 112.826 307.847 112.542 308.079 112.309C308.311 112.077 308.595 111.896 308.931 111.767C309.267 111.638 309.602 111.561 309.963 111.561H321.786C322.457 111.561 323.128 111.638 323.877 111.793C324.6 111.948 325.348 112.18 326.045 112.516C326.768 112.852 327.439 113.265 328.11 113.755C328.756 114.272 329.349 114.865 329.84 115.588C330.356 116.311 330.743 117.138 331.027 118.067C331.311 118.997 331.466 120.081 331.466 121.243V133.352H331.44Z" fill="#42424A"/>
<path d="M364.559 130.848C364.559 132.061 363.578 133.042 362.365 133.042H342.979C342.591 133.042 342.256 132.965 341.92 132.836C341.585 132.707 341.327 132.526 341.094 132.294C340.862 132.061 340.681 131.777 340.552 131.468C340.423 131.158 340.346 130.796 340.346 130.409V101.801H342.514C344.218 101.801 345.586 103.169 345.586 104.873V127.801H364.559V130.848Z" fill="#42424A"/>
<path d="M449.95 126.02C449.95 126.924 449.847 127.724 449.615 128.447C449.383 129.17 449.073 129.79 448.711 130.332C448.324 130.874 447.885 131.339 447.395 131.726C446.904 132.113 446.388 132.423 445.82 132.656C445.278 132.888 444.736 133.069 444.168 133.198C443.6 133.301 443.084 133.379 442.594 133.379H433.146C432.242 133.379 431.442 133.275 430.719 133.043C429.997 132.811 429.377 132.501 428.835 132.113C428.293 131.726 427.828 131.287 427.441 130.797C427.054 130.306 426.744 129.79 426.512 129.222C426.28 128.679 426.099 128.137 425.97 127.569C425.866 127.001 425.789 126.485 425.789 125.994V118.894C425.789 117.551 426.021 116.415 426.538 115.486C427.028 114.556 427.648 113.782 428.37 113.214C429.093 112.62 429.893 112.207 430.771 111.948C431.623 111.69 432.423 111.561 433.146 111.561H442.594V116.802L435.366 116.88C433.327 116.88 432.526 117.68 432.165 118.042C431.804 118.403 431.003 119.488 431.003 121.243V125.943C431.029 126.666 431.21 127.182 431.571 127.543C431.933 127.905 432.449 128.086 433.146 128.086H442.594C443.316 128.086 443.833 127.905 444.194 127.543C444.555 127.182 444.71 126.666 444.71 125.968V102.008H449.925V125.968L449.95 126.02Z" fill="#42424A"/>
<path d="M267.887 116.724L261.305 116.776V133.326H256.013V116.776H249.198V111.534H256.013V104.408H259.111C260.324 104.408 261.305 105.389 261.305 106.603V111.509L267.887 111.457V116.698V116.724Z" fill="#42424A"/>
<path d="M401.343 133.507H406.583L406.867 123.283C406.867 121.708 407.125 119.901 408.21 118.764C409.165 117.757 410.662 116.905 412.985 116.905H420.548V111.664H410.223C408.545 111.664 406.867 112.103 405.447 113.007C403.357 114.323 401.162 116.957 401.317 122.173V133.533L401.343 133.507Z" fill="#42424A"/>
<path d="M386.113 133.507H383.119C377.285 133.507 372.587 128.782 372.587 122.973V122.198C372.587 116.363 377.311 111.664 383.119 111.664H386.113C391.947 111.664 396.645 116.389 396.645 122.198V122.973C396.645 128.808 391.921 133.507 386.113 133.507ZM390.166 124.677V122.921C390.166 119.849 387.688 117.37 384.616 117.37H382.783C380.873 117.37 379.35 118.919 379.35 120.804V122.302C379.35 125.503 381.957 128.111 385.158 128.111H386.733C388.643 128.111 390.166 126.562 390.166 124.677Z" fill="#42424A"/>
<path d="M182.445 29.454C182.315 29.0408 182.651 28.6019 183.09 28.6019H188.046C188.769 28.5503 189.001 29.3765 189.233 30.3835C189.285 30.5126 189.776 32.6298 191.04 36.9675C191.169 37.3806 190.86 37.8195 190.395 37.8195H185.336C184.742 37.8195 184.716 37.3806 184.484 36.5285L182.419 29.454H182.445ZM182.703 39.9367H182.754C186.213 39.9367 188.691 40.4789 189.827 41.2793C191.634 42.2863 192.383 45.4879 192.383 47.6568V76.6006C192.383 78.1239 192.305 79.2342 192.744 79.544C193.131 79.828 194.138 79.7764 195.119 79.7764H240.267C240.628 79.7764 240.938 80.0604 240.938 80.4477V85.0177C240.938 85.3792 240.654 85.6891 240.267 85.6891H195.351C191.531 85.6891 189.879 84.5788 188.537 83.2878C187.452 82.255 186.446 80.4735 186.446 77.7108V48.1732C186.497 46.6756 186.291 46.5724 186.033 46.4691C185.697 46.34 184.148 46.2625 182.754 46.2625L182.599 46.2109C182.315 46.1334 182.135 45.8752 182.135 45.5654V40.5822C182.135 40.2724 182.367 39.9884 182.651 39.9367H182.703ZM215.718 28.6019H219.771C220.132 28.6019 220.442 28.8859 220.442 29.2732V41.1502H238.331C238.692 41.1502 239.002 41.4342 239.002 41.8215V45.8752C239.002 46.2367 238.718 46.5465 238.331 46.5465H223.281C229.993 62.7096 235.13 68.6481 237.092 72.0563C237.092 72.0563 237.169 72.1596 237.247 72.2629C237.453 72.5469 237.711 72.9342 237.324 73.2698L234.02 76.1874C233.71 76.4198 233.297 76.3682 233.065 76.0583C232.11 74.7157 229.296 71.0235 224.03 62.3223C222.017 58.2945 218.299 50.91 217.783 49.8256C217.783 49.8256 213.705 58.4494 211.511 62.503C209.755 65.7047 204.438 73.6313 202.915 76.0067C202.708 76.3424 202.243 76.4198 201.934 76.1616L198.294 73.2956L198.191 73.1924C197.984 72.96 197.958 72.6243 198.139 72.392C202.269 66.092 204.386 63.1227 206.348 59.3531C206.683 58.7076 207.045 58.0363 207.406 57.3908C209.729 53.1305 212.13 46.8822 212.285 46.5465H197.236C196.874 46.5465 196.565 46.2625 196.565 45.8752V41.8215C196.565 41.4601 196.848 41.1502 197.236 41.1502H215.099V29.2732C215.099 28.9117 215.383 28.6019 215.77 28.6019H215.718Z" fill="#42424A"/>
<path d="M326.82 28.5762H347.419C347.78 28.5762 348.09 28.8602 348.09 29.2475V33.3012C348.09 33.6626 347.806 33.9725 347.419 33.9725H339.83V42.0282H348.4C348.761 42.0282 349.071 42.3122 349.071 42.6995V47.1921C349.071 47.5536 348.787 47.8634 348.4 47.8634H339.83V85.0178C339.83 85.3793 339.546 85.6891 339.158 85.6891H335.106C334.744 85.6891 334.435 85.4051 334.435 85.0178V47.8634H325.865C325.503 47.8634 325.193 47.5794 325.193 47.1921V42.6995C325.193 42.338 325.477 42.0282 325.865 42.0282H334.435V33.9725H326.716C326.432 33.9725 326.148 33.7401 326.148 33.4561V29.2475C326.148 28.886 326.432 28.5762 326.82 28.5762ZM327.104 51.1941H331.027C331.389 51.1941 331.698 51.504 331.698 51.8655L330.976 84.5531C330.976 84.708 330.976 84.8629 330.976 85.0178C330.976 85.3793 330.666 85.6633 330.304 85.6633H326.329C325.968 85.6633 325.658 85.3535 325.658 84.992C325.735 82.1002 325.994 71.0494 326.432 51.8655C326.432 51.504 326.742 51.22 327.104 51.22V51.1941ZM343.211 51.1941H347.161C347.522 51.1941 347.806 51.4782 347.832 51.8396C347.909 54.8605 348.167 65.8855 348.606 84.9662C348.606 85.3277 348.322 85.6633 347.935 85.6633H343.934C343.547 85.6633 343.263 85.4826 343.237 85.0178L342.566 52.8724C342.566 52.7175 342.54 52.3818 342.54 51.8913C342.54 51.5298 342.824 51.22 343.211 51.22V51.1941ZM370.806 28.5762H374.884C375.246 28.5762 375.555 28.8602 375.555 29.2475V63.8974H382.422C382.783 63.8974 383.093 64.1814 383.093 64.5687V68.6482C383.093 69.0097 382.809 69.3195 382.422 69.3195H375.555V84.992C375.555 85.3535 375.272 85.6633 374.884 85.6633H370.806C370.444 85.6633 370.135 85.3793 370.135 84.992V69.3195H351.058C350.697 69.3195 350.387 69.0355 350.387 68.6482V64.5687C350.387 64.2072 350.671 63.8974 351.058 63.8974H370.135V29.2475C370.135 28.886 370.419 28.5762 370.806 28.5762ZM355.473 29.6348H360.3C360.558 29.6348 360.79 29.7897 360.919 30.0221L366.288 42.4155C366.469 42.8544 366.159 43.345 365.669 43.345H360.842C360.584 43.345 360.351 43.1901 360.222 42.9577L354.853 30.5643C354.672 30.1253 354.982 29.6348 355.473 29.6348ZM355.06 47.0114H359.861C360.119 47.0114 360.351 47.1663 360.455 47.3987C360.713 47.9409 361.229 49.0769 361.978 50.8327C362.184 51.22 363.449 54.0343 365.798 59.2499C366.004 59.6888 365.669 60.1794 365.204 60.1794H360.403C360.145 60.1794 359.913 60.0244 359.809 59.7921L354.466 47.9667C354.259 47.5278 354.595 47.0372 355.06 47.0372V47.0114Z" fill="#42424A"/>
<path d="M404.183 28.5755H408.365C408.726 28.5755 409.036 28.8595 409.036 29.2468V36.9152H414.663C415.024 36.9152 415.334 37.1993 415.334 37.5865V41.6402C415.334 42.0017 415.05 42.3115 414.663 42.3115H409.036V53.9304L414.508 51.9681C414.508 51.9681 415.36 51.7099 415.334 52.7168V57.2611C415.334 57.5193 415.153 57.7258 414.921 57.8808C414.353 58.2164 412.288 59.0685 412.288 59.0685C412.288 59.0685 409.449 60.1012 409.01 60.2303V75.4897C409.01 77.7619 408.726 80.0856 408.287 81.0151C407.564 82.8741 406.842 83.9069 405.06 84.8364C403.512 85.6368 402.221 85.6885 400.337 85.6885H397.42C397.058 85.6885 396.748 85.4045 396.748 85.0172V80.0082C396.748 79.6467 397.032 79.3368 397.42 79.3368H399.562C401.214 79.3368 402.84 79.466 403.228 78.9754C403.589 78.7172 403.512 76.1352 403.512 75.5672V62.8639H403.047L395.355 65.4975C394.916 65.6783 394.425 65.3684 394.425 64.8779V60.0238C394.425 59.7656 394.58 59.5332 394.812 59.4041C395.355 59.1717 398.22 58.139 398.22 58.139C398.22 58.139 401.24 57.1578 403.486 56.2541V42.2599H395.071C394.709 42.2599 394.399 41.9759 394.399 41.5886V37.5349C394.399 37.1734 394.683 36.8636 395.071 36.8636H403.486V29.1952C403.486 28.8337 403.77 28.5239 404.157 28.5239L404.183 28.5755ZM431.648 28.5755H436.114C436.475 28.5755 436.785 28.8595 436.785 29.2468V34.2816H448.608C448.969 34.2816 449.279 34.5657 449.279 34.9529V39.0066C449.279 39.3681 448.995 39.6779 448.608 39.6779H436.785V46.8816H444.374C447.472 46.8816 448.634 47.7337 449.511 49.4377C449.821 50.0316 449.976 50.7029 449.976 51.4517C449.976 53.3881 449.021 55.5054 447.498 58.2681C447.498 58.3197 445.407 62.1152 439.857 68.2602L437.818 70.6098C438.205 71.0488 442.413 75.9803 448.737 80.5504C449.047 80.7827 449.098 81.2475 448.84 81.5315L445.588 85.0946C445.355 85.327 444.994 85.3786 444.736 85.1979C443.936 84.6557 442.051 83.3131 438.953 80.4729C436.759 78.2782 433.713 75.3865 433.636 75.2832C431.648 76.8582 426.357 81.4799 420.574 84.9397C420.29 85.0946 419.929 85.043 419.722 84.7848L416.238 80.6536C415.954 80.318 416.057 79.8274 416.444 79.6467C417.89 78.8721 421.194 77.0905 423.285 75.4639C426.098 73.2692 429.428 70.1709 429.428 70.1709L419 56.9513C418.664 56.5123 418.974 55.8668 419.516 55.8668H425.298C425.505 55.8668 425.711 55.9701 425.84 56.1508C426.305 56.8222 427.492 58.5521 429.532 61.0824C429.97 61.5988 431.339 63.7676 433.61 65.9623H433.636C433.249 66.5045 436.037 63.9225 439.108 59.7139C440.528 58.0099 443.239 54.1886 443.29 52.8459C443.29 52.3554 442.283 52.3812 441.148 52.3812H418.483C418.122 52.3812 417.812 52.0972 417.812 51.7099V47.4755C417.812 47.114 418.096 46.8041 418.483 46.8041H431.029V39.6005H419.206C418.845 39.6005 418.535 39.3165 418.535 38.9292V34.8755C418.535 34.514 418.819 34.2042 419.206 34.2042H431.029V29.1694C431.029 28.8079 431.313 28.498 431.7 28.498L431.648 28.5755Z" fill="#42424A"/>
<path d="M261.435 28.5762H265.9C266.262 28.5762 266.571 28.8602 266.571 29.2475V42.777H271.786C272.147 42.777 272.457 43.061 272.457 43.4483V47.9667C272.457 48.3282 272.173 48.638 271.786 48.638H266.571V80.267H272.483C272.844 80.267 273.154 80.551 273.154 80.9383V85.0178C273.154 85.3793 272.87 85.6891 272.483 85.6891H254.413C254.052 85.6891 253.742 85.4051 253.742 85.0178V80.9383C253.742 80.5768 254.026 80.267 254.413 80.267H260.763V48.638H255.11C254.749 48.638 254.439 48.354 254.439 47.9667V43.4483C254.439 43.0868 254.723 42.777 255.11 42.777H260.763V29.2475C260.763 28.886 261.047 28.5762 261.435 28.5762ZM275.632 79.3633H313.604C313.965 79.3633 314.275 79.6473 314.275 80.0346V85.0178C314.275 85.3793 313.991 85.6891 313.604 85.6891H275.632C275.271 85.6891 274.961 85.4051 274.961 85.0178V80.0346C274.961 79.6732 275.245 79.3633 275.632 79.3633Z" fill="#42424A"/>
<path d="M300.542 72.7537H286.938C281.001 72.7537 276.122 67.8738 276.122 61.9353V40.3243C276.122 34.3858 281.001 29.5059 286.938 29.5059H300.542C306.479 29.5059 311.358 34.3858 311.358 40.3243V61.9611C311.358 67.8996 306.479 72.7795 300.542 72.7795V72.7537ZM305.446 64.7238V38.0263C305.446 36.6579 304.336 35.5476 302.968 35.5476H284.821C283.453 35.5476 282.343 36.6579 282.343 38.0263V64.7238C282.343 66.0922 283.453 67.2025 284.821 67.2025H302.968C304.336 67.2025 305.446 66.0922 305.446 64.7238ZM301.368 52.5111V49.3611C301.368 48.7415 300.877 48.2509 300.258 48.2509H282.343V53.6214H300.258C300.877 53.6214 301.368 53.1308 301.368 52.5111Z" fill="#42424A"/>
</g>
<defs>
<clipPath id="clip0_1577_2607">
<rect width="449" height="152" fill="white" transform="translate(0.950195 0.355469)"/>
</clipPath>
</defs>
</svg>
