<svg width="93" height="91" viewBox="0 0 93 91" fill="none" xmlns="http://www.w3.org/2000/svg">
<path d="M7.41992 61.3227L7.41992 56.6672H33.9743V65.2576H11.534C9.26338 65.2576 7.41992 63.4944 7.41992 61.3227Z" fill="#7767A0"/>
<path d="M83.1777 31.2695H90.4725C91.4035 31.2695 92.1594 31.9925 92.1594 32.883V53.1664C92.1594 55.717 89.9943 57.7877 87.3276 57.7877H83.1777V31.2695Z" fill="#7767A0"/>
<path d="M74.8548 45.0842C74.8548 48.0059 74.3243 50.6928 73.2634 53.1457C72.2021 55.5991 70.7392 57.7117 68.8744 59.4846C67.0085 61.2576 64.7939 62.6458 62.2293 63.6492C59.664 64.6528 56.8782 65.1545 53.8704 65.1545H29.3189C28.6658 65.1545 28.0597 65.0432 27.5002 64.82C26.9406 64.5973 26.4564 64.2906 26.0488 63.9001C25.6405 63.5102 25.3198 63.0472 25.087 62.5119C24.8536 61.9767 24.7373 61.3971 24.7373 60.7725V21.5685C24.7373 20.9663 24.8536 20.3977 25.087 19.8626C25.3198 19.3274 25.6405 18.859 26.0488 18.4576C26.4564 18.0562 26.9406 17.7442 27.5002 17.521C28.0597 17.2983 28.6658 17.1865 29.3189 17.1865H53.8704C56.8781 17.1865 59.6639 17.6882 62.2293 18.6918C64.7939 19.6954 67.0085 21.0834 68.8744 22.8565C70.7392 24.6293 72.2021 26.7481 73.2634 29.2119C74.3243 31.6763 74.8548 34.358 74.8548 37.2568V45.0842V45.0842ZM65.7614 37.2568C65.7614 35.5624 65.4758 34.0121 64.9049 32.6073C64.3332 31.2023 63.5233 30.0037 62.4742 29.0113C61.4247 28.0192 60.1712 27.25 58.7144 26.7032C57.2569 26.157 55.6422 25.8836 53.8705 25.8836H33.8305V56.4574H53.8705C55.6422 56.4574 57.2569 56.1846 58.7144 55.6378C60.1712 55.0916 61.4247 54.3224 62.4742 53.3298C63.5233 52.3378 64.3332 51.1446 64.9049 49.7505C65.4758 48.3572 65.7614 46.8018 65.7614 45.0842V37.2568V37.2568Z" fill="#7767A0"/>
<path d="M24.7969 56.2937H33.7785V81.6914H29.1334C26.74 81.6914 24.7969 79.8329 24.7969 77.5438V56.2937Z" fill="#7767A0"/>
<path d="M12.328 0.642822H16.4016V65.2576H11.7031C9.33914 65.2576 7.41992 63.422 7.41992 61.161V5.33718C7.41992 2.74631 9.61918 0.642822 12.328 0.642822Z" fill="#7767A0"/>
<path d="M24.9922 77.7565V73.101H51.5466V81.6914H29.1063C26.8356 81.6914 24.9922 79.9282 24.9922 77.7565Z" fill="#7767A0"/>
<path d="M24.9922 5.29827V0.64275L57.7947 0.64275V9.23315L29.1063 9.23315C26.8356 9.23315 24.9922 7.46999 24.9922 5.29827Z" fill="#7767A0"/>
<path fill-rule="evenodd" clip-rule="evenodd" d="M55.6718 9.23319C55.6727 9.23318 55.6736 9.23318 55.6475 4.93805C55.6214 0.642921 55.6224 0.642916 55.6234 0.642911L55.6306 0.642878L55.6428 0.64284L55.6765 0.642822C55.703 0.642849 55.7375 0.642973 55.7798 0.643304C55.8644 0.643966 55.9802 0.645457 56.125 0.648666C56.4144 0.655081 56.8204 0.668381 57.3249 0.695739C58.3322 0.750358 59.7427 0.861565 61.4098 1.08851C64.7105 1.53784 69.1803 2.46232 73.5504 4.40418C82.1718 8.23508 90.4153 17.2848 92.1338 32.4886L83.2042 33.4119C81.7987 20.977 75.3249 14.6649 69.7661 12.1948C66.467 10.7289 62.9315 9.97264 60.1442 9.5932C58.7672 9.40575 57.613 9.31556 56.8165 9.27237C56.4192 9.25083 56.1136 9.24113 55.9169 9.23676C55.8186 9.23458 55.7477 9.23374 55.7064 9.23342C55.6857 9.23326 55.6725 9.23323 55.6669 9.23322C55.6641 9.23322 55.6633 9.23322 55.6644 9.23322L55.6675 9.23321L55.6718 9.23319Z" fill="#7767A0"/>
<path fill-rule="evenodd" clip-rule="evenodd" d="M85.8577 68.8512C82.5581 72.4157 78.4577 74.7672 75.0733 76.6347C69.2621 79.8413 63.0994 81.0676 58.5144 81.5198C56.2005 81.748 54.2298 81.7847 52.8216 81.7634C52.116 81.7527 51.5474 81.7273 51.1427 81.7034C50.9402 81.6914 50.7784 81.6798 50.6606 81.6706C50.6016 81.666 50.5537 81.6619 50.5171 81.6587C50.4988 81.6571 50.4833 81.6557 50.4708 81.6546L50.4541 81.653L50.4445 81.6521C50.4431 81.652 50.4418 81.6518 50.8931 77.3784C51.3445 73.1049 51.3432 73.1048 51.3421 73.1047L51.3365 73.1042L51.3327 73.1038C51.3315 73.1037 51.3331 73.1038 51.3374 73.1042C51.346 73.105 51.3655 73.1066 51.3953 73.109C51.4551 73.1137 51.5563 73.1211 51.6958 73.1293C51.9752 73.1458 52.4064 73.1656 52.9641 73.174C54.0825 73.191 55.6921 73.1622 57.593 72.9747C61.4378 72.5955 66.2431 71.5897 70.585 69.1938C73.9724 67.3247 76.9011 65.5678 79.1329 63.1568C81.2427 60.8777 82.8634 57.8562 83.1875 53.2068L92.1493 53.7782C91.6923 60.3337 89.2794 65.1548 85.8577 68.8512Z" fill="#7767A0"/>
<path d="M4.49082 81.3179C6.97103 81.3179 8.98164 79.3949 8.98164 77.0227C8.98164 74.6506 6.97103 72.7275 4.49082 72.7275C2.01061 72.7275 0 74.6506 0 77.0227C0 79.3949 2.01061 81.3179 4.49082 81.3179Z" fill="#7767A0"/>
<path d="M15.4247 76.4626C17.4735 76.4626 19.1345 74.874 19.1345 72.9144C19.1345 70.9548 17.4735 69.3662 15.4247 69.3662C13.3758 69.3662 11.7148 70.9548 11.7148 72.9144C11.7148 74.874 13.3758 76.4626 15.4247 76.4626Z" fill="#7767A0"/>
<path d="M15.4802 90.7784C18.7926 90.7784 21.4779 88.2101 21.4779 85.0419C21.4779 81.8737 18.7926 79.3054 15.4802 79.3054C12.1677 79.3054 9.48242 81.8737 9.48242 85.0419C9.48242 88.2101 12.1677 90.7784 15.4802 90.7784Z" fill="#7767A0"/>
</svg>
