<svg width="282" height="33" viewBox="0 0 282 33" fill="none" xmlns="http://www.w3.org/2000/svg">
<path d="M17.428 1.14628C19.1945 1.14628 21.0003 1.47321 22.5068 2.12683C24.0129 2.78046 25.3137 3.68444 26.4094 4.83922C27.5048 5.99369 28.3639 7.37369 28.9871 8.97861C29.61 10.5835 29.9217 12.3301 29.9217 14.2181V19.3159C29.9217 21.2189 29.9694 23.2278 29.9694 24.8089C29.9694 28.7616 29.5815 29.4514 28.4861 30.6062C27.3905 31.7607 25.5196 32.4508 23.443 32.4508C21.3664 32.4508 19.2898 32.4508 17.5976 32.3877H3.17896C2.79543 32.3877 2.4395 32.3152 2.11086 32.1699C1.78222 32.0248 1.49788 31.8251 1.2584 31.5707C1.01868 31.3169 0.83033 31.0151 0.693652 30.6666C0.55666 30.3182 0.488281 29.9406 0.488281 29.5337V4.00034C0.488281 3.60825 0.528273 3.25438 0.528273 2.72735C0.528273 2.35835 0.585203 1.93483 0.82492 1.67331C1.06432 1.41208 1.64436 1.14628 2.01151 1.14628H5.62059M24.5813 14.2181C24.5813 13.1143 24.4135 12.1049 24.0781 11.1898C23.7424 10.2748 23.2669 9.49424 22.6507 8.84774C22.0345 8.20184 21.2982 7.70069 20.4426 7.34451C19.5867 6.98901 18.6383 6.81074 17.5978 6.81074H5.82854V26.7232H17.5977C18.6382 26.7232 19.8279 26.6535 20.7732 26.6535C21.9597 26.6535 23.4431 26.6535 24.0363 26.3899C24.7869 26.0566 24.6296 24.5453 24.6296 23.2278C24.6296 22.2724 24.5813 20.4346 24.5813 19.3158L24.5813 14.2181Z" fill="white"/>
<path d="M63.8373 25.2651C63.8373 25.9943 63.7903 27.3802 63.7903 28.258C63.7903 29.1401 63.9314 30.4613 63.3315 31.1836C62.7312 31.9062 62.5326 32.0235 61.4962 32.3538C60.5785 32.6464 57.6388 32.517 56.2552 32.517H46.3222C45.5598 32.517 43.7117 32.6328 42.8368 32.3538C42.225 32.1588 41.6133 31.8662 41.0015 31.4761C40.229 30.9836 39.778 30.0133 39.778 28.5504V22.6992C39.778 21.8215 39.7895 21.3738 40.3898 20.6512C40.9898 19.929 41.8696 19.481 42.8369 19.481C43.7546 19.481 44.9384 19.4559 46.3223 19.4559H52.0976L53.5431 19.481V23.8695L52.0524 23.8943H46.3223C45.5738 23.8943 44.3664 23.8987 44.3664 23.8987V26.21C44.3664 26.8986 44.3664 27.3802 44.6809 27.7937C45.0463 28.2738 45.7151 28.3711 46.3647 28.3711H56.2553C57.0035 28.3711 58.0276 28.3977 58.4373 27.9654C58.8467 27.5334 58.7432 25.873 58.7432 25.2247V20.3584C58.7432 19.481 59.0491 17.4331 58.1314 16.5553C57.2137 15.6776 55.9902 15.3851 55.0725 15.3851L47.717 15.3305L41.9193 15.3851V10.5578L47.5363 10.6198H56.2553C57.0178 10.6198 57.84 10.7484 58.7226 11.0047C59.6048 11.2613 60.424 11.6767 61.1794 12.2503C61.9346 12.8246 62.5667 13.574 63.075 14.4988C63.5833 15.424 63.8375 16.5482 63.8375 17.8717L63.8373 25.2651Z" fill="white"/>
<path d="M122.328 18.018V20.944C122.328 21.8261 122.365 22.9919 122.059 23.577C121.638 24.3826 120.83 24.601 119.918 24.601C118.575 24.601 117.067 24.5385 115.772 24.5385H108.309V20.4129H115.772C116.473 20.4129 117.293 20.5289 117.746 20.0663C118.032 19.7737 118.032 19.8389 118.032 19.4812V15.356C117.746 15.356 116.38 15.3307 115.772 15.3307L107.437 15.3853C105.719 15.3853 105.243 16.4095 104.86 16.8481C104.476 17.2872 104.287 18.2477 104.287 18.896L104.272 25.2653C104.272 25.9676 104.144 27.2815 104.573 27.6729C105.003 28.0647 105.878 28.0786 106.513 28.0786H121.369V32.5171H106.473C105.76 32.5171 104.578 32.5002 103.714 32.5002C102.855 32.5002 101.558 32.3428 100.851 31.7688C100.143 31.1949 100.181 31.2312 99.7053 30.306C99.2293 29.3812 99.3753 26.589 99.3753 25.2653V17.8717C99.3753 17.1423 99.5007 16.3558 99.752 15.5118C100.003 14.6681 100.409 13.8847 100.971 13.1621C101.533 12.4399 102.267 11.8353 103.172 11.349C104.077 10.863 105.178 10.6198 106.473 10.6198H115.772C116.486 10.6198 117.779 10.4479 118.605 10.7041C119.431 10.9607 119.902 11.0081 120.61 11.5819C121.317 12.1561 121.566 12.4124 122.042 13.3372C122.517 14.2624 122.328 16.6946 122.328 18.018Z" fill="white"/>
<path d="M157.536 32.517H152.03V20.363C152.03 19.6744 151.906 19.0564 151.659 18.5096C151.412 17.9627 151.077 17.4936 150.653 17.1019C150.23 16.7102 149.732 16.4099 149.16 16.2005C148.588 15.9911 147.971 15.8864 147.307 15.8864H137.671V32.5169H132.164V13.2328C132.164 12.8682 132.234 12.5274 132.376 12.2097C132.517 11.8926 132.715 11.6156 132.969 11.3794C133.223 11.1431 133.52 10.9574 133.858 10.8223C134.197 10.6874 134.557 10.6197 134.939 10.6197H147.35C148.041 10.6197 148.772 10.694 149.542 10.8425C150.311 10.9911 151.073 11.2308 151.829 11.5616C152.584 11.8925 153.304 12.311 153.989 12.8174C154.674 13.3239 155.281 13.9385 155.811 14.6608C156.34 15.3833 156.76 16.2173 157.071 17.1625C157.381 18.1079 157.537 19.175 157.537 20.363L157.536 32.517Z" fill="white"/>
<path d="M192.32 30.0015C192.32 31.2181 191.289 32.2043 190.017 32.2043H169.649C169.253 32.2043 168.886 32.1369 168.547 32.0017C168.208 31.8669 167.915 31.6812 167.669 31.4446C167.421 31.2086 167.227 30.9281 167.086 30.6041C166.945 30.2801 166.874 29.9289 166.874 29.5507V0.815918H169.154C170.936 0.815918 172.381 2.19764 172.381 3.90209V26.9376H192.32L192.32 30.0015Z" fill="white"/>
<path d="M282 25.1506C282 26.0555 281.88 26.8692 281.64 27.5914C281.4 28.314 281.082 28.9485 280.687 29.4957C280.292 30.0425 279.833 30.5085 279.311 30.8934C278.788 31.2782 278.241 31.5922 277.669 31.8353C277.097 32.0782 276.518 32.2574 275.933 32.3719C275.347 32.4867 274.792 32.5442 274.27 32.5442H264.337C263.391 32.5442 262.544 32.4296 261.795 32.1999C261.047 31.9705 260.387 31.6631 259.815 31.2782C259.243 30.8934 258.756 30.4512 258.354 29.9514C257.951 29.452 257.623 28.9283 257.369 28.3815C257.115 27.8346 256.928 27.2809 256.808 26.7204C256.688 26.1603 256.628 25.6367 256.628 25.1507V18.0203C256.628 16.6701 256.885 15.5255 257.401 14.5869C257.916 13.6484 258.559 12.8853 259.328 12.2979C260.097 11.7105 260.934 11.2885 261.838 11.0319C262.741 10.7756 263.575 10.647 264.337 10.647H274.27V15.9138L266.689 15.9975C264.548 15.9975 263.705 16.8103 263.324 17.1677C262.943 17.5257 262.1 18.6305 262.1 20.3859L262.134 25.1101C262.134 25.8261 262.321 26.3661 262.696 26.7306C263.069 27.0952 263.617 27.2775 264.337 27.2775H274.27C275.018 27.2775 275.576 27.0952 275.943 26.7306C276.31 26.3661 276.494 25.8393 276.494 25.1507L276.477 1.07662H281.983L282 25.1506Z" fill="white"/>
<path d="M90.7834 15.824L83.8623 15.8866V32.5171H78.2922V15.8866H71.1337V10.6199H78.2922V3.46914H81.5495C82.8268 3.46914 83.8623 4.45952 83.8623 5.68119V10.6199L90.7834 10.5578V15.824Z" fill="white"/>
<path d="M230.949 32.6735H236.455L236.76 22.4075C236.76 20.8353 237.043 19.0029 238.181 17.8681C239.191 16.8607 240.763 15.9973 243.184 15.9973H251.137V10.7311H240.3C238.531 10.7311 236.776 11.1645 235.279 12.0678C233.072 13.3993 230.788 16.0411 230.949 21.2634L230.949 32.6735Z" fill="white"/>
<path d="M214.964 32.6736H211.815C205.701 32.6736 200.745 27.933 200.745 22.0853V21.3196C200.745 15.4718 205.701 10.7312 211.815 10.7312H214.964C221.078 10.7312 226.035 15.4718 226.035 21.3196V22.0853C226.035 27.933 221.078 32.6736 214.964 32.6736ZM219.211 23.8136V22.0592C219.211 18.974 216.596 16.4728 213.371 16.4728H211.443C209.445 16.4728 207.826 18.0218 207.826 19.9325V21.4357C207.826 24.6597 210.558 27.2732 213.929 27.2732H215.594C217.592 27.2732 219.211 25.7243 219.211 23.8136Z" fill="white"/>
</svg>
