<svg width="137" height="48" viewBox="0 0 137 48" fill="none" xmlns="http://www.w3.org/2000/svg">
<g clip-path="url(#clip0_1760_1280)">
<path d="M3.64673 32.5931V30.166H16.7135V34.6449H5.67093C4.5525 34.6449 3.64673 33.7267 3.64673 32.5931Z" fill="#7767A0"/>
<path d="M40.925 16.9199H44.5166C44.9735 16.9199 45.3436 17.2952 45.3436 17.7582V28.3366C45.3436 29.6699 44.2803 30.7477 42.965 30.7477H40.925V16.9199Z" fill="#7767A0"/>
<path d="M36.8295 24.1298C36.8295 25.6547 36.5696 27.0518 36.0497 28.3372C35.5299 29.6146 34.8053 30.7163 33.8916 31.6424C32.9701 32.5685 31.8832 33.2871 30.623 33.814C29.3628 34.3409 27.9923 34.5964 26.5116 34.5964H14.4293C14.1064 34.5964 13.8071 34.5405 13.5314 34.4208C13.2558 34.301 13.0195 34.1413 12.8147 33.9417C12.6099 33.7422 12.4524 33.4947 12.3421 33.2152C12.224 32.9358 12.1689 32.6324 12.1689 32.3051V11.8668C12.1689 11.5555 12.224 11.2601 12.3421 10.9806C12.4603 10.7012 12.6178 10.4537 12.8147 10.2461C13.0116 10.0386 13.2558 9.87091 13.5314 9.75914C13.8071 9.63938 14.1064 9.5835 14.4293 9.5835H26.5116C27.9923 9.5835 29.3628 9.84696 30.623 10.3659C31.8832 10.8928 32.978 11.6114 33.8916 12.5375C34.8053 13.4636 35.5299 14.5653 36.0497 15.8507C36.5696 17.1361 36.8295 18.5332 36.8295 20.0421V24.1298ZM32.3558 20.0501C32.3558 19.1639 32.214 18.3576 31.9304 17.6231C31.6469 16.8886 31.2531 16.2658 30.7332 15.7469C30.2134 15.228 29.5991 14.8288 28.8823 14.5414C28.1656 14.254 27.3701 14.1103 26.4958 14.1103H16.6347V30.0537H26.4958C27.3701 30.0537 28.1656 29.91 28.8823 29.6226C29.5991 29.3352 30.2134 28.936 30.7332 28.417C31.2531 27.8981 31.6469 27.2754 31.9304 26.5488C32.214 25.8223 32.3558 25.008 32.3558 24.1138V20.0342V20.0501Z" fill="#7767A0"/>
<path d="M12.2004 29.9738H16.619V43.2188H14.3348C13.1534 43.2188 12.2004 42.2528 12.2004 41.0552V29.9738Z" fill="#7767A0"/>
<path d="M6.06474 0.953125H8.06531V34.6443H5.74968C4.584 34.6443 3.63884 33.6863 3.63884 32.5047V3.40412C3.64672 2.04689 4.73364 0.953125 6.06474 0.953125Z" fill="#7767A0"/>
<path d="M12.2949 41.159V38.732H25.3616V43.2108H14.3191C13.2006 43.2108 12.2949 42.2927 12.2949 41.159Z" fill="#7767A0"/>
<path d="M12.2949 3.38017V0.953125H28.4334V5.43198H14.3191C13.2006 5.43198 12.2949 4.51385 12.2949 3.38017Z" fill="#7767A0"/>
<path d="M40.9409 18.0382C40.1375 10.4857 36.0497 7.78717 34.3327 6.97283C31.0877 5.43996 27.441 5.43198 27.3937 5.43198L27.3701 0.953125C27.5591 0.953125 32.0171 0.953125 36.1915 2.91711C38.5938 4.0508 44.2883 7.73926 45.3359 17.5592L40.9409 18.0382Z" fill="#7767A0"/>
<path d="M26.3304 43.2587C25.4483 43.2587 24.8969 43.2028 24.8182 43.1948L25.2592 38.7399C25.3065 38.7399 30.4418 39.211 34.7344 36.7041C38.0661 34.7561 40.6337 32.9039 40.933 28.3691L45.3437 28.6645C44.8633 35.9536 39.9091 38.8517 36.9398 40.5842C32.9544 42.9154 28.5751 43.2587 26.3304 43.2587Z" fill="#7767A0"/>
<path d="M2.21323 43.0272C3.43557 43.0272 4.42647 42.0228 4.42647 40.7838C4.42647 39.5448 3.43557 38.5404 2.21323 38.5404C0.990899 38.5404 0 39.5448 0 40.7838C0 42.0228 0.990899 43.0272 2.21323 43.0272Z" fill="#7767A0"/>
<path d="M7.59273 40.4884C8.60192 40.4884 9.42003 39.6591 9.42003 38.6362C9.42003 37.6132 8.60192 36.7839 7.59273 36.7839C6.58355 36.7839 5.76544 37.6132 5.76544 38.6362C5.76544 39.6591 6.58355 40.4884 7.59273 40.4884Z" fill="#7767A0"/>
<path d="M7.61636 47.9531C9.24759 47.9531 10.57 46.6127 10.57 44.9592C10.57 43.3058 9.24759 41.9654 7.61636 41.9654C5.98513 41.9654 4.66276 43.3058 4.66276 44.9592C4.66276 46.6127 5.98513 47.9531 7.61636 47.9531Z" fill="#7767A0"/>
<path d="M60.1354 32.4178C60.6473 32.4178 61.1751 32.5215 61.6083 32.7211C62.0493 32.9207 62.4274 33.2002 62.7424 33.5594C63.0575 33.9187 63.3095 34.3418 63.4907 34.8368C63.6718 35.3318 63.7585 35.8667 63.7585 36.4495V38.0223C63.7585 38.6051 63.7742 39.2278 63.7742 39.7149C63.7742 40.9284 63.664 41.1439 63.341 41.5032C63.026 41.8625 62.4825 42.07 61.876 42.07C61.2696 42.07 60.671 42.07 60.1748 42.0541H55.9846C55.8743 42.0541 55.7719 42.0301 55.6774 41.9902C55.5829 41.9423 55.4963 41.8864 55.4332 41.8066C55.3624 41.7267 55.3072 41.6389 55.2678 41.5272C55.2285 41.4234 55.2048 41.3036 55.2048 41.1759V33.3119C55.2048 33.1922 55.2127 33.0804 55.2127 32.9207C55.2127 32.809 55.2285 32.6732 55.2994 32.5934C55.3702 32.5136 55.5356 32.4337 55.6459 32.4337H56.6935M62.199 36.4575C62.199 36.1142 62.1517 35.8108 62.0493 35.5234C61.9548 35.244 61.813 35.0045 61.6319 34.8049C61.4507 34.6053 61.2381 34.4536 60.9939 34.3418C60.7419 34.2301 60.4662 34.1742 60.1669 34.1742H56.7486V40.3056H60.1669C60.4662 40.3056 60.8127 40.2817 61.0884 40.2817C61.435 40.2817 61.8603 40.2817 62.0336 40.2019C62.2541 40.0981 62.2069 39.635 62.2069 39.2278C62.2069 38.9325 62.1911 38.3656 62.1911 38.0223V36.4495L62.199 36.4575Z" fill="#0A061F"/>
<path d="M73.6196 39.8426C73.6196 40.0661 73.6038 40.4973 73.6038 40.7607C73.6038 41.0242 73.6432 41.4393 73.4699 41.6629C73.2966 41.8864 73.2415 41.9184 72.9343 42.0221C72.6665 42.11 71.8159 42.07 71.4142 42.07H68.5315C68.311 42.07 67.7754 42.102 67.5155 42.0221C67.3343 41.9583 67.161 41.8705 66.9799 41.7507C66.7593 41.599 66.6254 41.3036 66.6254 40.8485V39.0442C66.6254 38.7728 66.6254 38.6371 66.8066 38.4135C66.9799 38.19 67.2398 38.0542 67.5155 38.0542C67.7911 38.0542 68.1298 38.0542 68.5315 38.0542H70.6266V39.4115H68.5315C68.311 39.4115 67.9644 39.4115 67.9644 39.4115V40.122C67.9644 40.3376 67.9644 40.4813 68.0589 40.609C68.1613 40.7607 68.3582 40.7847 68.5473 40.7847H71.4221C71.6426 40.7847 71.9341 40.7927 72.0522 40.6569C72.1703 40.5212 72.1388 40.0102 72.1388 39.8107V38.3097C72.1388 38.0383 72.2255 37.4076 71.9577 37.1361C71.6899 36.8647 71.3355 36.7769 71.0677 36.7769L68.9332 36.7609L67.2477 36.7769V35.2919L68.8781 35.3079H71.4142C71.6348 35.3079 71.871 35.3478 72.131 35.4276C72.3909 35.5074 72.6272 35.6352 72.8477 35.8108C73.0682 35.9865 73.2494 36.218 73.399 36.5054C73.5487 36.7928 73.6196 37.1361 73.6196 37.5433V39.8426Z" fill="#0A061F"/>
<path d="M90.6166 37.6072V38.5093C90.6166 38.7808 90.6245 39.14 90.5378 39.3237C90.4118 39.5712 90.1834 39.635 89.9156 39.635C89.5218 39.635 89.0886 39.6191 88.7105 39.6191H86.5445V38.3496H88.7105C88.9153 38.3496 89.1516 38.3816 89.2855 38.2459C89.3721 38.158 89.3721 38.174 89.3721 38.0622V36.7928C89.2855 36.7928 88.8917 36.7928 88.7184 36.7928L86.3004 36.8088C85.8042 36.8088 85.6624 37.1281 85.5521 37.2559C85.4419 37.3916 85.3867 37.687 85.3867 37.8866V39.8506C85.3867 40.0661 85.3474 40.4733 85.4734 40.5931C85.5994 40.7128 85.8514 40.7208 86.0405 40.7208H90.3567V42.086H86.0326C85.8278 42.086 85.4813 42.086 85.2292 42.086C84.9772 42.086 84.5991 42.0381 84.3943 41.8625C84.1895 41.6868 84.1974 41.6948 84.0635 41.4154C83.9218 41.128 83.969 40.2737 83.969 39.8665V37.5912C83.969 37.3676 84.0084 37.1281 84.0793 36.8647C84.1502 36.6012 84.2683 36.3617 84.4337 36.1382C84.5991 35.9146 84.8118 35.731 85.0717 35.5793C85.3316 35.4276 85.6545 35.3558 86.0326 35.3558H88.7342C88.9389 35.3558 89.317 35.2999 89.5533 35.3797C89.7896 35.4595 89.9314 35.4755 90.1361 35.6512C90.3409 35.8268 90.4118 35.9066 90.5536 36.194C90.6954 36.4815 90.6402 37.2239 90.6402 37.6391L90.6166 37.6072Z" fill="#0A061F"/>
<path d="M99.2411 42.078V38.3337C99.2411 38.1181 99.2017 37.9345 99.1308 37.7668C99.06 37.5992 98.9654 37.4555 98.8394 37.3357C98.7134 37.216 98.5716 37.1202 98.4062 37.0563C98.2408 36.9924 98.0597 36.9605 97.8706 36.9605H95.0746V42.078H93.4757V36.1382C93.4757 36.0264 93.4993 35.9226 93.5387 35.8268C93.5781 35.731 93.6411 35.6432 93.712 35.5713C93.7829 35.4995 93.8695 35.4436 93.9719 35.4037C94.0743 35.3637 94.1767 35.3398 94.2869 35.3398H97.8943C98.0991 35.3398 98.3038 35.3637 98.5322 35.4116C98.7528 35.4595 98.9812 35.5314 99.1939 35.6352C99.4144 35.739 99.6192 35.8667 99.824 36.0184C100.021 36.1781 100.202 36.3617 100.352 36.5852C100.509 36.8088 100.627 37.0643 100.714 37.3517C100.801 37.6391 100.848 37.9744 100.848 38.3337V42.078H99.2411Z" fill="#0A061F"/>
<path d="M110.945 41.3036C110.945 41.6788 110.646 41.9822 110.276 41.9822H104.361C104.243 41.9822 104.14 41.9583 104.038 41.9184C103.935 41.8784 103.857 41.8225 103.786 41.7507C103.715 41.6788 103.66 41.591 103.62 41.4952C103.581 41.3994 103.557 41.2876 103.557 41.1679V32.322H104.219C104.739 32.322 105.156 32.7451 105.156 33.272V40.3615H110.945V41.3036Z" fill="#0A061F"/>
<path d="M137 39.8107C137 40.0901 136.968 40.3376 136.898 40.5611C136.827 40.7847 136.732 40.9763 136.622 41.1439C136.504 41.3116 136.37 41.4553 136.22 41.5751C136.071 41.6948 135.913 41.7906 135.74 41.8625C135.574 41.9343 135.409 41.9902 135.236 42.0301C135.062 42.0621 134.905 42.086 134.755 42.086H131.873C131.597 42.086 131.353 42.0541 131.132 41.9822C130.912 41.9104 130.723 41.8146 130.557 41.6948C130.392 41.5751 130.25 41.4393 130.132 41.2876C130.014 41.136 129.919 40.9763 129.848 40.8006C129.777 40.633 129.722 40.4653 129.683 40.2897C129.651 40.114 129.628 39.9544 129.628 39.8027V37.6072C129.628 37.192 129.699 36.8407 129.856 36.5533C130.006 36.2659 130.195 36.0264 130.415 35.8507C130.636 35.6671 130.88 35.5394 131.148 35.4595C131.408 35.3797 131.652 35.3398 131.873 35.3398H134.755V36.9605L132.55 36.9844C131.928 36.9844 131.684 37.2319 131.573 37.3437C131.463 37.4555 131.219 37.7908 131.219 38.3337V39.7867C131.227 40.0103 131.282 40.1699 131.392 40.2817C131.502 40.3935 131.66 40.4494 131.873 40.4494H134.755C134.976 40.4494 135.133 40.3935 135.244 40.2817C135.354 40.1699 135.401 40.0103 135.401 39.7947V32.3858H136.992V39.7947L137 39.8107Z" fill="#0A061F"/>
<path d="M81.4486 36.9365L79.4402 36.9525V42.07H77.8255V36.9525H75.7462V35.3318H77.8255V33.1283H78.7707C79.1409 33.1283 79.4402 33.4317 79.4402 33.8069V35.3238L81.4486 35.3079V36.9365Z" fill="#0A061F"/>
<path d="M122.169 42.1259H123.768L123.854 38.9644C123.854 38.4774 123.933 37.9185 124.264 37.5672C124.555 37.2559 125.012 36.9924 125.721 36.9924H128.029V35.3717H124.878C124.366 35.3717 123.854 35.5074 123.421 35.7869C122.783 36.194 122.114 37.0084 122.161 38.6211V42.1339L122.169 42.1259Z" fill="#0A061F"/>
<path d="M117.522 42.1259H116.608C114.828 42.1259 113.395 40.6649 113.395 38.8686V38.6291C113.395 36.8248 114.836 35.3717 116.608 35.3717H117.522C119.302 35.3717 120.735 36.8327 120.735 38.6291V38.8686C120.735 40.6729 119.294 42.1259 117.522 42.1259ZM118.759 39.3955V38.8526C118.759 37.9026 118.002 37.1361 117.065 37.1361H116.506C115.923 37.1361 115.458 37.6151 115.458 38.198V38.661C115.458 39.651 116.254 40.4573 117.231 40.4573H117.711C118.294 40.4573 118.759 39.9783 118.759 39.3955Z" fill="#0A061F"/>
<path d="M55.3781 9.95165C55.3387 9.82391 55.4411 9.68818 55.575 9.68818H57.0873C57.3078 9.67222 57.3787 9.9277 57.4496 10.2391C57.4653 10.279 57.615 10.9336 58.0009 12.2749C58.0403 12.4026 57.9458 12.5384 57.804 12.5384H56.2603C56.0791 12.5384 56.0712 12.4026 56.0003 12.1392L55.3702 9.95165H55.3781ZM55.4726 13.193C56.528 13.193 57.2842 13.3607 57.6307 13.6082C58.1821 13.9195 58.4105 14.9095 58.4105 15.5802V24.5299C58.4105 25.0009 58.3869 25.3442 58.5208 25.44C58.6389 25.5278 58.9461 25.5119 59.2454 25.5119H73.021C73.1312 25.5119 73.2258 25.5997 73.2258 25.7194V27.1326C73.2258 27.2443 73.1391 27.3401 73.021 27.3401H59.3163C58.1506 27.3401 57.6465 26.9968 57.2369 26.5976C56.9061 26.2783 56.5989 25.7274 56.5989 24.8732V15.7398C56.6147 15.2768 56.5517 15.2448 56.4729 15.2129C56.3705 15.173 55.8979 15.149 55.4726 15.149L55.4254 15.1331C55.3387 15.1091 55.2836 15.0293 55.2836 14.9335V13.3926C55.2836 13.2968 55.3545 13.209 55.4411 13.193H55.4726ZM65.5306 9.68818H66.7672C66.8775 9.68818 66.972 9.77601 66.972 9.89576V13.5683H72.4303C72.5405 13.5683 72.635 13.6561 72.635 13.7758V15.0293C72.635 15.141 72.5484 15.2369 72.4303 15.2369H67.8384C69.8862 20.2346 71.4536 22.0709 72.0522 23.1247C72.0522 23.1247 72.0758 23.1567 72.0995 23.1886C72.1625 23.2764 72.2412 23.3962 72.1231 23.5L71.1149 24.4021C71.0204 24.474 70.8944 24.458 70.8235 24.3622C70.5321 23.9471 69.6736 22.8054 68.0668 20.1149C67.4524 18.8694 66.3183 16.5861 66.1607 16.2508C66.1607 16.2508 64.9163 18.9173 64.2468 20.1708C63.7112 21.1608 62.0887 23.6117 61.624 24.3462C61.561 24.45 61.4192 24.474 61.3247 24.3941L60.2141 23.508L60.1826 23.476C60.1196 23.4042 60.1118 23.3004 60.1669 23.2285C61.4271 21.2805 62.0729 20.3624 62.6715 19.1968C62.7739 18.9972 62.8842 18.7896 62.9945 18.59C63.7033 17.2727 64.4358 15.3406 64.4831 15.2369H59.8912C59.781 15.2369 59.6864 15.149 59.6864 15.0293V13.7758C59.6864 13.6641 59.7731 13.5683 59.8912 13.5683H65.3416V9.89576C65.3416 9.78399 65.4282 9.68818 65.5464 9.68818H65.5306Z" fill="#0A061F"/>
<path d="M99.4301 9.6802H105.715C105.826 9.6802 105.92 9.76802 105.92 9.88778V11.1412C105.92 11.253 105.834 11.3488 105.715 11.3488H103.4V13.8397H106.015C106.125 13.8397 106.219 13.9275 106.219 14.0473V15.4364C106.219 15.5482 106.133 15.644 106.015 15.644H103.4V27.1326C103.4 27.2443 103.313 27.3401 103.195 27.3401H101.958C101.848 27.3401 101.754 27.2523 101.754 27.1326V15.644H99.1387C99.0285 15.644 98.9339 15.5562 98.9339 15.4364V14.0473C98.9339 13.9355 99.0206 13.8397 99.1387 13.8397H101.754V11.3488H99.3986C99.312 11.3488 99.2254 11.2769 99.2254 11.1891V9.88778C99.2254 9.77601 99.312 9.6802 99.4301 9.6802ZM99.5168 16.6739H100.714C100.824 16.6739 100.919 16.7697 100.919 16.8815L100.698 26.9888C100.698 27.0368 100.698 27.0847 100.698 27.1326C100.698 27.2443 100.604 27.3321 100.493 27.3321H99.2805C99.1702 27.3321 99.0757 27.2363 99.0757 27.1246C99.0993 26.2304 99.1781 22.8134 99.312 16.8815C99.312 16.7697 99.4065 16.6819 99.5168 16.6819V16.6739ZM104.432 16.6739H105.637C105.747 16.6739 105.834 16.7617 105.841 16.8735C105.865 17.8076 105.944 21.2166 106.078 27.1166C106.078 27.2284 105.991 27.3321 105.873 27.3321H104.652C104.534 27.3321 104.447 27.2763 104.439 27.1326L104.235 17.1929C104.235 17.145 104.227 17.0412 104.227 16.8895C104.227 16.7777 104.313 16.6819 104.432 16.6819V16.6739ZM112.851 9.6802H114.096C114.206 9.6802 114.301 9.76802 114.301 9.88778V20.6019H116.396C116.506 20.6019 116.6 20.6897 116.6 20.8095V22.0709C116.6 22.1827 116.514 22.2785 116.396 22.2785H114.301V27.1246C114.301 27.2363 114.214 27.3321 114.096 27.3321H112.851C112.741 27.3321 112.647 27.2443 112.647 27.1246V22.2785H106.826C106.716 22.2785 106.621 22.1907 106.621 22.0709V20.8095C106.621 20.6977 106.708 20.6019 106.826 20.6019H112.647V9.88778C112.647 9.77601 112.733 9.6802 112.851 9.6802ZM108.173 10.0075H109.646C109.724 10.0075 109.795 10.0554 109.835 10.1273L111.473 13.9595C111.528 14.0952 111.434 14.2469 111.284 14.2469H109.811C109.732 14.2469 109.661 14.199 109.622 14.1271L107.984 10.2949C107.929 10.1592 108.023 10.0075 108.173 10.0075ZM108.047 15.3806H109.512C109.591 15.3806 109.661 15.4285 109.693 15.5003C109.772 15.668 109.929 16.0193 110.158 16.5621C110.221 16.6819 110.607 17.5521 111.323 19.1648C111.386 19.3006 111.284 19.4522 111.142 19.4522H109.677C109.598 19.4522 109.528 19.4043 109.496 19.3325L107.866 15.676C107.803 15.5402 107.905 15.3885 108.047 15.3885V15.3806Z" fill="#0A061F"/>
<path d="M123.035 9.6802H124.311C124.422 9.6802 124.516 9.76802 124.516 9.88778V12.2589H126.233C126.343 12.2589 126.438 12.3468 126.438 12.4665V13.7199C126.438 13.8317 126.351 13.9275 126.233 13.9275H124.516V17.5202L126.186 16.9134C126.186 16.9134 126.446 16.8336 126.438 17.145V18.5501C126.438 18.6299 126.383 18.6938 126.312 18.7417C126.139 18.8455 125.509 19.1089 125.509 19.1089C125.509 19.1089 124.642 19.4283 124.508 19.4682V24.1866C124.508 24.8891 124.422 25.6077 124.288 25.8951C124.067 26.4699 123.847 26.7893 123.303 27.0767C122.831 27.3242 122.437 27.3401 121.862 27.3401H120.972C120.861 27.3401 120.767 27.2523 120.767 27.1326V25.5837C120.767 25.4719 120.854 25.3761 120.972 25.3761H121.625C122.13 25.3761 122.626 25.4161 122.744 25.2644C122.854 25.1845 122.831 24.3862 122.831 24.2105V20.2825H122.689L120.342 21.0969C120.208 21.1528 120.058 21.057 120.058 20.9053V19.4043C120.058 19.3245 120.105 19.2526 120.176 19.2127C120.342 19.1409 121.216 18.8215 121.216 18.8215C121.216 18.8215 122.137 18.5181 122.823 18.2387V13.9116H120.255C120.145 13.9116 120.05 13.8237 120.05 13.704V12.4505C120.05 12.3388 120.137 12.243 120.255 12.243H122.823V9.87181C122.823 9.76004 122.909 9.66423 123.027 9.66423L123.035 9.6802ZM131.416 9.6802H132.778C132.889 9.6802 132.983 9.76802 132.983 9.88778V11.4446H136.59C136.701 11.4446 136.795 11.5324 136.795 11.6522V12.9056C136.795 13.0174 136.709 13.1132 136.59 13.1132H132.983V15.3406H135.299C136.244 15.3406 136.598 15.6041 136.866 16.131C136.961 16.3147 137.008 16.5222 137.008 16.7538C137.008 17.3525 136.716 18.0072 136.252 18.8614C136.252 18.8774 135.614 20.051 133.92 21.9511L133.298 22.6777C133.416 22.8134 134.7 24.3383 136.63 25.7514C136.724 25.8232 136.74 25.9669 136.661 26.0548L135.669 27.1565C135.598 27.2284 135.488 27.2443 135.409 27.1884C135.165 27.0208 134.59 26.6056 133.645 25.7274C132.975 25.0488 132.046 24.1546 132.022 24.1227C131.416 24.6097 129.801 26.0388 128.037 27.1086C127.95 27.1565 127.84 27.1405 127.777 27.0607L126.714 25.7833C126.627 25.6795 126.658 25.5278 126.777 25.4719C127.218 25.2324 128.226 24.6816 128.864 24.1786C129.722 23.5 130.738 22.5419 130.738 22.5419L127.556 18.4543C127.454 18.3186 127.548 18.119 127.714 18.119H129.478C129.541 18.119 129.604 18.1509 129.644 18.2068C129.785 18.4144 130.148 18.9493 130.77 19.7317C130.904 19.8913 131.321 20.562 132.014 21.2406H132.022C131.904 21.4082 132.755 20.6099 133.692 19.3085C134.125 18.7816 134.952 17.6 134.968 17.1849C134.968 17.0332 134.661 17.0412 134.314 17.0412H127.399C127.289 17.0412 127.194 16.9533 127.194 16.8336V15.5243C127.194 15.4125 127.281 15.3167 127.399 15.3167H131.227V13.0892H127.619C127.509 13.0892 127.415 13.0014 127.415 12.8817V11.6282C127.415 11.5165 127.501 11.4206 127.619 11.4206H131.227V9.86383C131.227 9.75205 131.313 9.65625 131.431 9.65625L131.416 9.6802Z" fill="#0A061F"/>
<path d="M79.4795 9.6802H80.8421C80.9524 9.6802 81.0469 9.76802 81.0469 9.88778V14.0712H82.6379C82.7482 14.0712 82.8427 14.1591 82.8427 14.2788V15.676C82.8427 15.7877 82.7561 15.8835 82.6379 15.8835H81.0469V25.6636H82.8506C82.9608 25.6636 83.0554 25.7514 83.0554 25.8711V27.1326C83.0554 27.2443 82.9687 27.3401 82.8506 27.3401H77.3372C77.2269 27.3401 77.1324 27.2523 77.1324 27.1326V25.8711C77.1324 25.7594 77.219 25.6636 77.3372 25.6636H79.2747V15.8835H77.5498C77.4396 15.8835 77.3451 15.7957 77.3451 15.676V14.2788C77.3451 14.167 77.4317 14.0712 77.5498 14.0712H79.2747V9.88778C79.2747 9.77601 79.3614 9.6802 79.4795 9.6802ZM83.8115 25.3841H95.3975C95.5078 25.3841 95.6023 25.4719 95.6023 25.5917V27.1326C95.6023 27.2443 95.5156 27.3401 95.3975 27.3401H83.8115C83.7012 27.3401 83.6067 27.2523 83.6067 27.1326V25.5917C83.6067 25.4799 83.6933 25.3841 83.8115 25.3841Z" fill="#0A061F"/>
<path d="M91.4121 23.3403H87.2613C85.4497 23.3403 83.9611 21.8314 83.9611 19.9951V13.3128C83.9611 11.4765 85.4497 9.96761 87.2613 9.96761H91.4121C93.2236 9.96761 94.7123 11.4765 94.7123 13.3128V20.0031C94.7123 21.8394 93.2236 23.3483 91.4121 23.3483V23.3403ZM92.9086 20.8574V12.6022C92.9086 12.1791 92.5699 11.8358 92.1525 11.8358H86.6154C86.198 11.8358 85.8593 12.1791 85.8593 12.6022V20.8574C85.8593 21.2805 86.198 21.6238 86.6154 21.6238H92.1525C92.5699 21.6238 92.9086 21.2805 92.9086 20.8574ZM91.6641 17.0811V16.1071C91.6641 15.9155 91.5145 15.7638 91.3254 15.7638H85.8593V17.4244H91.3254C91.5145 17.4244 91.6641 17.2727 91.6641 17.0811Z" fill="#0A061F"/>
</g>
<defs>
<clipPath id="clip0_1760_1280">
<rect width="137" height="47" fill="white" transform="translate(0 0.953125)"/>
</clipPath>
</defs>
</svg>
