<svg width="91" height="90" viewBox="0 0 91 90" fill="none" xmlns="http://www.w3.org/2000/svg">
<g id="Frame">
<path id="Vector" d="M82.3073 40.1296L75.0431 32.8653V22.5957C75.0431 20.7671 74.3167 19.0134 73.0237 17.7205C71.7307 16.4275 69.977 15.7011 68.1484 15.7011H57.8788L50.6145 8.43677C47.9306 5.75285 43.5591 5.75285 40.8591 8.43677L33.5948 15.7011H23.3252C22.4198 15.7011 21.5232 15.8794 20.6867 16.2259C19.8502 16.5724 19.0902 17.0802 18.4499 17.7205C17.8097 18.3607 17.3019 19.1207 16.9554 19.9572C16.6089 20.7937 16.4306 21.6903 16.4306 22.5957V32.8653L9.16627 40.1296C6.48234 42.8136 6.48234 47.185 9.16627 49.885L16.4306 57.1493V67.4189C16.4306 68.3243 16.6089 69.2209 16.9554 70.0574C17.3019 70.8939 17.8097 71.6539 18.4499 72.2942C19.0902 72.9344 19.8502 73.4422 20.6867 73.7887C21.5232 74.1352 22.4198 74.3136 23.3252 74.3136H33.5948L40.8591 81.5778C43.5431 84.2618 47.9145 84.2618 50.6145 81.5778L57.8788 74.3136H68.1484C69.0538 74.3136 69.9504 74.1352 70.7869 73.7887C71.6234 73.4422 72.3834 72.9344 73.0237 72.2942C73.6639 71.6539 74.1717 70.8939 74.5182 70.0574C74.8647 69.2209 75.0431 68.3243 75.0431 67.4189V57.1493L82.3073 49.885C82.9493 49.2452 83.4586 48.485 83.8061 47.648C84.1536 46.811 84.3325 45.9136 84.3325 45.0073C84.3325 44.101 84.1536 43.2036 83.8061 42.3666C83.4586 41.5296 82.9493 40.7694 82.3073 40.1296ZM63.4877 38.1528L41.1002 57.1011C40.4734 57.6314 39.6859 57.9207 38.8663 57.9207C38.7698 57.9207 38.6734 57.9207 38.5609 57.9046C37.6448 57.8243 36.7931 57.3903 36.2145 56.6832L27.6002 46.3493C26.3788 44.8868 26.5716 42.7171 28.0341 41.4957C29.4966 40.2743 31.6663 40.4832 32.8877 41.9296L39.2841 49.5957L59.0359 32.8814C60.4984 31.66 62.6681 31.8368 63.8895 33.2832C65.127 34.7457 64.9502 36.9314 63.4877 38.1528Z" fill="#7680DD"/>
</g>
</svg>
