<svg width="456" height="407" viewBox="0 0 456 407" fill="none" xmlns="http://www.w3.org/2000/svg">
<g clip-path="url(#clip0_1577_3031)">
<path d="M101.222 129.873C124.93 106.154 66.8256 30.3433 115.142 5.66624C154.465 -14.4216 191.787 51.0672 233.376 51.4134C274.965 51.7596 317.069 -0.476863 351.61 25.271C386.674 51.4134 341.822 123.883 356.505 143.608C371.18 163.326 455.122 170.66 455.17 212.366C455.226 258.902 361.206 247.051 344.747 268.29C328.288 289.529 375.527 366.708 341.862 387.504C310.624 406.795 250.229 334.02 224.68 338.537C199.132 343.054 148.847 404.324 112.699 378.181C76.6946 352.151 123.845 301.091 112.425 278.523C101.005 255.947 0.298672 247.735 0.170087 194.822C0.0334646 137.191 84.8597 146.249 101.222 129.873Z" fill="#E8E8E8"/>
<path d="M313.356 169.211C312.97 163.833 312.496 158.519 311.933 153.27C307.578 150.283 303.125 147.344 298.585 144.462C299.268 149.631 299.846 154.88 300.337 160.194C301.647 174.259 302.322 188.792 302.322 203.59C302.322 241.093 298.014 276.929 289.977 307.684C288.925 311.702 287.808 315.639 286.634 319.471C284.376 326.838 281.885 333.859 279.184 340.477C265.176 374.703 246.475 394.332 227.879 394.332C209.282 394.332 190.581 374.703 176.573 340.477C167.524 318.352 160.942 291.775 157.165 262.718C156.481 257.549 155.903 252.3 155.413 246.986C150.968 244.031 146.629 241.028 142.401 237.977C142.787 243.355 143.261 248.669 143.824 253.918C147.432 288.08 154.754 319.439 165.257 345.131C181.475 384.767 203.721 406.594 227.879 406.594C252.037 406.594 274.282 384.767 290.5 345.131C293.457 337.901 296.158 330.22 298.609 322.161C299.774 318.304 300.883 314.359 301.928 310.333C310.157 278.636 314.561 241.922 314.561 203.598C314.561 191.956 314.152 180.467 313.364 169.211H313.356ZM169.115 87.7084C165.089 86.7181 161.094 85.8325 157.149 85.0273C155.983 88.8839 154.874 92.829 153.829 96.8546C157.759 97.6275 161.745 98.5132 165.772 99.4954C166.825 95.4779 167.942 91.5408 169.115 87.7084Z" fill="#9CA6F2"/>
<path d="M311.934 153.269C307.578 150.282 303.125 147.344 298.585 144.461C294.808 115.404 288.226 88.8193 279.176 66.7025C265.169 32.4767 246.467 12.8477 227.871 12.8477C212.955 12.8477 197.967 25.4801 185.397 48.1363C182.496 45.2298 178.598 43.3217 174.267 42.9674C189.287 15.4724 207.932 0.59375 227.871 0.59375C252.029 0.59375 274.274 22.4207 290.492 62.0569C301.004 87.7485 308.317 119.108 311.925 153.269H311.934Z" fill="#9CA6F2"/>
<path d="M92.6957 194.823C89.7302 197.729 86.8772 200.66 84.1367 203.599C86.8772 206.529 89.7222 209.452 92.6877 212.374C95.4121 209.444 98.257 206.521 101.223 203.599C98.2651 200.692 95.4121 197.761 92.6957 194.823ZM406.324 107.443C394.88 86.1228 365.16 76.8397 322.631 81.3001C293.787 84.3274 261.151 93.3931 227.871 107.426C222.704 109.6 217.512 111.903 212.32 114.318C217.48 116.339 222.672 118.473 227.871 120.743C233.071 118.473 238.271 116.323 243.43 114.318C271.799 103.248 299.333 96.0661 323.901 93.4897C330.41 92.8134 336.566 92.4753 342.369 92.4753C369.323 92.4753 388.298 99.7375 395.547 113.247C404.363 129.656 395.965 155.46 372.506 184.026C369.548 187.625 366.39 191.232 363.055 194.823C360.33 197.753 357.486 200.676 354.52 203.599C330.499 227.229 298.875 250.022 263.136 269.289C251.402 275.609 239.597 281.349 227.871 286.454C222.672 288.724 217.472 290.874 212.312 292.887C217.504 295.302 222.696 297.597 227.871 299.779C233.039 297.605 238.23 295.302 243.422 292.887C251.933 288.926 260.46 284.65 268.93 280.085C305.625 260.311 338.182 236.826 363.055 212.382C366.02 209.476 368.873 206.545 371.614 203.607C375.279 199.686 378.726 195.757 381.965 191.82C409.129 158.737 417.776 128.77 406.332 107.451L406.324 107.443Z" fill="url(#paint0_linear_1577_3031)"/>
<path d="M227.87 299.762C194.591 313.796 161.954 322.853 133.111 325.889C126.135 326.613 119.505 326.984 113.236 326.984C81.3231 326.984 58.9813 317.572 49.4178 299.746C41.1642 284.377 43.3582 264.522 55.405 242.236C57.8321 245.634 61.4244 248.146 65.5874 249.193C56.1846 267.091 54.1674 282.71 60.1868 293.933C68.9949 310.342 95.1139 317.548 131.833 313.691C156.401 311.107 183.934 303.933 212.304 292.863C217.495 295.278 222.687 297.573 227.862 299.754L227.87 299.762Z" fill="url(#paint1_linear_1577_3031)"/>
<path d="M363.063 194.823C348.444 180.451 331.158 166.418 311.934 153.278C307.578 150.291 303.126 147.353 298.585 144.47C289.07 138.432 279.161 132.635 268.93 127.12C260.46 122.555 251.941 118.279 243.43 114.318C238.238 111.903 233.047 109.608 227.871 107.426C207.82 98.9726 188.01 92.3303 169.116 87.717C165.089 86.7267 161.095 85.841 157.149 85.0359C148.904 83.3693 140.875 82.1214 133.12 81.3001C90.598 76.8397 60.8626 86.1228 49.4265 107.443C37.9744 128.762 46.6298 158.729 73.7935 191.812C77.0322 195.749 80.4799 199.686 84.1446 203.599C86.8851 206.529 89.7301 209.452 92.6956 212.374C107.314 226.746 124.601 240.779 143.824 253.919C148.18 256.906 152.633 259.844 157.173 262.727C166.689 268.765 176.598 274.562 186.828 280.077C195.299 284.642 203.818 288.918 212.328 292.879C217.52 295.294 222.712 297.589 227.887 299.771C233.055 297.597 238.246 295.294 243.438 292.879C238.279 290.858 233.087 288.724 227.887 286.446C216.162 281.341 204.356 275.609 192.623 269.281C179.627 262.268 167.163 254.796 155.421 246.987C150.977 244.032 146.637 241.029 142.41 237.977C127.092 226.947 113.221 215.386 101.238 203.59C98.281 200.684 95.428 197.753 92.7116 194.815C89.3684 191.232 86.21 187.617 83.2526 184.018C59.7937 155.452 51.3955 129.656 60.2116 113.239C67.4607 99.7294 86.4351 92.4672 113.39 92.4672C119.184 92.4672 125.356 92.8054 131.858 93.4817C138.954 94.2224 146.3 95.3576 153.838 96.8551C157.768 97.6281 161.754 98.5137 165.78 99.4959C180.777 103.143 196.424 108.111 212.328 114.318C217.488 116.339 222.68 118.473 227.879 120.743C239.605 125.848 251.41 131.58 263.144 137.908C276.139 144.921 288.604 152.393 300.345 160.202C304.789 163.157 309.129 166.16 313.356 169.212C328.674 180.242 342.545 191.803 354.528 203.599C357.485 206.505 360.338 209.436 363.055 212.374C366.02 209.468 368.873 206.537 371.614 203.599C368.873 200.668 366.028 197.745 363.063 194.823Z" fill="#7E8DFC"/>
<path d="M406.324 299.746C396.76 317.572 374.418 326.984 342.505 326.984C336.244 326.984 329.614 326.613 322.63 325.889C314.875 325.076 306.847 323.82 298.601 322.153C294.655 321.356 290.661 320.462 286.634 319.472C267.74 314.859 247.93 308.216 227.879 299.763C233.046 297.589 238.238 295.286 243.43 292.871C259.342 299.07 274.989 304.046 289.978 307.693C294.004 308.675 297.99 309.553 301.92 310.334C309.466 311.831 316.812 312.967 323.9 313.707C360.627 317.564 386.746 310.358 395.546 293.95C402.032 281.873 399.203 264.724 387.896 245.127C391.89 243.476 395.153 240.417 397.073 236.568C411.933 261.157 415.26 283.096 406.315 299.763L406.324 299.746Z" fill="#6774FF"/>
<path d="M227.871 120.743C216.145 125.848 204.34 131.58 192.606 137.909C156.868 157.167 125.244 179.96 101.222 203.599C98.2647 200.692 95.4117 197.761 92.6953 194.823C117.569 170.379 150.125 146.894 186.82 127.12C195.291 122.555 203.809 118.28 212.328 114.318C217.488 116.339 222.679 118.473 227.879 120.743H227.871Z" fill="url(#paint2_linear_1577_3031)"/>
<path d="M153.428 203.589C153.428 218.379 154.095 232.911 155.413 246.985C150.969 244.03 146.629 241.027 142.402 237.976C141.614 226.728 141.204 215.231 141.204 203.589C141.204 165.265 145.608 128.551 153.838 96.8535C157.768 97.6264 161.754 98.5121 165.78 99.4943C157.743 130.25 153.436 166.086 153.436 203.589H153.428Z" fill="#9CA6F2"/>
<path d="M190.669 60.8325C190.669 70.7435 182.657 78.7706 172.772 78.7706C172.53 78.7706 172.281 78.7626 172.04 78.7545C167.676 78.5855 163.73 76.8464 160.717 74.1009C157.132 70.816 154.874 66.0899 154.874 60.8325C154.874 50.9294 162.887 42.9023 172.78 42.9023C173.286 42.9023 173.792 42.9265 174.282 42.9668C178.614 43.3291 182.512 45.2292 185.413 48.1357C188.668 51.3803 190.677 55.8729 190.677 60.8325H190.669Z" fill="#FDCB6E"/>
<path d="M278.895 388.655C278.895 398.566 270.882 406.593 260.997 406.593C260.756 406.593 260.507 406.585 260.266 406.577C255.902 406.408 251.956 404.669 248.942 401.923C245.358 398.638 243.1 393.912 243.1 388.655C243.1 378.752 251.112 370.725 261.005 370.725C261.511 370.725 262.018 370.749 262.508 370.789C266.84 371.151 270.737 373.051 273.639 375.958C276.894 379.203 278.903 383.695 278.903 388.655H278.895Z" fill="#FDCB6E"/>
<path d="M87.8655 231.809C87.8655 241.712 79.8531 249.739 69.968 249.739C68.4572 249.739 66.9945 249.554 65.5881 249.2C61.4251 248.145 57.8328 245.641 55.4057 242.243C53.3001 239.305 52.0625 235.698 52.0625 231.809C52.0625 221.898 60.075 213.879 69.968 213.879C71.5512 213.879 73.0862 214.08 74.5409 214.467C78.6717 215.562 82.2239 218.09 84.6107 221.511C86.6681 224.426 87.8655 227.977 87.8655 231.809Z" fill="#F2994A"/>
<path d="M398.978 228.532C398.978 231.414 398.303 234.144 397.089 236.551C395.168 240.399 391.905 243.459 387.911 245.109C385.806 245.979 383.499 246.454 381.088 246.454C371.195 246.454 363.183 238.435 363.183 228.524C363.183 224.16 364.742 220.159 367.321 217.051C370.014 213.814 373.815 211.544 378.139 210.835C379.095 210.674 380.076 210.594 381.08 210.594C390.965 210.594 398.978 218.621 398.978 228.524V228.532Z" fill="#FEBC46"/>
</g>
<defs>
<linearGradient id="paint0_linear_1577_3031" x1="84.1367" y1="189.993" x2="432.276" y2="189.993" gradientUnits="userSpaceOnUse">
<stop stop-color="#767EE5"/>
<stop offset="1" stop-color="#9966CC"/>
</linearGradient>
<linearGradient id="paint1_linear_1577_3031" x1="44.4902" y1="284.61" x2="239.653" y2="284.61" gradientUnits="userSpaceOnUse">
<stop stop-color="#767EE5"/>
<stop offset="1" stop-color="#9966CC"/>
</linearGradient>
<linearGradient id="paint2_linear_1577_3031" x1="92.6953" y1="158.958" x2="236.565" y2="158.958" gradientUnits="userSpaceOnUse">
<stop stop-color="#767EE5"/>
<stop offset="1" stop-color="#9966CC"/>
</linearGradient>
<clipPath id="clip0_1577_3031">
<rect width="455" height="406" fill="white" transform="translate(0.169922 0.59375)"/>
</clipPath>
</defs>
</svg>
