<svg width="89" height="88" viewBox="0 0 89 88" fill="none" xmlns="http://www.w3.org/2000/svg">
<g id="Frame" clip-path="url(#clip0_1577_3109)">
<path id="Vector" d="M59.8785 29.8428C60.8905 29.8428 61.886 29.9198 62.887 30.0298C60.192 17.4788 46.7775 8.15625 31.46 8.15625C14.3385 8.15625 0.313477 19.8218 0.313477 34.6443C0.313477 43.1968 4.97748 50.2203 12.7765 55.6763L9.66348 65.0428L20.5535 59.5868C24.4475 60.3513 27.5715 61.1433 31.46 61.1433C32.439 61.1433 33.407 61.0993 34.364 61.0278C33.759 58.9433 33.4015 56.7653 33.4015 54.4938C33.407 40.8868 45.089 29.8428 59.8785 29.8428ZM43.1365 21.4003C45.4905 21.4003 47.036 22.9458 47.036 25.2888C47.036 27.6208 45.4905 29.1828 43.1365 29.1828C40.81 29.1828 38.467 27.6208 38.467 25.2888C38.467 22.9403 40.8045 21.4003 43.1365 21.4003ZM21.34 29.1828C19.0025 29.1828 16.6485 27.6208 16.6485 25.2888C16.6485 22.9458 19.0025 21.4003 21.34 21.4003C23.6775 21.4003 25.2285 22.9403 25.2285 25.2888C25.2285 27.6208 23.6775 29.1828 21.34 29.1828ZM88.3135 54.1198C88.3135 41.6678 75.8505 31.5203 61.853 31.5203C47.0305 31.5203 35.365 41.6733 35.365 54.1198C35.365 66.6048 47.036 76.7193 61.853 76.7193C64.955 76.7193 68.0845 75.9438 71.1975 75.1628L79.739 79.8488L77.396 72.0608C83.6495 67.3638 88.3135 61.1433 88.3135 54.1198ZM53.262 50.2203C51.7165 50.2203 50.149 48.6803 50.149 47.1073C50.149 45.5563 51.7165 43.9943 53.262 43.9943C55.627 43.9943 57.1615 45.5563 57.1615 47.1073C57.1615 48.6803 55.627 50.2203 53.262 50.2203ZM70.3945 50.2203C68.86 50.2203 67.298 48.6803 67.298 47.1073C67.298 45.5563 68.8545 43.9943 70.3945 43.9943C72.7375 43.9943 74.294 45.5563 74.294 47.1073C74.294 48.6803 72.7375 50.2203 70.3945 50.2203Z" fill="#7680DD"/>
</g>
<defs>
<clipPath id="clip0_1577_3109">
<rect width="88" height="88" fill="white" transform="translate(0.313477)"/>
</clipPath>
</defs>
</svg>
