<svg width="22" height="23" viewBox="0 0 22 23" fill="none" xmlns="http://www.w3.org/2000/svg">
<path d="M1.58088 6.48693C0.946654 6.48693 0.430664 5.97094 0.430664 5.33674C0.430664 4.70251 0.946654 4.18652 1.58088 4.18652H20.4187C21.053 4.18652 21.569 4.70251 21.569 5.33674C21.569 5.97094 21.053 6.48693 20.4187 6.48693H1.58088ZM1.58088 13.2321C0.946654 13.2321 0.430664 12.7161 0.430664 12.0818C0.430664 11.4476 0.946654 10.9316 1.58088 10.9316H20.4187C21.053 10.9316 21.569 11.4476 21.569 12.0818C21.569 12.7161 21.053 13.2321 20.4187 13.2321H1.58088ZM1.58088 19.9234C0.946654 19.9234 0.430664 19.4074 0.430664 18.7731C0.430664 18.1389 0.946654 17.6229 1.58088 17.6229H20.4187C21.053 17.6229 21.569 18.1389 21.569 18.7731C21.569 19.4074 21.053 19.9234 20.4187 19.9234H1.58088Z" fill="#D9DBEF"/>
</svg>
