<svg width="245" height="41" viewBox="0 0 245 41" fill="none" xmlns="http://www.w3.org/2000/svg">
<path d="M14.0534 33.511V8.4676C14.0534 8.24064 13.9654 8.02298 13.8087 7.86249C13.6519 7.702 13.4394 7.61184 13.2177 7.61184C12.9961 7.61184 12.7835 7.702 12.6268 7.86249C12.4701 8.02298 12.382 8.24064 12.382 8.4676V33.511C12.382 33.738 12.4701 33.9556 12.6268 34.1161C12.7835 34.2766 12.9961 34.3668 13.2177 34.3668C13.4394 34.3668 13.6519 34.2766 13.8087 34.1161C13.9654 33.9556 14.0534 33.738 14.0534 33.511ZM29.7146 34.3668C29.604 34.3683 29.4942 34.3473 29.3916 34.3049C29.289 34.2626 29.1957 34.1998 29.117 34.1201C29.0384 34.0405 28.976 33.9456 28.9335 33.841C28.891 33.7365 28.8692 33.6243 28.8695 33.511V8.4676C28.8641 8.35194 28.8818 8.23637 28.9213 8.12789C28.9608 8.01941 29.0215 7.92027 29.0995 7.83648C29.1775 7.75268 29.2714 7.68598 29.3753 7.64041C29.4793 7.59483 29.5912 7.57133 29.7043 7.57133C29.8173 7.57133 29.9292 7.59483 30.0332 7.64041C30.1371 7.68598 30.231 7.75268 30.309 7.83648C30.3871 7.92027 30.4477 8.01941 30.4872 8.12789C30.5268 8.23637 30.5444 8.35194 30.539 8.4676V33.511C30.5405 33.6241 30.5201 33.7364 30.4788 33.8413C30.4376 33.9462 30.3764 34.0417 30.2988 34.1222C30.2212 34.2027 30.1288 34.2667 30.0269 34.3103C29.925 34.3539 29.8157 34.3764 29.7052 34.3764L29.7146 34.3668ZM75.0809 34.3668C74.9704 34.368 74.8607 34.3468 74.7582 34.3044C74.6557 34.262 74.5625 34.1991 74.4839 34.1195C74.4053 34.04 74.3429 33.9452 74.3003 33.8407C74.2578 33.7363 74.2358 33.6242 74.2358 33.511V8.4676C74.2358 8.24064 74.3239 8.02298 74.4806 7.86249C74.6373 7.702 74.8499 7.61184 75.0715 7.61184C75.2932 7.61184 75.5058 7.702 75.6625 7.86249C75.8192 8.02298 75.9072 8.24064 75.9072 8.4676V33.511C75.9085 33.6242 75.8878 33.7365 75.8463 33.8414C75.8049 33.9464 75.7435 34.0419 75.6658 34.1223C75.5881 34.2028 75.4955 34.2667 75.3935 34.3103C75.2915 34.3539 75.1821 34.3764 75.0715 34.3764L75.0809 34.3668ZM120.447 34.3668C120.337 34.368 120.227 34.3468 120.125 34.3044C120.022 34.262 119.929 34.1991 119.85 34.1195C119.772 34.04 119.709 33.9452 119.667 33.8407C119.624 33.7363 119.602 33.6242 119.602 33.511V8.4676C119.602 8.24064 119.69 8.02298 119.847 7.86249C120.004 7.702 120.216 7.61184 120.438 7.61184C120.66 7.61184 120.872 7.702 121.029 7.86249C121.186 8.02298 121.274 8.24064 121.274 8.4676V33.511C121.275 33.6242 121.254 33.7365 121.213 33.8414C121.171 33.9464 121.11 34.0419 121.032 34.1223C120.954 34.2028 120.862 34.2667 120.76 34.3103C120.658 34.3539 120.548 34.3764 120.438 34.3764L120.447 34.3668ZM153.441 34.3668C153.33 34.368 153.221 34.3468 153.118 34.3044C153.016 34.262 152.923 34.1991 152.844 34.1195C152.765 34.04 152.703 33.9452 152.66 33.8407C152.618 33.7363 152.596 33.6242 152.596 33.511V8.4676C152.596 8.24064 152.684 8.02298 152.841 7.86249C152.997 7.702 153.21 7.61184 153.432 7.61184C153.653 7.61184 153.866 7.702 154.023 7.86249C154.179 8.02298 154.267 8.24064 154.267 8.4676V33.511C154.269 33.6242 154.248 33.7365 154.206 33.8414C154.165 33.9464 154.104 34.0419 154.026 34.1223C153.948 34.2028 153.856 34.2667 153.754 34.3103C153.652 34.3539 153.542 34.3764 153.432 34.3764L153.441 34.3668ZM174.053 34.3668C173.831 34.3668 173.618 34.2766 173.462 34.1161C173.305 33.9556 173.217 33.738 173.217 33.511V8.4676C173.217 8.24064 173.305 8.02298 173.462 7.86249C173.618 7.702 173.831 7.61184 174.053 7.61184C174.274 7.61184 174.487 7.702 174.644 7.86249C174.8 8.02298 174.888 8.24064 174.888 8.4676V33.511C174.89 33.6242 174.869 33.7365 174.827 33.8414C174.786 33.9464 174.725 34.0419 174.647 34.1223C174.569 34.2028 174.477 34.2667 174.375 34.3103C174.273 34.3539 174.163 34.3764 174.053 34.3764V34.3668ZM194.674 34.3668C194.452 34.3668 194.239 34.2766 194.083 34.1161C193.926 33.9556 193.838 33.738 193.838 33.511V8.4676C193.838 8.24064 193.926 8.02298 194.083 7.86249C194.239 7.702 194.452 7.61184 194.674 7.61184C194.895 7.61184 195.108 7.702 195.265 7.86249C195.421 8.02298 195.509 8.24064 195.509 8.4676V33.511C195.511 33.6242 195.49 33.7365 195.449 33.8414C195.407 33.9464 195.346 34.0419 195.268 34.1223C195.19 34.2028 195.098 34.2667 194.996 34.3103C194.894 34.3539 194.784 34.3764 194.674 34.3764V34.3668ZM211.163 34.3668C210.941 34.3668 210.729 34.2766 210.572 34.1161C210.415 33.9556 210.327 33.738 210.327 33.511V8.4676C210.327 8.24064 210.415 8.02298 210.572 7.86249C210.729 7.702 210.941 7.61184 211.163 7.61184C211.385 7.61184 211.597 7.702 211.754 7.86249C211.911 8.02298 211.999 8.24064 211.999 8.4676V33.511C212.001 33.7373 211.916 33.9554 211.762 34.1176C211.608 34.2798 211.397 34.3728 211.176 34.3764L211.163 34.3668ZM9.08414 40.9941C8.974 40.9949 8.86482 40.9733 8.76288 40.9306C8.66094 40.8879 8.56827 40.825 8.49022 40.7454C8.41217 40.6658 8.35029 40.5712 8.30814 40.467C8.266 40.3628 8.24443 40.2511 8.24468 40.1383V1.85178C8.23933 1.73612 8.25695 1.62055 8.29649 1.51207C8.33602 1.40358 8.39665 1.30445 8.47469 1.22066C8.55273 1.13686 8.64657 1.07016 8.75052 1.02459C8.85447 0.979012 8.96637 0.955513 9.07945 0.955513C9.19253 0.955513 9.30443 0.979012 9.40838 1.02459C9.51233 1.07016 9.60617 1.13686 9.68421 1.22066C9.76226 1.30445 9.82288 1.40358 9.86242 1.51207C9.90195 1.62055 9.91958 1.73612 9.91423 1.85178V40.1383C9.91472 40.3645 9.82761 40.5816 9.67199 40.742C9.51637 40.9024 9.30496 40.9931 9.08414 40.9941ZM42.0778 40.9941C41.968 40.9944 41.8592 40.9724 41.7577 40.9295C41.6562 40.8866 41.564 40.8235 41.4864 40.744C41.4087 40.6645 41.3472 40.5701 41.3052 40.4661C41.2633 40.3622 41.2419 40.2508 41.2421 40.1383V1.85178C41.2368 1.73612 41.2544 1.62055 41.2939 1.51207C41.3335 1.40358 41.3941 1.30445 41.4721 1.22066C41.5502 1.13686 41.644 1.07016 41.748 1.02459C41.8519 0.979012 41.9638 0.955513 42.0769 0.955513C42.19 0.955513 42.3019 0.979012 42.4058 1.02459C42.5098 1.07016 42.6036 1.13686 42.6817 1.22066C42.7597 1.30445 42.8203 1.40358 42.8599 1.51207C42.8994 1.62055 42.917 1.73612 42.9117 1.85178V40.1383C42.9119 40.2506 42.8905 40.3619 42.8487 40.4657C42.8069 40.5695 42.7456 40.6639 42.6681 40.7433C42.5907 40.8228 42.4987 40.8859 42.3974 40.9289C42.2961 40.972 42.1875 40.9941 42.0778 40.9941ZM25.5885 40.9941C25.3668 40.9941 25.1543 40.9039 24.9975 40.7435C24.8408 40.583 24.7528 40.3653 24.7528 40.1383V1.85178C24.7528 1.62482 24.8408 1.40715 24.9975 1.24667C25.1543 1.08618 25.3668 0.996021 25.5885 0.996021C25.8101 0.996021 26.0227 1.08618 26.1794 1.24667C26.3361 1.40715 26.4242 1.62482 26.4242 1.85178V40.1383C26.4242 40.2514 26.4023 40.3633 26.3599 40.4676C26.3174 40.5719 26.2552 40.6666 26.1768 40.7462C26.0984 40.8258 26.0054 40.8886 25.9031 40.9312C25.8008 40.9737 25.6914 40.9951 25.581 40.9941H25.5885ZM66.8306 40.9941C66.7208 40.9944 66.612 40.9724 66.5105 40.9295C66.409 40.8866 66.3168 40.8235 66.2391 40.744C66.1615 40.6645 66.0999 40.5701 66.058 40.4661C66.0161 40.3622 65.9947 40.2508 65.9949 40.1383V1.85178C65.9895 1.73612 66.0072 1.62055 66.0467 1.51207C66.0863 1.40358 66.1469 1.30445 66.2249 1.22066C66.303 1.13686 66.3968 1.07016 66.5007 1.02459C66.6047 0.979012 66.7166 0.955513 66.8297 0.955513C66.9427 0.955513 67.0547 0.979012 67.1586 1.02459C67.2626 1.07016 67.3564 1.13686 67.4344 1.22066C67.5125 1.30445 67.5731 1.40358 67.6126 1.51207C67.6522 1.62055 67.6698 1.73612 67.6644 1.85178V40.1383C67.6647 40.2513 67.6431 40.3632 67.6008 40.4675C67.5585 40.5718 67.4965 40.6665 67.4182 40.7461C67.34 40.8257 67.2471 40.8886 67.145 40.9311C67.0428 40.9737 66.9334 40.9951 66.8231 40.9941H66.8306ZM112.189 40.9941C111.968 40.9941 111.755 40.9039 111.599 40.7435C111.442 40.583 111.354 40.3653 111.354 40.1383V1.85178C111.354 1.62482 111.442 1.40715 111.599 1.24667C111.755 1.08618 111.968 0.996021 112.189 0.996021C112.411 0.996021 112.624 1.08618 112.78 1.24667C112.937 1.40715 113.025 1.62482 113.025 1.85178V40.1383C113.025 40.3653 112.937 40.583 112.78 40.7435C112.624 40.9039 112.411 40.9941 112.189 40.9941ZM149.307 40.9941C149.086 40.9941 148.873 40.9039 148.716 40.7435C148.56 40.583 148.472 40.3653 148.472 40.1383V1.85178C148.472 1.62482 148.56 1.40715 148.716 1.24667C148.873 1.08618 149.086 0.996021 149.307 0.996021C149.529 0.996021 149.742 1.08618 149.898 1.24667C150.055 1.40715 150.143 1.62482 150.143 1.85178V40.1383C150.143 40.3653 150.055 40.583 149.898 40.7435C149.742 40.9039 149.529 40.9941 149.307 40.9941ZM169.919 40.9941C169.697 40.9941 169.485 40.9039 169.328 40.7435C169.171 40.583 169.083 40.3653 169.083 40.1383V1.85178C169.083 1.62482 169.171 1.40715 169.328 1.24667C169.485 1.08618 169.697 0.996021 169.919 0.996021C170.141 0.996021 170.353 1.08618 170.51 1.24667C170.667 1.40715 170.755 1.62482 170.755 1.85178V40.1383C170.755 40.3637 170.668 40.5799 170.513 40.7401C170.359 40.9003 170.148 40.9916 169.928 40.9941H169.919ZM190.531 40.9941C190.309 40.9941 190.097 40.9039 189.94 40.7435C189.783 40.583 189.695 40.3653 189.695 40.1383V1.85178C189.695 1.62482 189.783 1.40715 189.94 1.24667C190.097 1.08618 190.309 0.996021 190.531 0.996021C190.752 0.996021 190.965 1.08618 191.122 1.24667C191.278 1.40715 191.366 1.62482 191.366 1.85178V40.1383C191.367 40.362 191.281 40.5768 191.128 40.7368C190.976 40.8967 190.768 40.9891 190.549 40.9941H190.531ZM21.4568 28.7026C21.3471 28.7029 21.2385 28.681 21.1371 28.6382C21.0357 28.5954 20.9436 28.5326 20.866 28.4532C20.7883 28.3739 20.7267 28.2797 20.6847 28.176C20.6427 28.0723 20.6211 27.9611 20.6211 27.8488V14.1317C20.6312 13.912 20.7236 13.7048 20.8791 13.553C21.0345 13.4012 21.241 13.3165 21.4558 13.3165C21.6706 13.3165 21.8772 13.4012 22.0326 13.553C22.1881 13.7048 22.2804 13.912 22.2906 14.1317V27.8488C22.2906 28.0753 22.2028 28.2924 22.0464 28.4526C21.89 28.6127 21.6779 28.7026 21.4568 28.7026ZM46.2021 28.7026C45.9807 28.7027 45.7684 28.6128 45.6118 28.4527C45.4551 28.2926 45.3668 28.0754 45.3663 27.8488V14.1317C45.3663 13.9048 45.4544 13.6871 45.6111 13.5266C45.7678 13.3661 45.9804 13.276 46.2021 13.276C46.4237 13.276 46.6363 13.3661 46.793 13.5266C46.9497 13.6871 47.0378 13.9048 47.0378 14.1317V27.8488C47.0373 28.0754 46.949 28.2926 46.7923 28.4527C46.6357 28.6128 46.4234 28.7027 46.2021 28.7026ZM91.5684 28.7026C91.3471 28.7027 91.1348 28.6128 90.9781 28.4527C90.8214 28.2926 90.7332 28.0754 90.7327 27.8488V14.1317C90.7327 13.9048 90.8207 13.6871 90.9775 13.5266C91.1342 13.3661 91.3467 13.276 91.5684 13.276C91.79 13.276 92.0026 13.3661 92.1593 13.5266C92.3161 13.6871 92.4041 13.9048 92.4041 14.1317V27.8488C92.4036 28.0754 92.3153 28.2926 92.1587 28.4527C92.002 28.6128 91.7897 28.7027 91.5684 28.7026ZM136.935 28.7026C136.713 28.7027 136.501 28.6128 136.344 28.4527C136.188 28.2926 136.1 28.0754 136.099 27.8488V14.1317C136.099 13.9048 136.187 13.6871 136.344 13.5266C136.501 13.3661 136.713 13.276 136.935 13.276C137.156 13.276 137.369 13.3661 137.526 13.5266C137.682 13.6871 137.77 13.9048 137.77 14.1317V27.8488C137.77 28.0754 137.682 28.2926 137.525 28.4527C137.368 28.6128 137.156 28.7027 136.935 28.7026ZM161.68 28.7026C161.459 28.7027 161.246 28.6128 161.09 28.4527C160.933 28.2926 160.845 28.0754 160.844 27.8488V14.1317C160.844 13.9048 160.932 13.6871 161.089 13.5266C161.246 13.3661 161.458 13.276 161.68 13.276C161.902 13.276 162.114 13.3661 162.271 13.5266C162.428 13.6871 162.516 13.9048 162.516 14.1317V27.8488C162.515 28.0754 162.427 28.2926 162.27 28.4527C162.114 28.6128 161.901 28.7027 161.68 28.7026ZM182.292 28.7026C182.07 28.7027 181.858 28.6128 181.701 28.4527C181.545 28.2926 181.456 28.0754 181.456 27.8488V14.1317C181.456 13.9048 181.544 13.6871 181.701 13.5266C181.857 13.3661 182.07 13.276 182.292 13.276C182.513 13.276 182.726 13.3661 182.883 13.5266C183.039 13.6871 183.127 13.9048 183.127 14.1317V27.8488C183.127 28.0738 183.04 28.2895 182.885 28.4493C182.731 28.6091 182.521 28.7001 182.301 28.7026H182.292ZM202.913 28.7026C202.691 28.7027 202.479 28.6128 202.323 28.4527C202.166 28.2926 202.078 28.0754 202.077 27.8488V14.1317C202.077 13.9048 202.165 13.6871 202.322 13.5266C202.479 13.3661 202.691 13.276 202.913 13.276C203.134 13.276 203.347 13.3661 203.504 13.5266C203.66 13.6871 203.748 13.9048 203.748 14.1317V27.8488C203.748 28.0722 203.662 28.2865 203.51 28.446C203.357 28.6055 203.15 28.6976 202.932 28.7026H202.913ZM219.402 28.7026C219.181 28.7027 218.969 28.6128 218.812 28.4527C218.655 28.2926 218.567 28.0754 218.566 27.8488V14.1317C218.566 13.9048 218.654 13.6871 218.811 13.5266C218.968 13.3661 219.18 13.276 219.402 13.276C219.624 13.276 219.836 13.3661 219.993 13.5266C220.15 13.6871 220.238 13.9048 220.238 14.1317V27.8488C220.237 28.0722 220.152 28.2865 219.999 28.446C219.846 28.6055 219.639 28.6976 219.421 28.7026H219.402ZM58.5578 28.7026C58.3365 28.7027 58.1242 28.6128 57.9676 28.4527C57.8109 28.2926 57.7226 28.0754 57.7221 27.8488V14.1317C57.7221 13.9048 57.8102 13.6871 57.9669 13.5266C58.1236 13.3661 58.3362 13.276 58.5578 13.276C58.7795 13.276 58.992 13.3661 59.1488 13.5266C59.3055 13.6871 59.3935 13.9048 59.3935 14.1317V27.8488C59.3931 28.0725 59.3071 28.2871 59.1541 28.4467C59.0011 28.6062 58.7931 28.6981 58.5747 28.7026H58.5578ZM99.7999 28.7026C99.5786 28.7027 99.3664 28.6128 99.2097 28.4527C99.053 28.2926 98.9647 28.0754 98.9642 27.8488V14.1317C98.9642 13.9048 99.0523 13.6871 99.209 13.5266C99.3657 13.3661 99.5783 13.276 99.7999 13.276C100.022 13.276 100.234 13.3661 100.391 13.5266C100.548 13.6871 100.636 13.9048 100.636 14.1317V27.8488C100.635 28.0725 100.549 28.2871 100.396 28.4467C100.243 28.6062 100.035 28.6981 99.8168 28.7026H99.7999ZM145.166 28.7026C144.945 28.7027 144.733 28.6128 144.576 28.4527C144.419 28.2926 144.331 28.0754 144.331 27.8488V14.1317C144.331 13.9048 144.419 13.6871 144.575 13.5266C144.732 13.3661 144.945 13.276 145.166 13.276C145.388 13.276 145.601 13.3661 145.757 13.5266C145.914 13.6871 146.002 13.9048 146.002 14.1317V27.8488C146.002 28.0725 145.916 28.2871 145.763 28.4467C145.61 28.6062 145.402 28.6981 145.183 28.7026H145.166ZM165.787 28.7026C165.566 28.7027 165.354 28.6128 165.197 28.4527C165.04 28.2926 164.952 28.0754 164.952 27.8488V14.1317C164.952 13.9048 165.04 13.6871 165.196 13.5266C165.353 13.3661 165.566 13.276 165.787 13.276C166.009 13.276 166.222 13.3661 166.378 13.5266C166.535 13.6871 166.623 13.9048 166.623 14.1317V27.8488C166.623 28.0725 166.537 28.2871 166.384 28.4467C166.231 28.6062 166.023 28.6981 165.804 28.7026H165.787ZM186.399 28.7026C186.178 28.7027 185.965 28.6128 185.809 28.4527C185.652 28.2926 185.564 28.0754 185.563 27.8488V14.1317C185.563 13.9048 185.651 13.6871 185.808 13.5266C185.965 13.3661 186.177 13.276 186.399 13.276C186.621 13.276 186.833 13.3661 186.99 13.5266C187.147 13.6871 187.235 13.9048 187.235 14.1317V27.8488C187.234 28.0709 187.15 28.2841 186.999 28.4434C186.848 28.6027 186.642 28.6957 186.425 28.7026H186.399ZM207.02 28.7026C206.799 28.7027 206.587 28.6128 206.43 28.4527C206.273 28.2926 206.185 28.0754 206.184 27.8488V14.1317C206.184 13.9048 206.272 13.6871 206.429 13.5266C206.586 13.3661 206.798 13.276 207.02 13.276C207.242 13.276 207.454 13.3661 207.611 13.5266C207.768 13.6871 207.856 13.9048 207.856 14.1317V27.8488C207.856 28.0696 207.772 28.2817 207.622 28.4408C207.473 28.5999 207.269 28.6937 207.054 28.7026H207.02ZM223.509 28.7026C223.288 28.7027 223.076 28.6128 222.919 28.4527C222.763 28.2926 222.674 28.0754 222.674 27.8488V14.1317C222.674 13.9048 222.762 13.6871 222.919 13.5266C223.075 13.3661 223.288 13.276 223.509 13.276C223.731 13.276 223.944 13.3661 224.1 13.5266C224.257 13.6871 224.345 13.9048 224.345 14.1317V27.8488C224.345 28.0696 224.261 28.2817 224.112 28.4408C223.962 28.5999 223.759 28.6937 223.543 28.7026H223.509ZM4.9262 28.7026C4.71029 28.6947 4.50582 28.6012 4.35587 28.442C4.20592 28.2827 4.1222 28.07 4.12234 27.8488V14.1317C4.13251 13.912 4.2249 13.7048 4.38033 13.553C4.53577 13.4012 4.74232 13.3165 4.95711 13.3165C5.17191 13.3165 5.37846 13.4012 5.53389 13.553C5.68933 13.7048 5.78172 13.912 5.79189 14.1317V27.8488C5.79189 28.0749 5.70429 28.2918 5.54832 28.4519C5.39235 28.612 5.18075 28.7021 4.95992 28.7026H4.9262ZM240.006 28.7026C239.785 28.7027 239.573 28.6128 239.416 28.4527C239.259 28.2926 239.171 28.0754 239.171 27.8488V14.1317C239.171 13.9048 239.259 13.6871 239.415 13.5266C239.572 13.3661 239.785 13.276 240.006 13.276C240.228 13.276 240.441 13.3661 240.597 13.5266C240.754 13.6871 240.842 13.9048 240.842 14.1317V27.8488C240.842 28.0709 240.757 28.2841 240.606 28.4434C240.455 28.6027 240.249 28.6957 240.033 28.7026H240.006ZM235.884 34.3764C235.774 34.3764 235.666 34.3542 235.564 34.3112C235.463 34.2682 235.371 34.2052 235.293 34.1257C235.215 34.0463 235.154 33.9519 235.112 33.8481C235.07 33.7443 235.048 33.633 235.048 33.5206V8.4676C235.048 8.24064 235.136 8.02298 235.293 7.86249C235.45 7.702 235.662 7.61184 235.884 7.61184C236.106 7.61184 236.318 7.702 236.475 7.86249C236.632 8.02298 236.72 8.24064 236.72 8.4676V33.511C236.722 33.7351 236.639 33.9512 236.488 34.113C236.336 34.2748 236.129 34.3693 235.91 34.3764H235.884ZM231.788 40.9941C231.566 40.9941 231.354 40.9039 231.197 40.7435C231.04 40.583 230.952 40.3653 230.952 40.1383V1.85178C230.952 1.62482 231.04 1.40715 231.197 1.24667C231.354 1.08618 231.566 0.996021 231.788 0.996021C232.01 0.996021 232.222 1.08618 232.379 1.24667C232.536 1.40715 232.624 1.62482 232.624 1.85178V40.1383C232.624 40.3653 232.536 40.583 232.379 40.7435C232.222 40.9039 232.01 40.9941 231.788 40.9941ZM227.666 28.7026C227.444 28.7027 227.232 28.6128 227.075 28.4527C226.919 28.2926 226.83 28.0754 226.83 27.8488V14.1317C226.83 13.9048 226.918 13.6871 227.075 13.5266C227.231 13.3661 227.444 13.276 227.666 13.276C227.887 13.276 228.1 13.3661 228.256 13.5266C228.413 13.6871 228.501 13.9048 228.501 14.1317V27.8488C228.501 28.0754 228.412 28.2926 228.256 28.4527C228.099 28.6128 227.887 28.7027 227.666 28.7026ZM17.3326 24.4488C17.2223 24.4501 17.1128 24.4289 17.0106 24.3866C16.9083 24.3442 16.8153 24.2815 16.7369 24.2021C16.6585 24.1227 16.5962 24.0282 16.5537 23.9239C16.5112 23.8197 16.4893 23.7079 16.4894 23.595V18.3933C16.4995 18.1735 16.5919 17.9663 16.7474 17.8145C16.9028 17.6627 17.1093 17.578 17.3241 17.578C17.5389 17.578 17.7455 17.6627 17.9009 17.8145C18.0563 17.9663 18.1487 18.1735 18.1589 18.3933V23.595C18.1589 23.8201 18.0721 24.0361 17.9173 24.196C17.7626 24.3559 17.5524 24.4468 17.3326 24.4488ZM33.8219 24.4488C33.7123 24.4491 33.6036 24.4272 33.5022 24.3844C33.4009 24.3416 33.3087 24.2787 33.2311 24.1994C33.1535 24.1201 33.0919 24.0259 33.0499 23.9222C33.0078 23.8184 32.9862 23.7072 32.9862 23.595V18.3933C32.9964 18.1735 33.0888 17.9663 33.2442 17.8145C33.3996 17.6627 33.6062 17.578 33.821 17.578C34.0358 17.578 34.2423 17.6627 34.3978 17.8145C34.5532 17.9663 34.6456 18.1735 34.6558 18.3933V23.595C34.6558 23.8201 34.5689 24.0361 34.4142 24.196C34.2594 24.3559 34.0493 24.4468 33.8294 24.4488H33.8219ZM83.3125 24.4488C83.0911 24.4488 82.8789 24.3589 82.7222 24.1988C82.5655 24.0388 82.4773 23.8216 82.4768 23.595V18.3933C82.4768 18.1663 82.5648 17.9486 82.7215 17.7881C82.8783 17.6277 83.0908 17.5375 83.3125 17.5375C83.5341 17.5375 83.7467 17.6277 83.9034 17.7881C84.0601 17.9486 84.1482 18.1663 84.1482 18.3933V23.595C84.1477 23.8203 84.0605 24.0363 83.9054 24.1961C83.7504 24.356 83.54 24.4468 83.32 24.4488H83.3125ZM54.4505 34.3764C54.3399 34.3766 54.2303 34.3544 54.1282 34.3108C54.0261 34.2673 53.9334 34.2034 53.8556 34.1229C53.7779 34.0424 53.7165 33.9468 53.6752 33.8417C53.6338 33.7367 53.6133 33.6243 53.6148 33.511V8.4676C53.6094 8.35194 53.627 8.23637 53.6666 8.12789C53.7061 8.01941 53.7667 7.92027 53.8448 7.83648C53.9228 7.75268 54.0167 7.68598 54.1206 7.64041C54.2246 7.59483 54.3365 7.57133 54.4495 7.57133C54.5626 7.57133 54.6745 7.59483 54.7785 7.64041C54.8824 7.68598 54.9763 7.75268 55.0543 7.83648C55.1323 7.92027 55.193 8.01941 55.2325 8.12789C55.272 8.23637 55.2897 8.35194 55.2843 8.4676V33.511C55.2858 33.6241 55.2653 33.7364 55.2241 33.8413C55.1829 33.9462 55.1217 34.0417 55.0441 34.1222C54.9665 34.2027 54.8741 34.2667 54.7722 34.3103C54.6703 34.3539 54.5609 34.3764 54.4505 34.3764ZM87.4442 34.3764C87.3336 34.3764 87.2242 34.3539 87.1222 34.3103C87.0202 34.2667 86.9276 34.2028 86.8499 34.1223C86.7722 34.0419 86.7108 33.9464 86.6694 33.8414C86.6279 33.7365 86.6072 33.6242 86.6085 33.511V8.4676C86.6085 8.24064 86.6965 8.02298 86.8532 7.86249C87.01 7.702 87.2225 7.61184 87.4442 7.61184C87.6658 7.61184 87.8784 7.702 88.0351 7.86249C88.1918 8.02298 88.2799 8.24064 88.2799 8.4676V33.511C88.2811 33.6242 88.2604 33.7365 88.219 33.8414C88.1775 33.9464 88.1162 34.0419 88.0385 34.1223C87.9607 34.2028 87.8682 34.2667 87.7662 34.3103C87.6642 34.3539 87.5547 34.3764 87.4442 34.3764ZM132.811 34.3764C132.7 34.3764 132.591 34.3539 132.489 34.3103C132.387 34.2667 132.294 34.2028 132.216 34.1223C132.139 34.0419 132.077 33.9464 132.036 33.8414C131.994 33.7365 131.974 33.6242 131.975 33.511V8.4676C131.975 8.24064 132.063 8.02298 132.22 7.86249C132.376 7.702 132.589 7.61184 132.811 7.61184C133.032 7.61184 133.245 7.702 133.401 7.86249C133.558 8.02298 133.646 8.24064 133.646 8.4676V33.511C133.647 33.6242 133.627 33.7365 133.585 33.8414C133.544 33.9464 133.483 34.0419 133.405 34.1223C133.327 34.2028 133.235 34.2667 133.133 34.3103C133.031 34.3539 132.921 34.3764 132.811 34.3764ZM50.3263 40.9941C50.1046 40.9941 49.8921 40.9039 49.7353 40.7435C49.5786 40.583 49.4906 40.3653 49.4906 40.1383V1.85178C49.4906 1.62482 49.5786 1.40715 49.7353 1.24667C49.8921 1.08618 50.1046 0.996021 50.3263 0.996021C50.5479 0.996021 50.7605 1.08618 50.9172 1.24667C51.0739 1.40715 51.162 1.62482 51.162 1.85178V40.1383C51.162 40.2507 51.1404 40.362 51.0984 40.4658C51.0564 40.5697 50.9948 40.664 50.9172 40.7435C50.8396 40.8229 50.7475 40.886 50.6461 40.929C50.5447 40.972 50.436 40.9941 50.3263 40.9941ZM103.941 40.9941C103.831 40.9941 103.723 40.972 103.621 40.929C103.52 40.886 103.428 40.8229 103.35 40.7435C103.272 40.664 103.211 40.5697 103.169 40.4658C103.127 40.362 103.105 40.2507 103.105 40.1383V1.85178C103.105 1.7394 103.127 1.62812 103.169 1.5243C103.211 1.42047 103.272 1.32613 103.35 1.24667C103.428 1.16721 103.52 1.10417 103.621 1.06116C103.723 1.01816 103.831 0.996021 103.941 0.996021C104.051 0.996021 104.159 1.01816 104.261 1.06116C104.362 1.10417 104.454 1.16721 104.532 1.24667C104.61 1.32613 104.671 1.42047 104.713 1.5243C104.755 1.62812 104.777 1.7394 104.777 1.85178V40.1383C104.777 40.3653 104.689 40.583 104.532 40.7435C104.375 40.9039 104.163 40.9941 103.941 40.9941ZM79.1958 40.9941C79.0859 40.9944 78.9772 40.9724 78.8756 40.9295C78.7741 40.8866 78.6819 40.8235 78.6043 40.744C78.5266 40.6645 78.4651 40.5701 78.4232 40.4661C78.3812 40.3622 78.3598 40.2508 78.36 40.1383V1.85178C78.3547 1.73612 78.3723 1.62055 78.4118 1.51207C78.4514 1.40358 78.512 1.30445 78.5901 1.22066C78.6681 1.13686 78.7619 1.07016 78.8659 1.02459C78.9698 0.979012 79.0817 0.955513 79.1948 0.955513C79.3079 0.955513 79.4198 0.979012 79.5238 1.02459C79.6277 1.07016 79.7215 1.13686 79.7996 1.22066C79.8776 1.30445 79.9382 1.40358 79.9778 1.51207C80.0173 1.62055 80.0349 1.73612 80.0296 1.85178V40.1383C80.0298 40.2506 80.0085 40.3619 79.9667 40.4657C79.9249 40.5695 79.8635 40.6639 79.786 40.7433C79.7086 40.8228 79.6166 40.8859 79.5153 40.9289C79.414 40.972 79.3054 40.9941 79.1958 40.9941ZM124.562 40.9941C124.452 40.9941 124.344 40.972 124.242 40.929C124.141 40.886 124.049 40.8229 123.971 40.7435C123.894 40.664 123.832 40.5697 123.79 40.4658C123.748 40.362 123.726 40.2507 123.726 40.1383V1.85178C123.726 1.62482 123.814 1.40715 123.971 1.24667C124.128 1.08618 124.34 0.996021 124.562 0.996021C124.784 0.996021 124.996 1.08618 125.153 1.24667C125.31 1.40715 125.398 1.62482 125.398 1.85178V40.1383C125.398 40.3653 125.31 40.583 125.153 40.7435C124.996 40.9039 124.784 40.9941 124.562 40.9941ZM70.9473 28.7026C70.726 28.7027 70.5137 28.6128 70.3571 28.4527C70.2004 28.2926 70.1121 28.0754 70.1116 27.8488V14.1317C70.1116 13.9048 70.1997 13.6871 70.3564 13.5266C70.5131 13.3661 70.7257 13.276 70.9473 13.276C71.169 13.276 71.3815 13.3661 71.5383 13.5266C71.695 13.6871 71.783 13.9048 71.783 14.1317V27.8488C71.7825 28.0754 71.6943 28.2926 71.5376 28.4527C71.3809 28.6128 71.1686 28.7027 70.9473 28.7026ZM108.065 28.7026C107.844 28.7027 107.632 28.6128 107.475 28.4527C107.318 28.2926 107.23 28.0754 107.23 27.8488V14.1317C107.23 13.9048 107.318 13.6871 107.474 13.5266C107.631 13.3661 107.844 13.276 108.065 13.276C108.287 13.276 108.499 13.3661 108.656 13.5266C108.813 13.6871 108.901 13.9048 108.901 14.1317V27.8488C108.9 28.0754 108.812 28.2926 108.656 28.4527C108.499 28.6128 108.287 28.7027 108.065 28.7026ZM116.31 28.7026C116.089 28.7027 115.876 28.6128 115.72 28.4527C115.563 28.2926 115.475 28.0754 115.474 27.8488V14.1317C115.474 13.9048 115.562 13.6871 115.719 13.5266C115.876 13.3661 116.088 13.276 116.31 13.276C116.532 13.276 116.744 13.3661 116.901 13.5266C117.058 13.6871 117.146 13.9048 117.146 14.1317V27.8488C117.145 28.0748 117.057 28.2914 116.902 28.4513C116.746 28.6113 116.534 28.7016 116.314 28.7026H116.31ZM37.9499 28.7026C37.7286 28.7027 37.5163 28.6128 37.3596 28.4527C37.2029 28.2926 37.1147 28.0754 37.1142 27.8488V14.1317C37.1142 13.9048 37.2022 13.6871 37.3589 13.5266C37.5157 13.3661 37.7282 13.276 37.9499 13.276C38.1715 13.276 38.3841 13.3661 38.5408 13.5266C38.6975 13.6871 38.7856 13.9048 38.7856 14.1317V27.8488C38.7851 28.0748 38.6973 28.2914 38.5415 28.4513C38.3856 28.6113 38.1743 28.7016 37.9536 28.7026H37.9499ZM62.6989 24.4488C62.4776 24.4488 62.2653 24.3589 62.1086 24.1988C61.952 24.0388 61.8637 23.8216 61.8632 23.595V18.3933C61.8632 18.1663 61.9512 17.9486 62.108 17.7881C62.2647 17.6277 62.4773 17.5375 62.6989 17.5375C62.9205 17.5375 63.1331 17.6277 63.2898 17.7881C63.4466 17.9486 63.5346 18.1663 63.5346 18.3933V23.595C63.5341 23.8216 63.4459 24.0388 63.2892 24.1988C63.1325 24.3589 62.9202 24.4488 62.6989 24.4488ZM95.6926 24.4488C95.4713 24.4488 95.259 24.3589 95.1023 24.1988C94.9457 24.0388 94.8574 23.8216 94.8569 23.595V18.3933C94.8569 18.1663 94.9449 17.9486 95.1017 17.7881C95.2584 17.6277 95.471 17.5375 95.6926 17.5375C95.9143 17.5375 96.1268 17.6277 96.2835 17.7881C96.4403 17.9486 96.5283 18.1663 96.5283 18.3933V23.595C96.5278 23.8216 96.4396 24.0388 96.2829 24.1988C96.1262 24.3589 95.9139 24.4488 95.6926 24.4488ZM141.059 24.4488C140.838 24.4488 140.625 24.3589 140.469 24.1988C140.312 24.0388 140.224 23.8216 140.223 23.595V18.3933C140.223 18.1663 140.311 17.9486 140.468 17.7881C140.625 17.6277 140.837 17.5375 141.059 17.5375C141.281 17.5375 141.493 17.6277 141.65 17.7881C141.807 17.9486 141.895 18.1663 141.895 18.3933V23.595C141.894 23.8216 141.806 24.0388 141.649 24.1988C141.493 24.3589 141.28 24.4488 141.059 24.4488ZM128.692 24.4488C128.471 24.4488 128.258 24.3589 128.102 24.1988C127.945 24.0388 127.857 23.8216 127.856 23.595V18.3933C127.856 18.1663 127.944 17.9486 128.101 17.7881C128.258 17.6277 128.47 17.5375 128.692 17.5375C128.914 17.5375 129.126 17.6277 129.283 17.7881C129.44 17.9486 129.528 18.1663 129.528 18.3933V23.595C129.527 23.7077 129.505 23.8192 129.463 23.9232C129.421 24.0272 129.358 24.1215 129.28 24.2009C129.202 24.2802 129.109 24.343 129.007 24.3855C128.905 24.428 128.796 24.4496 128.686 24.4488H128.692ZM157.561 24.4488C157.34 24.4488 157.128 24.3589 156.971 24.1988C156.814 24.0388 156.726 23.8216 156.726 23.595V18.3933C156.726 18.1663 156.814 17.9486 156.97 17.7881C157.127 17.6277 157.34 17.5375 157.561 17.5375C157.783 17.5375 157.996 17.6277 158.152 17.7881C158.309 17.9486 158.397 18.1663 158.397 18.3933V23.595C158.397 23.7077 158.375 23.8192 158.332 23.9232C158.29 24.0272 158.228 24.1215 158.15 24.2009C158.072 24.2802 157.979 24.343 157.877 24.3855C157.775 24.428 157.666 24.4496 157.556 24.4488H157.561ZM178.173 24.4488C177.952 24.4488 177.74 24.3589 177.583 24.1988C177.426 24.0388 177.338 23.8216 177.337 23.595V18.3933C177.337 18.1663 177.425 17.9486 177.582 17.7881C177.739 17.6277 177.951 17.5375 178.173 17.5375C178.395 17.5375 178.607 17.6277 178.764 17.7881C178.921 17.9486 179.009 18.1663 179.009 18.3933V23.595C179.008 23.8209 178.921 24.0375 178.765 24.1975C178.609 24.3574 178.398 24.4478 178.177 24.4488H178.173ZM244.161 24.4488C243.939 24.4488 243.727 24.3589 243.57 24.1988C243.414 24.0388 243.325 23.8216 243.325 23.595V18.3933C243.325 18.1663 243.413 17.9486 243.57 17.7881C243.726 17.6277 243.939 17.5375 244.161 17.5375C244.382 17.5375 244.595 17.6277 244.751 17.7881C244.908 17.9486 244.996 18.1663 244.996 18.3933V23.595C244.996 23.8209 244.908 24.0375 244.752 24.1975C244.596 24.3574 244.385 24.4478 244.164 24.4488H244.161ZM0.835711 24.4488C0.614391 24.4488 0.402108 24.3589 0.245435 24.1988C0.0887631 24.0388 0.000496233 23.8216 0 23.595L0 18.3933C0 18.1663 0.0880478 17.9486 0.244774 17.7881C0.4015 17.6277 0.614066 17.5375 0.835711 17.5375C1.05735 17.5375 1.26992 17.6277 1.42665 17.7881C1.58337 17.9486 1.67142 18.1663 1.67142 18.3933V23.595C1.67092 23.8216 1.58266 24.0388 1.42599 24.1988C1.26931 24.3589 1.05703 24.4488 0.835711 24.4488ZM198.798 24.4488C198.577 24.4488 198.364 24.3589 198.208 24.1988C198.051 24.0388 197.963 23.8216 197.962 23.595V18.3933C197.962 18.1663 198.05 17.9486 198.207 17.7881C198.364 17.6277 198.576 17.5375 198.798 17.5375C199.02 17.5375 199.232 17.6277 199.389 17.7881C199.546 17.9486 199.634 18.1663 199.634 18.3933V23.595C199.633 23.8216 199.545 24.0388 199.388 24.1988C199.232 24.3589 199.019 24.4488 198.798 24.4488ZM215.287 24.4488C215.066 24.4488 214.854 24.3589 214.697 24.1988C214.54 24.0388 214.452 23.8216 214.452 23.595V18.3933C214.452 18.1663 214.54 17.9486 214.696 17.7881C214.853 17.6277 215.066 17.5375 215.287 17.5375C215.509 17.5375 215.721 17.6277 215.878 17.7881C216.035 17.9486 216.123 18.1663 216.123 18.3933V23.595C216.123 23.8196 216.036 24.0351 215.882 24.1948C215.727 24.3545 215.518 24.4458 215.299 24.4488H215.287Z" fill="url(#paint0_linear_1577_1850)"/>
<defs>
<linearGradient id="paint0_linear_1577_1850" x1="0" y1="20.9748" x2="260.738" y2="20.9748" gradientUnits="userSpaceOnUse">
<stop stop-color="#767EE5"/>
<stop offset="1" stop-color="#9966CC"/>
</linearGradient>
</defs>
</svg>
