<svg width="90" height="91" viewBox="0 0 90 91" fill="none" xmlns="http://www.w3.org/2000/svg">
<path d="M58.5 27.791H31.5C29.0147 27.791 27 29.8057 27 32.291V59.291C27 61.7763 29.0147 63.791 31.5 63.791H58.5C60.9853 63.791 63 61.7763 63 59.291V32.291C63 29.8057 60.9853 27.791 58.5 27.791Z" stroke="#7680DD" stroke-width="4" stroke-linecap="round" stroke-linejoin="round"/>
<path d="M51.75 39.041H38.25V52.541H51.75V39.041Z" stroke="#7680DD" stroke-width="4" stroke-linecap="round" stroke-linejoin="round"/>
<path d="M38.25 21.041V27.791" stroke="#7680DD" stroke-width="4" stroke-linecap="round" stroke-linejoin="round"/>
<path d="M51.75 21.041V27.791" stroke="#7680DD" stroke-width="4" stroke-linecap="round" stroke-linejoin="round"/>
<path d="M38.25 63.791V70.541" stroke="#7680DD" stroke-width="4" stroke-linecap="round" stroke-linejoin="round"/>
<path d="M51.75 63.791V70.541" stroke="#7680DD" stroke-width="4" stroke-linecap="round" stroke-linejoin="round"/>
<path d="M63 39.041H69.75" stroke="#7680DD" stroke-width="4" stroke-linecap="round" stroke-linejoin="round"/>
<path d="M63 50.291H69.75" stroke="#7680DD" stroke-width="4" stroke-linecap="round" stroke-linejoin="round"/>
<path d="M20.25 39.041H27" stroke="#7680DD" stroke-width="4" stroke-linecap="round" stroke-linejoin="round"/>
<path d="M20.25 50.291H27" stroke="#7680DD" stroke-width="4" stroke-linecap="round" stroke-linejoin="round"/>
</svg>
