<svg width="146" height="43" viewBox="0 0 146 43" fill="none" xmlns="http://www.w3.org/2000/svg">
<path d="M135.15 28.6269C131.648 28.6269 128.156 28.6269 124.655 28.6269C124.382 28.6269 124.4 28.6269 124.409 28.9C124.464 29.9923 124.609 31.0664 124.928 32.1041C125.655 34.489 127.038 36.3551 129.311 37.4838C130.53 38.0937 131.83 38.3577 133.194 38.4032C134.522 38.4396 135.832 38.3213 137.078 37.8388C138.924 37.1197 140.215 35.8362 140.952 34.0066C141.025 33.8245 141.097 33.7972 141.27 33.8518C142.589 34.2251 143.898 34.6074 145.217 34.9624C145.417 35.017 145.435 35.0807 145.372 35.2628C144.48 37.8297 142.789 39.6958 140.406 40.9702C138.969 41.7348 137.441 42.19 135.823 42.3811C133.649 42.636 131.494 42.5632 129.384 41.9715C125.864 40.9884 123.327 38.8128 121.635 35.5996C120.79 33.9884 120.299 32.2589 120.053 30.4565C119.653 27.5346 119.753 24.6399 120.553 21.7907C121.217 19.4331 122.345 17.3213 124.073 15.5645C125.819 13.7894 127.901 12.6425 130.357 12.1691C133.14 11.6321 135.868 11.8505 138.487 12.9611C141.27 14.1444 143.244 16.1834 144.48 18.9416C145.126 20.3798 145.499 21.8909 145.708 23.4474C145.926 25.1132 145.89 26.7881 145.899 28.4539C145.899 28.6542 145.79 28.6269 145.672 28.6269C142.161 28.6269 138.66 28.6269 135.15 28.6269ZM132.849 24.6945C134.486 24.6945 136.123 24.6945 137.76 24.6945C138.851 24.6945 139.951 24.6945 141.043 24.6945C141.225 24.6945 141.261 24.649 141.261 24.476C141.234 23.6841 141.152 22.8922 140.961 22.1184C140.479 20.2524 139.56 18.6594 137.987 17.4942C135.904 15.9559 133.576 15.7192 131.121 16.2108C129.475 16.5385 128.111 17.4032 126.974 18.6139C125.437 20.2524 124.646 22.2277 124.427 24.4487C124.409 24.649 124.455 24.6945 124.664 24.6945C127.392 24.6945 130.13 24.6945 132.858 24.6945H132.849Z" fill="#1D1D2E"/>
<path d="M89.4688 27.0791C89.4688 22.2365 89.4688 17.3938 89.4688 12.5512C89.4688 12.3054 89.5416 12.2599 89.7689 12.269C91.0785 12.2781 92.379 12.269 93.6886 12.269C93.8614 12.269 93.8978 12.3145 93.8978 12.4783C93.8978 13.8711 93.8978 15.2729 93.8978 16.6656C93.8978 16.7475 93.825 16.8841 93.9796 16.8932C94.116 16.9114 94.2615 16.9387 94.3525 16.7475C95.0527 15.2547 96.135 14.0986 97.5264 13.2157C98.545 12.5694 99.6726 12.2144 100.864 12.0323C101.964 11.8685 103.074 11.8411 104.183 11.9413C106.348 12.1506 108.312 12.8607 109.913 14.3808C111.132 15.5369 111.905 16.9751 112.368 18.5772C112.759 19.9335 112.923 21.3171 112.923 22.728C112.923 29.018 112.923 35.308 112.923 41.6071C112.923 41.8164 112.878 41.8802 112.659 41.8802C111.304 41.8711 109.958 41.8711 108.603 41.8802C108.403 41.8802 108.358 41.8346 108.358 41.6344C108.358 35.5265 108.358 29.4276 108.358 23.3197C108.358 21.9998 108.176 20.7163 107.603 19.5239C106.703 17.6578 105.229 16.5108 103.183 16.1376C101.419 15.819 99.6999 15.9647 98.072 16.7384C96.1895 17.6396 95.0254 19.1597 94.4252 21.1259C94.1342 22.0635 94.0251 23.0284 94.0251 24.0115C94.0251 29.8737 94.0251 35.7358 94.0251 41.6071C94.0251 41.8255 93.9796 41.8893 93.7522 41.8893C92.3972 41.8802 91.0512 41.8802 89.6962 41.8893C89.5143 41.8893 89.4597 41.8437 89.4597 41.6617C89.4597 36.8008 89.4597 31.9491 89.4597 27.0882L89.4688 27.0791Z" fill="#1D1D2E"/>
<path d="M1.55396 41.2066C1.99048 40.5148 2.39973 39.8594 2.80897 39.2131C3.05452 38.8217 3.30916 38.4302 3.54561 38.0297C3.64565 37.8659 3.75478 37.8022 3.95486 37.8022C7.48346 37.8022 11.0121 37.8022 14.5407 37.8113C14.7134 37.8113 14.8135 37.7566 14.9135 37.6292C17.9419 33.8516 20.9703 30.083 23.9988 26.3054C26.2087 23.5473 28.4186 20.7983 30.6285 18.0401C33.2932 14.7267 35.9487 11.4042 38.6133 8.09084C40.2321 6.07003 41.8509 4.05833 43.4697 2.03752C43.5789 1.91009 43.6789 1.85547 43.8426 1.85547C48.6535 1.85547 53.4644 1.85547 58.2844 1.85547C58.4663 1.85547 58.5299 1.94043 58.4754 2.11035C58.148 3.08434 57.8115 4.05833 57.4841 5.04142C57.4295 5.20527 57.3477 5.25079 57.1749 5.25079C53.6281 5.25079 50.0904 5.25079 46.5436 5.25079C46.3617 5.25079 46.2435 5.31451 46.1253 5.45105C44.0336 8.04532 41.9328 10.6305 39.8411 13.2157C37.6312 15.9465 35.4121 18.6864 33.2022 21.4172C31.056 24.0661 28.9097 26.7059 26.7725 29.3548C24.308 32.3951 21.8434 35.4445 19.3788 38.4849C18.6695 39.3587 17.9601 40.2326 17.2599 41.1064C17.1962 41.1884 17.1325 41.2066 17.0325 41.2066C13.0947 41.2066 9.14772 41.2066 5.20988 41.2066C4.09127 41.2066 2.97267 41.2066 1.85407 41.2066H1.56305H1.55396Z" fill="#1D1D2E"/>
<path d="M63.7136 22.128C63.7136 15.6468 63.7136 9.16567 63.7136 2.69363C63.7136 2.46606 63.7591 2.40234 63.9955 2.40234C65.3324 2.41145 66.6693 2.41145 68.0061 2.40234C68.2426 2.40234 68.2699 2.47517 68.2699 2.68453C68.2699 7.80026 68.2699 12.9069 68.2699 18.0226C68.2699 25.8874 68.2699 33.743 68.2699 41.6078C68.2699 41.8172 68.2244 41.8809 68.0061 41.8809C66.6602 41.8718 65.3142 41.8718 63.9774 41.8809C63.7682 41.8809 63.7227 41.8263 63.7227 41.6169C63.7227 35.1267 63.7227 28.6273 63.7227 22.1371L63.7136 22.128Z" fill="#1D1D2E"/>
<path d="M81.1385 27.0888C81.1385 31.9314 81.1385 36.7741 81.1385 41.6167C81.1385 41.817 81.1021 41.8807 80.8838 41.8716C79.5288 41.8625 78.1646 41.8716 76.8096 41.8716C76.6277 41.8716 76.5913 41.8261 76.5913 41.644C76.5913 31.9405 76.5913 22.2279 76.5913 12.5244C76.5913 12.3333 76.6368 12.2695 76.8369 12.2695C78.1828 12.2786 79.5288 12.2786 80.8656 12.2695C81.0748 12.2695 81.1385 12.3059 81.1385 12.5335C81.1385 17.3853 81.1385 22.237 81.1385 27.0797V27.0888Z" fill="#1D1D2E"/>
<path d="M23.926 22.8743C23.8533 22.9198 23.7805 22.9016 23.7168 22.9016C22.0526 22.9016 20.3883 22.9016 18.715 22.9016C18.5604 22.9016 18.4694 22.8561 18.3785 22.7378C16.2322 20.1708 14.0859 17.6129 11.9306 15.0459C10.33 13.1344 8.72029 11.2228 7.1106 9.30212C5.20988 7.03554 3.30917 4.76896 1.39936 2.50238C1.23566 2.30212 1.06287 2.10186 0.89917 1.9016C0.953736 1.83788 1.0174 1.86519 1.07196 1.86519C2.75441 1.86519 4.43686 1.86519 6.11931 1.86519C6.26482 1.86519 6.34667 1.91071 6.43762 2.01994C8.52022 4.50498 10.6028 6.99003 12.6854 9.46597C14.6862 11.86 16.696 14.2449 18.6968 16.6389C20.4156 18.687 22.1344 20.7443 23.8624 22.7924C23.8805 22.8197 23.8987 22.847 23.926 22.8834V22.8743Z" fill="#1D1D2E"/>
<path d="M59.0119 41.7265C57.6477 41.7265 56.3018 41.7265 54.9467 41.7265C54.5738 41.7265 54.201 41.7083 53.819 41.7083C53.6644 41.7083 53.5735 41.6628 53.4734 41.5444C52.082 39.9332 50.6906 38.3221 49.2991 36.7109C47.5348 34.6719 45.7796 32.6329 44.0153 30.5938C42.2419 28.5366 40.4685 26.4794 38.6952 24.4313C37.9312 23.5483 37.1673 22.6563 36.4034 21.7733C36.3761 21.7369 36.3488 21.7096 36.3215 21.6641C36.8399 21.6641 37.331 21.6641 37.8312 21.6641C38.5133 21.6641 39.1953 21.6823 39.8774 21.6914C40.4504 21.6914 41.0324 21.7187 41.6053 21.7187C41.7054 21.7187 41.769 21.7642 41.8327 21.837C43.4879 23.7486 45.1339 25.6602 46.7891 27.5808C48.5534 29.629 50.3177 31.668 52.082 33.7161C53.9463 35.8734 55.8107 38.0308 57.6659 40.1881C58.0843 40.6706 58.5026 41.153 58.9209 41.6355C58.9573 41.6719 59.0028 41.6992 59.0028 41.7356L59.0119 41.7265Z" fill="#1D1D2E"/>
<path d="M10.3663 1.85547H10.6392C12.2852 1.85547 13.9313 1.85547 15.5683 1.85547C15.732 1.85547 15.8502 1.90098 15.9503 2.02842C17.0052 3.24819 18.0601 4.46795 19.1151 5.67862C19.9609 6.65261 20.8066 7.6266 21.6615 8.60059C22.8256 9.93869 23.9805 11.2768 25.1446 12.6058C26.0722 13.6708 26.9999 14.7358 27.9184 15.8009C28.364 16.3106 28.8096 16.8204 29.2462 17.3301C29.2734 17.3574 29.2825 17.3847 29.3098 17.4302C29.228 17.4849 29.1552 17.4667 29.0825 17.4667C27.4273 17.4667 25.7812 17.4667 24.1261 17.4667C23.9805 17.4667 23.8714 17.4211 23.7805 17.3119C22.8074 16.1923 21.8343 15.0635 20.8612 13.9439C20.0336 12.9881 19.1969 12.0323 18.3603 11.0765C17.087 9.6201 15.8229 8.15456 14.5497 6.69812C13.613 5.6149 12.6672 4.54077 11.7305 3.45755C11.2849 2.9478 10.8392 2.42894 10.3481 1.86457L10.3663 1.85547Z" fill="#8187C2"/>
<path d="M30.8103 26.6888C31.3378 26.6888 31.838 26.6706 32.3382 26.6888C32.9657 26.7252 33.5932 26.707 34.2298 26.7252C34.8482 26.7343 35.4757 26.7525 36.0941 26.7616C36.2032 26.7616 36.276 26.8071 36.3397 26.8799C37.1581 27.7902 37.9675 28.7005 38.786 29.6108C39.4863 30.3936 40.1866 31.1764 40.8868 31.9593C42.0145 33.2246 43.1513 34.4898 44.279 35.746C45.0793 36.6381 45.8796 37.5301 46.6799 38.4222C47.6075 39.4599 48.5442 40.4976 49.4719 41.5353C49.4901 41.5535 49.5082 41.5809 49.5355 41.6264C48.9535 41.6264 48.3987 41.6537 47.8531 41.6264C47.2438 41.59 46.6344 41.6082 46.0342 41.5991C45.4431 41.5991 44.8519 41.5991 44.2608 41.5627C44.1244 41.5627 44.0516 41.4898 43.9789 41.4079C43.2786 40.6251 42.5784 39.8422 41.8781 39.0594C41.1687 38.2675 40.4685 37.4846 39.7682 36.6927C38.5132 35.2909 37.2582 33.8891 36.0032 32.4872C35.0483 31.4222 34.1024 30.3663 33.1475 29.3013C32.3927 28.4547 31.6379 27.6173 30.8831 26.7707C30.8649 26.7525 30.8467 26.7252 30.8194 26.6797L30.8103 26.6888Z" fill="#8187C2"/>
<path d="M34.8029 12.7155H34.5482C32.8931 12.7155 31.2288 12.7155 29.5736 12.7155C29.4281 12.7155 29.3281 12.6791 29.2281 12.5607C27.9639 10.9951 26.6998 9.43849 25.4357 7.88192C24.2171 6.38908 23.0075 4.89623 21.7889 3.39428C21.3796 2.89363 20.9795 2.39298 20.5793 1.89233C20.6521 1.8195 20.7249 1.84681 20.7794 1.84681C22.4437 1.84681 24.1079 1.84681 25.7813 1.84681C25.9359 1.84681 26.0268 1.90143 26.1178 2.01066C27.5365 3.75839 28.9552 5.50611 30.3739 7.24473C31.6926 8.87412 33.0204 10.5035 34.3391 12.1329C34.4846 12.3059 34.621 12.4788 34.8029 12.7064V12.7155Z" fill="#9873B4"/>
<path d="M39.3955 41.5067C38.668 41.4794 38.0041 41.5067 37.3311 41.4703C36.8037 41.443 36.2762 41.4612 35.7578 41.4521C35.2213 41.4521 34.6938 41.4521 34.1572 41.4521C34.0299 41.4521 33.939 41.4157 33.848 41.3156C32.5475 39.759 31.2379 38.2024 29.9374 36.6368C28.8279 35.3169 27.7275 33.9879 26.618 32.668C26.2815 32.2674 25.945 31.8669 25.6085 31.4664C25.5813 31.43 25.5358 31.3845 25.5449 31.3572C25.554 31.2843 25.6267 31.3117 25.6813 31.3117C27.0273 31.3117 28.3732 31.3117 29.7101 31.3299C30.0284 31.3299 30.3558 31.3481 30.6741 31.3481C30.8196 31.3481 30.9196 31.3845 31.0197 31.5028C32.1383 32.85 33.266 34.179 34.3846 35.5262C35.585 36.9645 36.7946 38.4027 37.995 39.8409C38.4497 40.378 38.8954 40.9241 39.3955 41.5067Z" fill="#9873B4"/>
<path d="M82.93 4.33203C83.03 4.69614 82.9573 5.05115 82.8754 5.39705C82.4753 7.09016 81.4203 8.19159 79.7106 8.5466C78.0008 8.9016 76.3821 8.2189 75.4181 6.68964C74.9724 5.97052 74.7724 5.17859 74.836 4.33203C77.537 4.33203 80.229 4.33203 82.93 4.33203Z" fill="#A78CC2"/>
<path d="M82.93 4.33157C80.229 4.33157 77.5371 4.33157 74.8361 4.33157C74.8815 3.45771 75.1907 2.68398 75.7364 2.01038C76.373 1.22754 77.1915 0.726894 78.1919 0.563044C79.7197 0.317271 81.0111 0.790613 82.0206 1.97397C82.5844 2.62936 82.8845 3.39399 82.9391 4.25875C82.9391 4.27696 82.9391 4.30427 82.9391 4.32247L82.93 4.33157Z" fill="#9873B4"/>
</svg>
