<svg width="83" height="83" viewBox="0 0 83 83" fill="none" xmlns="http://www.w3.org/2000/svg">
<g id="Frame" clip-path="url(#clip0_1577_3113)">
<path id="Vector" d="M17.1514 5.01503C17.9287 4.65012 18.7767 4.46094 19.6353 4.46094C20.4939 4.46094 21.342 4.65012 22.1192 5.01503C23.2414 5.59306 24.2667 6.34234 25.1583 7.23593L36.8473 17.4638H45.2049L56.8938 7.23593C57.7866 6.34377 58.8116 5.59466 59.9328 5.01503C60.7628 4.71868 61.649 4.61385 62.5252 4.70838C63.4013 4.80291 64.2448 5.09436 64.9924 5.56092C65.74 6.02748 66.3725 6.65707 66.8424 7.40258C67.3123 8.14809 67.6076 8.99022 67.7061 9.86596C67.7672 11.2841 67.3102 12.6759 66.4203 13.7818C65.6052 14.6061 64.7468 15.3865 63.8487 16.1195C63.3319 16.6014 62.7854 17.0504 62.2123 17.4638H69.5178C72.7777 17.5687 75.8648 18.9547 78.1093 21.3211C80.492 23.5596 81.8986 26.6456 82.0251 29.9125V63.5181C82.1108 65.2186 82.0128 66.9234 81.7328 68.6028C81.3521 70.2869 80.639 71.8781 79.6354 73.2831C78.6319 74.6881 77.3579 75.8787 75.8884 76.7851C73.8694 78.0304 71.5392 78.6788 69.1672 78.6553H15.5149C13.7562 78.7451 11.9929 78.6471 10.2549 78.3631C8.59067 77.9712 7.02075 77.2528 5.63625 76.2495C4.25175 75.2463 3.08022 73.9781 2.1896 72.5186C0.900181 70.5134 0.210715 68.1814 0.202426 65.7974V32.5425C0.0523162 30.929 0.0523162 29.305 0.202426 27.6916C0.734956 24.9132 2.16894 22.3879 4.28218 20.5072C6.39543 18.6264 9.06996 17.495 11.8914 17.2884H19.5477C18.3203 16.4118 17.2683 15.3597 16.1579 14.4246C15.5012 13.8214 14.9912 13.0759 14.6671 12.2452C14.3429 11.4146 14.2131 10.5207 14.2876 9.63216C14.3555 8.6882 14.6515 7.77484 15.1504 6.97058C15.6492 6.16633 16.3359 5.49525 17.1514 5.01503ZM15.8071 27.6916C14.7183 27.8843 13.7064 28.382 12.8892 29.1269C12.0719 29.8718 11.4827 30.8332 11.19 31.8996C11.0853 32.6362 11.0853 33.3839 11.19 34.1205V61.7648C11.1273 63.0466 11.4882 64.3134 12.217 65.3697C12.9458 66.426 14.0021 67.213 15.2227 67.6093C16.0319 67.8839 16.8812 68.0221 17.7358 68.0183H65.2513C66.415 68.0621 67.5652 67.7573 68.5545 67.1429C69.5437 66.5285 70.3269 65.6326 70.8035 64.5701C71.3065 63.3503 71.507 62.0269 71.3879 60.7128V34.9972C71.5222 34.0669 71.5222 33.1221 71.3879 32.1918C71.1293 31.2686 70.6475 30.4232 69.985 29.7301C69.3225 29.037 68.4997 28.5176 67.5891 28.2175C66.4273 27.8066 65.1962 27.6279 63.9655 27.6916H18.554C17.6395 27.6271 16.7216 27.6271 15.8071 27.6916Z" fill="#7680DD"/>
<path id="Vector_2" d="M25.3917 36.8081C26.8569 36.7341 28.2965 37.214 29.4243 38.1523C30.0511 38.6881 30.5574 39.3505 30.9099 40.0959C31.2625 40.8413 31.4533 41.6529 31.4699 42.4773V48.3217C31.5223 49.6659 31.1095 50.987 30.301 52.0622C29.7079 52.7977 28.9454 53.3785 28.0787 53.7547C27.2121 54.131 26.2671 54.2915 25.3248 54.2226C24.3825 54.1536 23.4709 53.8572 22.6683 53.3588C21.8656 52.8604 21.1957 52.1749 20.7161 51.3609C20.1082 50.1291 19.8457 48.7557 19.9563 47.3866V41.5421C20.1516 40.2809 20.7543 39.1182 21.6725 38.2318C22.5906 37.3453 23.7737 36.7837 25.041 36.6328L25.3917 36.8081ZM55.6075 36.8081C56.38 36.7526 57.1558 36.8512 57.8899 37.0982C58.624 37.3452 59.3017 37.7356 59.8836 38.2468C60.4654 38.758 60.9399 39.3797 61.2794 40.0758C61.6189 40.772 61.8166 41.5287 61.8611 42.3019V48.1464C61.9553 49.4905 61.6503 50.8324 60.9844 52.0038C60.4477 52.7873 59.7282 53.4282 58.888 53.8711C58.0479 54.3139 57.1125 54.5454 56.1628 54.5454C55.213 54.5454 54.2776 54.3139 53.4375 53.8711C52.5973 53.4282 51.8778 52.7873 51.3411 52.0038C50.6036 50.7522 50.2766 49.3011 50.4059 47.8542V42.0097C50.5533 40.7061 51.1349 39.4901 52.0572 38.5572C52.9795 37.6243 54.1888 37.0288 55.4906 36.8665L55.6075 36.8081Z" fill="#7680DD"/>
</g>
<defs>
<clipPath id="clip0_1577_3113">
<rect width="82" height="82" fill="white" transform="translate(0.0898438 0.5)"/>
</clipPath>
</defs>
</svg>
