<svg width="34" height="31" viewBox="0 0 34 31" fill="none" xmlns="http://www.w3.org/2000/svg">
<path d="M33.229 16.7117L28.7624 1.50312V1.49902C28.4507 0.559766 27.7083 0.00195312 26.7813 0.00195312C25.8216 0.00195312 25.0382 0.555664 24.7428 1.4457L21.8143 10.182H11.6917L8.76315 1.4457C8.46784 0.555664 7.68444 0.00195312 6.72468 0.00195312C5.77722 0.00195312 4.98152 0.608984 4.73952 1.50312L0.277023 16.7117C0.0965542 17.3146 0.326242 17.9996 0.830734 18.3811L15.945 29.7178C16.0516 29.8654 16.1993 29.9762 16.3716 30.0377L16.7243 30.3002L17.0729 30.0377C17.2739 29.968 17.4421 29.8449 17.561 29.6727L32.6712 18.377C33.1798 17.9996 33.4094 17.3146 33.229 16.7117ZM26.5762 1.99531C26.6173 1.92148 26.6952 1.91738 26.7198 1.91738C26.7649 1.91738 26.8223 1.92969 26.8592 2.04043L29.2956 10.2354H23.82L26.5762 1.99531ZM6.58523 2.03633C6.62214 1.92969 6.67956 1.91738 6.72468 1.91738C6.83542 1.91738 6.84362 1.92148 6.86413 1.98711L9.62448 10.2395H4.21452L6.58523 2.03633ZM2.25808 16.9783L3.41472 12.9875L11.7163 24.0699L2.25808 16.9783ZM5.28913 12.2041H10.2971L14.0214 23.8648L5.28913 12.2041ZM16.7817 25.891L12.3848 12.2041H21.1745L16.7817 25.891ZM23.2581 12.2041H28.1594L19.5339 23.7213L23.2581 12.2041ZM21.5887 24.2586L30.0913 12.9096L31.3012 16.9783L21.5887 24.2586Z" fill="#7680DD"/>
</svg>
