<svg width="19" height="19" viewBox="0 0 19 19" fill="none" xmlns="http://www.w3.org/2000/svg">
<g id="Frame" clip-path="url(#clip0_2778_2849)">
<path id="Vector" d="M9.84788 0.414062C5.08538 0.414062 1.22363 4.27506 1.22363 9.03906C1.22363 12.8506 3.69413 16.0831 7.12238 17.2246C7.55288 17.3018 7.68938 17.0476 7.68938 16.8188C7.68938 16.6133 7.69388 16.0411 7.68938 15.3211C5.29088 15.8416 4.79363 14.1848 4.79363 14.1848C4.40138 13.1881 3.83738 12.9233 3.83738 12.9233C3.05363 12.3878 3.89513 12.3991 3.89513 12.3991C4.75988 12.4591 5.21663 13.2871 5.21663 13.2871C5.98613 14.6056 7.23488 14.2246 7.72613 14.0041C7.80563 13.4476 8.02763 13.0658 8.27438 12.8521C6.35888 12.6331 4.34588 11.8943 4.34588 8.58756C4.34588 7.64631 4.68188 6.87681 5.23388 6.27306C5.14538 6.05631 4.84838 5.17806 5.31788 3.99081C5.31788 3.99081 6.04313 3.75906 7.68938 4.87581C8.39336 4.68381 9.11969 4.58596 9.84938 4.58481C10.5814 4.58856 11.3194 4.68381 12.0094 4.87581C13.6556 3.75981 14.3786 3.99081 14.3786 3.99081C14.8489 5.17806 14.5526 6.05631 14.4641 6.27306C15.0161 6.87681 15.3514 7.64631 15.3514 8.58756C15.3514 11.9026 13.3346 12.6308 11.4131 12.8431C11.7221 13.1108 12.0034 13.6283 12.0034 14.4331V16.8211C12.0034 17.0521 12.1429 17.3063 12.5809 17.2231C16.0054 16.0808 18.4736 12.8491 18.4736 9.03906C18.4736 4.27506 14.6126 0.414062 9.84788 0.414062Z" fill="white"/>
</g>
<defs>
<clipPath id="clip0_2778_2849">
<rect width="18" height="18" fill="white" transform="translate(0.848633 0.0390625)"/>
</clipPath>
</defs>
</svg>
