<svg width="30" height="30" viewBox="0 0 30 30" fill="none" xmlns="http://www.w3.org/2000/svg">
<path d="M14.0625 12.375H15.9375V8.625H20.25L15.75 3.9375C15.375 3.75 14.625 3.75 14.25 3.9375L9.75 8.625H14.0625V12.375Z" fill="#6B7280"/>
<path d="M12.375 14.0625H8.625V9.75L3.9375 14.25C3.75 14.625 3.75 15.375 3.9375 15.75L8.625 20.4375V15.9375H12.375V14.0625Z" fill="#6B7280"/>
<path d="M26.0625 14.25L21.375 9.5625V13.875H17.625V15.75H21.375V20.0625L26.0625 15.375C26.25 15.375 26.25 14.625 26.0625 14.25Z" fill="#6B7280"/>
<path d="M15.9375 17.625H14.0625V21.375H9.75L14.4375 26.0625C14.8125 26.4375 15.375 26.4375 15.75 26.0625L20.4375 21.375H15.9375V17.625Z" fill="#6B7280"/>
</svg>
