<svg width="63" height="65" viewBox="0 0 63 65" fill="none" xmlns="http://www.w3.org/2000/svg">
<g id="Group">
<path id="Vector" d="M5.17188 43.6114V40.3186H23.1813V46.3945H7.9621C6.42213 46.3945 5.17188 45.1475 5.17188 43.6114Z" fill="#7767A0"/>
<path id="Vector_2" d="M56.5527 22.3574H61.5001C62.1315 22.3574 62.6442 22.8687 62.6442 23.4986V37.8448C62.6442 39.6488 61.1758 41.1134 59.3672 41.1134H56.5527V22.3574Z" fill="#7767A0"/>
<path id="Vector_3" d="M50.9062 32.1262C50.9062 34.1927 50.5465 36.0931 49.8269 37.828C49.1071 39.5633 48.115 41.0575 46.8502 42.3114C45.5847 43.5654 44.0828 44.5473 42.3435 45.257C40.6036 45.9668 38.7143 46.3217 36.6744 46.3217H20.0233C19.5804 46.3217 19.1693 46.243 18.7898 46.0851C18.4103 45.9276 18.0819 45.7106 17.8055 45.4345C17.5286 45.1587 17.3111 44.8312 17.1532 44.4526C16.9949 44.074 16.916 43.6641 16.916 43.2223V15.4939C16.916 15.0679 16.9949 14.6657 17.1532 14.2873C17.3111 13.9087 17.5286 13.5775 17.8055 13.2936C18.0819 13.0097 18.4103 12.789 18.7898 12.6311C19.1693 12.4736 19.5804 12.3945 20.0233 12.3945H36.6744C38.7143 12.3945 40.6036 12.7494 42.3435 13.4592C44.0828 14.169 45.5847 15.1508 46.8502 16.4048C48.115 17.6587 49.1071 19.1573 49.8269 20.8999C50.5465 22.6429 50.9062 24.5397 50.9062 26.59V32.1262V32.1262ZM44.739 26.59C44.739 25.3916 44.5453 24.295 44.1581 23.3014C43.7704 22.3077 43.221 21.46 42.5095 20.758C41.7978 20.0564 40.9476 19.5123 39.9596 19.1256C38.9711 18.7392 37.876 18.5459 36.6744 18.5459H23.0831V40.1703H36.6744C37.876 40.1703 38.9711 39.9774 39.9596 39.5907C40.9476 39.2043 41.7978 38.6603 42.5095 37.9582C43.221 37.2566 43.7704 36.4126 44.1581 35.4267C44.5453 34.4412 44.739 33.341 44.739 32.1262V26.59V26.59Z" fill="#7767A0"/>
<path id="Vector_4" d="M16.957 40.0547H23.0485V58.0182H19.8981C18.2749 58.0182 16.957 56.7037 16.957 55.0846V40.0547Z" fill="#7767A0"/>
<path id="Vector_5" d="M8.50061 0.693359H11.2633V46.3946H8.07678C6.47351 46.3946 5.17188 45.0963 5.17188 43.4971V4.01362C5.17188 2.18113 6.66343 0.693359 8.50061 0.693359Z" fill="#7767A0"/>
<path id="Vector_6" d="M17.0898 55.2345V51.9417H35.0993V58.0176H19.8801C18.3401 58.0176 17.0898 56.7705 17.0898 55.2345Z" fill="#7767A0"/>
<path id="Vector_7" d="M17.0898 3.98643V0.693646L39.3368 0.693646V6.76953L19.8801 6.76953C18.3401 6.76953 17.0898 5.52247 17.0898 3.98643Z" fill="#7767A0"/>
<path id="Vector (Stroke)" fill-rule="evenodd" clip-rule="evenodd" d="M37.8983 6.76922C37.8989 6.76922 37.8995 6.76921 37.8818 3.73132C37.8641 0.693429 37.8648 0.693426 37.8655 0.693422L37.8703 0.693399L37.8786 0.693372L37.9015 0.693359C37.9194 0.693378 37.9429 0.693466 37.9716 0.6937C38.0289 0.694168 38.1075 0.695223 38.2057 0.697493C38.4019 0.70203 38.6773 0.711436 39.0195 0.730787C39.7026 0.769418 40.6592 0.848073 41.7898 1.00859C44.0284 1.32639 47.0599 1.98027 50.0238 3.35372C55.8709 6.06327 61.4617 12.464 62.6272 23.2175L56.5711 23.8705C55.6178 15.0755 51.2272 10.611 47.4572 8.86396C45.2197 7.82711 42.8219 7.29222 40.9315 7.02385C39.9976 6.89127 39.2148 6.82748 38.6747 6.79693C38.4052 6.78169 38.198 6.77483 38.0645 6.77175C37.9978 6.77021 37.9498 6.76961 37.9217 6.76938C37.9077 6.76927 37.8988 6.76925 37.895 6.76924C37.8931 6.76924 37.8925 6.76924 37.8933 6.76924L37.8954 6.76923L37.8983 6.76922Z" fill="#7767A0"/>
<path id="Vector (Stroke)_2" fill-rule="evenodd" clip-rule="evenodd" d="M58.3712 48.9382C56.1334 51.4593 53.3525 53.1225 51.0571 54.4433C47.1159 56.7113 42.9363 57.5786 39.8267 57.8985C38.2574 58.0599 36.9209 58.0859 35.9658 58.0708C35.4872 58.0632 35.1016 58.0452 34.8272 58.0283C34.6898 58.0199 34.5801 58.0117 34.5002 58.0051C34.4602 58.0019 34.4277 57.999 34.4029 57.9967C34.3905 57.9956 34.38 57.9946 34.3715 57.9938L34.3601 57.9927L34.3536 57.9921C34.3527 57.992 34.3518 57.9919 34.6579 54.9693C34.964 51.9467 34.9632 51.9467 34.9624 51.9466L34.9586 51.9462L34.956 51.946C34.9552 51.9459 34.9563 51.946 34.9592 51.9463C34.9651 51.9468 34.9782 51.948 34.9985 51.9496C35.039 51.9529 35.1077 51.9582 35.2023 51.964C35.3917 51.9756 35.6842 51.9896 36.0625 51.9956C36.8209 52.0076 37.9126 51.9873 39.2018 51.8546C41.8094 51.5864 45.0684 50.875 48.0131 49.1805C50.3105 47.8585 52.2968 46.6158 53.8104 44.9105C55.2413 43.2986 56.3405 41.1615 56.5603 37.873L62.6382 38.2772C62.3283 42.9138 60.6918 46.3237 58.3712 48.9382Z" fill="#7767A0"/>
<path id="Vector_8" d="M3.18634 57.7556C4.86845 57.7556 6.23206 56.3954 6.23206 54.7176C6.23206 53.0398 4.86845 51.6797 3.18634 51.6797C1.50424 51.6797 0.140625 53.0398 0.140625 54.7176C0.140625 56.3954 1.50424 57.7556 3.18634 57.7556Z" fill="#7767A0"/>
<path id="Vector_9" d="M10.6039 54.3219C11.9935 54.3219 13.1199 53.1984 13.1199 51.8123C13.1199 50.4263 11.9935 49.3027 10.6039 49.3027C9.21436 49.3027 8.08789 50.4263 8.08789 51.8123C8.08789 53.1984 9.21436 54.3219 10.6039 54.3219Z" fill="#7767A0"/>
<path id="Vector_10" d="M10.64 64.4467C12.8865 64.4467 14.7077 62.6302 14.7077 60.3894C14.7077 58.1486 12.8865 56.332 10.64 56.332C8.39345 56.332 6.57227 58.1486 6.57227 60.3894C6.57227 62.6302 8.39345 64.4467 10.64 64.4467Z" fill="#7767A0"/>
</g>
</svg>
