<svg width="20" height="21" viewBox="0 0 20 21" fill="none" xmlns="http://www.w3.org/2000/svg">
<g id="Frame" clip-path="url(#clip0_2757_356)">
<path id="Vector" d="M10 20.6377C4.477 20.6377 0 16.1607 0 10.6377C0 5.1147 4.477 0.637695 10 0.637695C15.523 0.637695 20 5.1147 20 10.6377C20 16.1607 15.523 20.6377 10 20.6377ZM8.1465 7.4912L11.293 10.6377L8.1465 13.7842C8.05542 13.8785 8.00502 14.0048 8.00616 14.1359C8.0073 14.267 8.05989 14.3924 8.15259 14.4851C8.2453 14.5778 8.3707 14.6304 8.5018 14.6315C8.6329 14.6327 8.7592 14.5823 8.8535 14.4912L12.3535 10.9912C12.4472 10.8974 12.4999 10.7703 12.4999 10.6377C12.4999 10.5051 12.4472 10.378 12.3535 10.2842L8.8535 6.7842C8.7592 6.69312 8.6329 6.64272 8.5018 6.64386C8.3707 6.645 8.2453 6.69758 8.15259 6.79029C8.05989 6.88299 8.0073 7.0084 8.00616 7.13949C8.00502 7.27059 8.05542 7.39689 8.1465 7.4912Z" fill="#D9DBEF"/>
</g>
<defs>
<clipPath id="clip0_2757_356">
<rect width="20" height="20" fill="white" transform="translate(0 0.637695)"/>
</clipPath>
</defs>
</svg>
