<svg width="59" height="59" viewBox="0 0 59 59" fill="none" xmlns="http://www.w3.org/2000/svg">
<g id="Frame">
<path id="Vector" d="M53.6016 27.5914C53.6446 28.1799 53.6663 28.7744 53.6663 29.3737C53.6663 42.7205 42.8464 53.5404 29.4997 53.5404C16.1529 53.5404 5.33301 42.7205 5.33301 29.3737C5.33301 16.0269 16.1529 5.20703 29.4997 5.20703C30.099 5.20703 30.6935 5.22878 31.282 5.2718C31.578 5.19575 31.8872 5.18671 32.1872 5.24533C32.4871 5.30396 32.7702 5.42878 33.0158 5.61069C33.2614 5.7926 33.4633 6.02701 33.6068 6.29685C33.7503 6.56669 33.8318 6.86515 33.8453 7.17047C33.8588 7.4758 33.804 7.78029 33.6849 8.06175C33.5659 8.34322 33.3855 8.59457 33.1569 8.79748C32.9284 9.00038 32.6574 9.14973 32.3638 9.23464C32.0702 9.31956 31.7614 9.33788 31.4598 9.2883V9.3289C30.8083 9.26603 30.1542 9.23458 29.4997 9.23465C18.3772 9.23465 9.36087 18.2512 9.36087 29.3737C9.36087 40.4962 18.3774 49.5125 29.4997 49.5125C40.6221 49.5125 49.6385 40.4959 49.6385 29.3737C49.6385 28.7123 49.6066 28.0585 49.5442 27.4135H49.5853C49.5357 27.112 49.5541 26.8031 49.639 26.5095C49.7239 26.216 49.8732 25.945 50.0761 25.7165C50.279 25.4879 50.5304 25.3075 50.8119 25.1884C51.0933 25.0694 51.3978 25.0146 51.7031 25.0281C52.0085 25.0416 52.3069 25.1231 52.5768 25.2666C52.8466 25.4101 53.081 25.612 53.2629 25.8576C53.4448 26.1032 53.5697 26.3863 53.6283 26.6862C53.6869 26.9861 53.6779 27.2954 53.6018 27.5914H53.6016Z" fill="url(#paint0_linear_1577_2891)"/>
<path id="Vector_2" d="M27.3669 17.5431C27.6162 17.4199 27.8906 17.3557 28.1687 17.3555C28.4469 17.3553 28.7213 17.4191 28.9708 17.542C29.2204 17.6648 29.4383 17.8435 29.6077 18.0641C29.7771 18.2847 29.8934 18.5413 29.9477 18.8141C30.002 19.0869 29.9928 19.3685 29.9208 19.6372C29.8488 19.9058 29.7159 20.1543 29.5325 20.3634C29.349 20.5725 29.1199 20.7365 28.8629 20.8428C28.6059 20.9491 28.3279 20.9949 28.0503 20.9765V21.1041C24.0698 21.7919 21.042 25.2617 21.042 29.4387C21.042 34.1101 24.8289 37.897 29.5003 37.897C33.8448 37.897 37.4243 34.6215 37.904 30.4054H37.9949C38.0468 30.1532 38.1518 29.9149 38.303 29.7065C38.4542 29.498 38.6481 29.3242 38.8717 29.1966C39.0953 29.0689 39.3436 28.9904 39.5999 28.9662C39.8563 28.942 40.1148 28.9727 40.3584 29.0562C40.6019 29.1398 40.8249 29.2743 41.0124 29.4508C41.1999 29.6272 41.3477 29.8416 41.4458 30.0797C41.544 30.3177 41.5903 30.5739 41.5817 30.8313C41.5731 31.0886 41.5097 31.3412 41.3959 31.5721C40.3884 37.2276 35.4458 41.522 29.5003 41.522C22.8269 41.522 17.417 36.1121 17.417 29.4387C17.417 23.4932 21.7109 18.5507 27.3669 17.5431Z" fill="url(#paint1_linear_1577_2891)"/>
<path id="Vector_3" d="M36.9554 24.2907L31.2264 30.1327C31.0651 30.2972 30.8726 30.4277 30.6601 30.5166C30.4476 30.6056 30.2194 30.651 29.9891 30.6504C29.7587 30.6498 29.5308 30.6031 29.3188 30.5131C29.1067 30.4231 28.9148 30.2915 28.7544 30.1262C28.4247 29.7864 28.2409 29.3311 28.2422 28.8576C28.2435 28.3842 28.4297 27.9299 28.7612 27.5918L34.5247 21.7145L34.1359 16.9505C34.0796 16.2596 34.1743 15.5647 34.4135 14.914C34.6526 14.2633 35.0304 13.6724 35.5206 13.1822L42.657 6.04581C43.681 5.02187 45.3403 5.02115 46.3632 6.04388C46.6174 6.29812 46.8165 6.60201 46.9481 6.9366L47.0046 7.08015C47.4471 8.20553 48.1216 9.22514 48.9841 10.0727C49.8467 10.9202 50.878 11.5766 52.011 11.9993C53.2894 12.4763 53.938 13.9 53.4598 15.1789C53.3357 15.5106 53.142 15.8118 52.8916 16.0622L45.646 23.3076C45.1558 23.7978 44.5649 24.1756 43.9142 24.4147C43.2635 24.6538 42.5686 24.7486 41.8777 24.6923L36.9554 24.2907ZM38.0501 15.7154C37.9273 15.8381 37.8326 15.986 37.7725 16.1489C37.7125 16.3118 37.6886 16.4858 37.7024 16.6588L38.0354 20.7928L42.1693 21.1258C42.3424 21.1397 42.5164 21.1158 42.6793 21.0558C42.8422 20.9958 42.9901 20.9011 43.1128 20.7783L49.2391 14.6516C47.0905 13.4939 45.3397 11.7169 44.2141 9.55143L38.0499 15.7154H38.0501Z" fill="url(#paint2_linear_1577_2891)"/>
</g>
<defs>
<linearGradient id="paint0_linear_1577_2891" x1="5.33301" y1="29.3737" x2="56.7719" y2="29.3737" gradientUnits="userSpaceOnUse">
<stop stop-color="#767EE5"/>
<stop offset="1" stop-color="#9966CC"/>
</linearGradient>
<linearGradient id="paint1_linear_1577_2891" x1="17.417" y1="29.4388" x2="43.1354" y2="29.4388" gradientUnits="userSpaceOnUse">
<stop stop-color="#767EE5"/>
<stop offset="1" stop-color="#9966CC"/>
</linearGradient>
<linearGradient id="paint2_linear_1577_2891" x1="28.2422" y1="17.9639" x2="55.2475" y2="17.9639" gradientUnits="userSpaceOnUse">
<stop stop-color="#767EE5"/>
<stop offset="1" stop-color="#9966CC"/>
</linearGradient>
</defs>
</svg>
